<?xml version="1.0" standalone="no"?>
 <!DOCTYPE svg PUBLIC "-//W3C//DTD SVG 1.1//EN" 
 "http://www.w3.org/Graphics/SVG/1.1/DTD/svg11.dtd"> 
<svg xmlns="http://www.w3.org/2000/svg" version="1.1" 
    width="29.7002cm" height="21.0007cm" viewBox="0 0 116930 82680 ">
<title>SVG Picture created as RCT-X-Telemetry-F_Mask.svg date 2019/09/20 18:38:45 </title>
  <desc>Picture generated by PCBNEW </desc>
<g style="fill:#000000; fill-opacity:1;stroke:#000000; stroke-opacity:1;
stroke-linecap:round; stroke-linejoin:round; "
 transform="translate(0 0) scale(1 1)">
</g>
<g style="fill:#000000; fill-opacity:0.0; 
stroke:#000000; stroke-width:-0.000393701; stroke-opacity:1; 
stroke-linecap:round; stroke-linejoin:round;">
</g>
<g style="fill:#000000; fill-opacity:0.0; 
stroke:#000000; stroke-width:19.685; stroke-opacity:1; 
stroke-linecap:round; stroke-linejoin:round;">
<path d="M15748 43622
L15748 25590
" />
<path d="M16062 43622
L15748 43622
" />
<path d="M16062 46929
L16062 43622
" />
<path d="M15748 46929
L16062 46929
" />
<path d="M15748 49212
L15748 46929
" />
<path d="M27559 31023
L27559 25590
" />
<path d="M27559 34330
L27559 49212
" />
<path d="M27244 34330
L27559 34330
" />
<path d="M27244 31023
L27244 34330
" />
<path d="M27559 31023
L27244 31023
" />
<path d="M27559.1 25590.6 A1968.5 1968.5 0.0 0 0 25590.6 23622 " />
<path d="M25590.6 51181.1 A1968.5 1968.5 0.0 0 0 27559.1 49212.6 " />
<path d="M25590 51181
L17716 51181
" />
<path d="M17716 23622
L25590 23622
" />
<path d="M17716.5 23622 A1968.5 1968.5 0.0 0 0 15748 25590.6 " />
<path d="M15748 49212.6 A1968.5 1968.5 0.0 0 0 17716.5 51181.1 " />
</g>
<g style="fill:#000000; fill-opacity:1.0; 
stroke:#000000; stroke-width:0; stroke-opacity:1; 
stroke-linecap:round; stroke-linejoin:round;">
<path style="fill:#000000; fill-opacity:1.0; 
stroke:#000000; stroke-width:0; stroke-opacity:1; 
stroke-linecap:round; stroke-linejoin:round;fill-rule:evenodd;"
d="M 25797,48530
25926,48584
26042,48661
26141,48760
26218,48876
26272,49005
26299,49142
26299,49282
26272,49419
26218,49548
26141,49664
26042,49763
25926,49840
25797,49894
25660,49921
25520,49921
25383,49894
25254,49840
25138,49763
25039,49664
24962,49548
24908,49419
24881,49282
24881,49142
24908,49005
24962,48876
25039,48760
25138,48661
25254,48584
25383,48530
25520,48503
25660,48503
25797,48530
Z" /> 
<path style="fill:#000000; fill-opacity:1.0; 
stroke:#000000; stroke-width:0; stroke-opacity:1; 
stroke-linecap:round; stroke-linejoin:round;fill-rule:evenodd;"
d="M 17923,48530
18052,48584
18168,48661
18267,48760
18344,48876
18398,49005
18425,49142
18425,49282
18398,49419
18344,49548
18267,49664
18168,49763
18052,49840
17923,49894
17786,49921
17646,49921
17509,49894
17380,49840
17264,49763
17165,49664
17088,49548
17034,49419
17007,49282
17007,49142
17034,49005
17088,48876
17165,48760
17264,48661
17380,48584
17509,48530
17646,48503
17786,48503
17923,48530
Z" /> 
<path style="fill:#000000; fill-opacity:1.0; 
stroke:#000000; stroke-width:0; stroke-opacity:1; 
stroke-linecap:round; stroke-linejoin:round;fill-rule:evenodd;"
d="M 17323,47146
16535,47146
16535,46279
17323,46279
17323,47146
Z" /> 
<path style="fill:#000000; fill-opacity:1.0; 
stroke:#000000; stroke-width:0; stroke-opacity:1; 
stroke-linecap:round; stroke-linejoin:round;fill-rule:evenodd;"
d="M 18194,46006
18236,46019
18236,46019
18251,46027
18276,46040
18310,46069
18339,46103
18352,46128
18360,46143
18360,46143
18373,46185
18377,46230
18373,46274
18360,46317
18360,46317
18352,46331
18339,46356
18310,46391
18276,46419
18251,46433
18236,46440
18236,46440
18194,46453
18160,46457
18059,46457
18026,46453
17983,46440
17983,46440
17969,46433
17944,46419
17909,46391
17881,46356
17867,46331
17860,46317
17860,46317
17847,46274
17842,46230
17847,46185
17860,46143
17860,46143
17867,46128
17881,46103
17909,46069
17944,46040
17969,46027
17983,46019
17983,46019
18026,46006
18059,46003
18160,46003
18194,46006
Z" /> 
<path style="fill:#000000; fill-opacity:1.0; 
stroke:#000000; stroke-width:0; stroke-opacity:1; 
stroke-linecap:round; stroke-linejoin:round;fill-rule:evenodd;"
d="M 18194,44097
18235,44110
18236,44110
18251,44117
18276,44131
18310,44159
18339,44194
18346,44207
18360,44233
18360,44233
18373,44276
18377,44320
18373,44365
18360,44408
18360,44408
18357,44412
18339,44447
18310,44481
18276,44510
18251,44523
18236,44531
18236,44531
18194,44544
18160,44547
18059,44547
18026,44544
17983,44531
17983,44531
17969,44523
17944,44510
17909,44481
17881,44447
17862,44412
17860,44408
17860,44408
17847,44365
17842,44320
17847,44276
17860,44233
17860,44233
17874,44207
17881,44194
17909,44159
17944,44131
17969,44117
17983,44110
17984,44110
18026,44097
18059,44094
18160,44094
18194,44097
Z" /> 
<path style="fill:#000000; fill-opacity:1.0; 
stroke:#000000; stroke-width:0; stroke-opacity:1; 
stroke-linecap:round; stroke-linejoin:round;fill-rule:evenodd;"
d="M 19156,38077
19197,38089
19208,38095
19235,38110
19268,38137
19295,38170
19300,38179
19315,38207
19327,38248
19332,38291
19327,38333
19315,38374
19315,38374
19295,38412
19268,38445
19235,38472
19208,38487
19197,38492
19192,38494
19183,38497
19175,38503
19168,38510
19163,38518
19159,38527
19157,38536
19157,38546
19159,38555
19163,38564
19168,38572
19175,38579
19183,38584
19192,38588
19197,38589
19208,38595
19235,38610
19268,38637
19295,38670
19308,38693
19315,38707
19327,38748
19332,38791
19327,38833
19315,38874
19315,38874
19295,38912
19268,38945
19235,38972
19208,38987
19197,38992
19192,38994
19183,38997
19175,39003
19168,39010
19163,39018
19159,39027
19157,39036
19157,39046
19159,39055
19163,39064
19168,39072
19175,39079
19183,39084
19192,39088
19197,39089
19208,39095
19235,39110
19268,39137
19295,39170
19309,39197
19315,39207
19327,39248
19332,39291
19327,39333
19315,39374
19315,39374
19295,39412
19268,39445
19235,39472
19208,39487
19197,39492
19192,39494
19183,39497
19175,39503
19168,39510
19163,39518
19159,39527
19157,39536
19157,39546
19159,39555
19163,39564
19168,39572
19175,39579
19183,39584
19192,39588
19197,39589
19208,39595
19235,39610
19268,39637
19295,39670
19309,39697
19315,39707
19327,39748
19332,39791
19327,39833
19315,39874
19315,39874
19295,39912
19268,39945
19235,39972
19208,39987
19197,39992
19192,39994
19183,39997
19175,40003
19168,40010
19163,40018
19159,40027
19157,40036
19157,40046
19159,40055
19163,40064
19168,40072
19175,40079
19183,40084
19192,40088
19197,40089
19208,40095
19235,40110
19268,40137
19295,40170
19309,40197
19315,40207
19327,40248
19332,40291
19327,40333
19315,40374
19315,40374
19295,40412
19268,40445
19235,40472
19208,40487
19197,40492
19192,40494
19183,40497
19175,40503
19168,40510
19163,40518
19159,40527
19157,40536
19157,40546
19159,40555
19163,40564
19168,40572
19175,40579
19183,40584
19192,40588
19197,40589
19208,40595
19235,40610
19268,40637
19295,40670
19309,40697
19315,40707
19327,40748
19332,40791
19327,40833
19315,40874
19315,40874
19295,40912
19268,40945
19235,40972
19208,40987
19197,40992
19192,40994
19183,40997
19175,41003
19168,41010
19163,41018
19159,41027
19157,41036
19157,41046
19159,41055
19163,41064
19168,41072
19175,41079
19183,41084
19192,41088
19197,41089
19208,41095
19235,41110
19268,41137
19295,41170
19309,41197
19315,41207
19327,41248
19332,41291
19327,41333
19315,41374
19315,41374
19295,41412
19268,41445
19235,41472
19208,41487
19197,41492
19192,41494
19183,41497
19175,41503
19168,41510
19163,41518
19159,41527
19157,41536
19157,41546
19159,41555
19163,41564
19168,41572
19175,41579
19183,41584
19192,41588
19197,41589
19208,41595
19235,41610
19268,41637
19295,41670
19309,41697
19315,41707
19327,41748
19332,41791
19327,41833
19315,41874
19315,41874
19295,41912
19268,41945
19235,41972
19208,41987
19197,41992
19192,41994
19183,41997
19175,42003
19168,42010
19163,42018
19159,42027
19157,42036
19157,42046
19159,42055
19163,42064
19168,42072
19175,42079
19183,42084
19192,42088
19197,42089
19208,42095
19235,42110
19268,42137
19295,42170
19309,42197
19315,42207
19327,42248
19332,42291
19327,42333
19315,42374
19315,42374
19295,42412
19268,42445
19235,42472
19208,42487
19197,42492
19192,42494
19183,42497
19175,42503
19168,42510
19163,42518
19159,42527
19157,42536
19157,42546
19159,42555
19163,42564
19168,42572
19175,42579
19183,42584
19192,42588
19197,42589
19208,42595
19235,42610
19268,42637
19295,42670
19309,42697
19315,42707
19327,42748
19332,42791
19327,42833
19315,42874
19315,42874
19295,42912
19268,42945
19235,42972
19208,42987
19197,42992
19192,42994
19183,42997
19175,43003
19168,43010
19163,43018
19159,43027
19157,43036
19157,43046
19159,43055
19163,43064
19168,43072
19175,43079
19183,43084
19192,43088
19197,43089
19208,43095
19235,43110
19268,43137
19295,43170
19309,43197
19315,43207
19327,43248
19332,43291
19327,43333
19315,43374
19315,43374
19295,43412
19268,43445
19235,43472
19208,43487
19197,43492
19192,43494
19183,43497
19175,43503
19168,43510
19163,43518
19159,43527
19157,43536
19157,43546
19159,43555
19163,43564
19168,43572
19175,43579
19183,43584
19192,43588
19197,43589
19208,43595
19235,43610
19268,43637
19295,43670
19309,43697
19315,43707
19327,43748
19332,43791
19327,43833
19315,43874
19315,43874
19295,43912
19268,43945
19235,43972
19208,43987
19197,43992
19192,43994
19183,43997
19175,44003
19168,44010
19163,44018
19159,44027
19157,44036
19157,44046
19159,44055
19163,44064
19168,44072
19175,44079
19183,44084
19192,44088
19197,44089
19205,44094
19235,44110
19268,44137
19295,44170
19308,44194
19315,44207
19327,44248
19332,44291
19327,44333
19315,44374
19315,44374
19295,44412
19268,44445
19235,44472
19208,44487
19197,44492
19156,44505
19124,44508
18985,44508
18953,44505
18912,44492
18901,44487
18874,44472
18841,44445
18814,44412
18794,44374
18794,44374
18782,44333
18778,44291
18782,44248
18794,44207
18801,44194
18814,44170
18841,44137
18874,44110
18904,44094
18912,44089
18917,44088
18926,44084
18934,44079
18941,44072
18946,44064
18950,44055
18952,44046
18952,44036
18950,44027
18946,44018
18941,44010
18934,44003
18926,43997
18917,43994
18912,43992
18901,43987
18874,43972
18841,43945
18814,43912
18794,43874
18794,43874
18782,43833
18778,43791
18782,43748
18794,43707
18800,43697
18814,43670
18841,43637
18874,43610
18901,43595
18912,43589
18917,43588
18926,43584
18934,43579
18941,43572
18946,43564
18950,43555
18952,43546
18952,43536
18950,43527
18946,43518
18941,43510
18934,43503
18926,43497
18917,43494
18912,43492
18901,43487
18874,43472
18841,43445
18814,43412
18794,43374
18794,43374
18782,43333
18778,43291
18782,43248
18794,43207
18800,43197
18814,43170
18841,43137
18874,43110
18901,43095
18912,43089
18917,43088
18926,43084
18934,43079
18941,43072
18946,43064
18950,43055
18952,43046
18952,43036
18950,43027
18946,43018
18941,43010
18934,43003
18926,42997
18917,42994
18912,42992
18901,42987
18874,42972
18841,42945
18814,42912
18794,42874
18794,42874
18782,42833
18778,42791
18782,42748
18794,42707
18800,42697
18814,42670
18841,42637
18874,42610
18901,42595
18912,42589
18917,42588
18926,42584
18934,42579
18941,42572
18946,42564
18950,42555
18952,42546
18952,42536
18950,42527
18946,42518
18941,42510
18934,42503
18926,42497
18917,42494
18912,42492
18901,42487
18874,42472
18841,42445
18814,42412
18794,42374
18794,42374
18782,42333
18778,42291
18782,42248
18794,42207
18800,42197
18814,42170
18841,42137
18874,42110
18901,42095
18912,42089
18917,42088
18926,42084
18934,42079
18941,42072
18946,42064
18950,42055
18952,42046
18952,42036
18950,42027
18946,42018
18941,42010
18934,42003
18926,41997
18917,41994
18912,41992
18901,41987
18874,41972
18841,41945
18814,41912
18794,41874
18794,41874
18782,41833
18778,41791
18782,41748
18794,41707
18800,41697
18814,41670
18841,41637
18874,41610
18901,41595
18912,41589
18917,41588
18926,41584
18934,41579
18941,41572
18946,41564
18950,41555
18952,41546
18952,41536
18950,41527
18946,41518
18941,41510
18934,41503
18926,41497
18917,41494
18912,41492
18901,41487
18874,41472
18841,41445
18814,41412
18794,41374
18794,41374
18782,41333
18778,41291
18782,41248
18794,41207
18800,41197
18814,41170
18841,41137
18874,41110
18901,41095
18912,41089
18917,41088
18926,41084
18934,41079
18941,41072
18946,41064
18950,41055
18952,41046
18952,41036
18950,41027
18946,41018
18941,41010
18934,41003
18926,40997
18917,40994
18912,40992
18901,40987
18874,40972
18841,40945
18814,40912
18794,40874
18794,40874
18782,40833
18778,40791
18782,40748
18794,40707
18800,40697
18814,40670
18841,40637
18874,40610
18901,40595
18912,40589
18917,40588
18926,40584
18934,40579
18941,40572
18946,40564
18950,40555
18952,40546
18952,40536
18950,40527
18946,40518
18941,40510
18934,40503
18926,40497
18917,40494
18912,40492
18901,40487
18874,40472
18841,40445
18814,40412
18794,40374
18794,40374
18782,40333
18778,40291
18782,40248
18794,40207
18800,40197
18814,40170
18841,40137
18874,40110
18901,40095
18912,40089
18917,40088
18926,40084
18934,40079
18941,40072
18946,40064
18950,40055
18952,40046
18952,40036
18950,40027
18946,40018
18941,40010
18934,40003
18926,39997
18917,39994
18912,39992
18901,39987
18874,39972
18841,39945
18814,39912
18794,39874
18794,39874
18782,39833
18778,39791
18782,39748
18794,39707
18800,39697
18814,39670
18841,39637
18874,39610
18901,39595
18912,39589
18917,39588
18926,39584
18934,39579
18941,39572
18946,39564
18950,39555
18952,39546
18952,39536
18950,39527
18946,39518
18941,39510
18934,39503
18926,39497
18917,39494
18912,39492
18901,39487
18874,39472
18841,39445
18814,39412
18794,39374
18794,39374
18782,39333
18778,39291
18782,39248
18794,39207
18800,39197
18814,39170
18841,39137
18874,39110
18901,39095
18912,39089
18917,39088
18926,39084
18934,39079
18941,39072
18946,39064
18950,39055
18952,39046
18952,39036
18950,39027
18946,39018
18941,39010
18934,39003
18926,38997
18917,38994
18912,38992
18901,38987
18874,38972
18841,38945
18814,38912
18794,38874
18794,38874
18782,38833
18778,38791
18782,38748
18794,38707
18802,38693
18814,38670
18841,38637
18874,38610
18901,38595
18912,38589
18917,38588
18926,38584
18934,38579
18941,38572
18946,38564
18950,38555
18952,38546
18952,38536
18950,38527
18946,38518
18941,38510
18934,38503
18926,38497
18917,38494
18912,38492
18901,38487
18874,38472
18841,38445
18814,38412
18794,38374
18794,38374
18782,38333
18778,38291
18782,38248
18794,38207
18810,38179
18814,38170
18841,38137
18874,38110
18901,38095
18912,38089
18953,38077
18985,38074
19124,38074
19156,38077
Z" /> 
<path style="fill:#000000; fill-opacity:1.0; 
stroke:#000000; stroke-width:0; stroke-opacity:1; 
stroke-linecap:round; stroke-linejoin:round;fill-rule:evenodd;"
d="M 26676,38077
26717,38089
26727,38095
26754,38110
26787,38137
26815,38170
26819,38179
26835,38207
26847,38248
26851,38291
26847,38333
26835,38374
26835,38374
26815,38412
26787,38445
26754,38472
26727,38487
26717,38492
26712,38494
26703,38497
26695,38503
26688,38510
26683,38518
26679,38527
26677,38536
26677,38546
26679,38555
26683,38564
26688,38572
26695,38579
26703,38584
26712,38588
26717,38589
26727,38595
26754,38610
26787,38637
26815,38670
26827,38693
26835,38707
26847,38748
26851,38791
26847,38833
26835,38874
26835,38874
26815,38912
26787,38945
26754,38972
26727,38987
26717,38992
26712,38994
26703,38997
26695,39003
26688,39010
26683,39018
26679,39027
26677,39036
26677,39046
26679,39055
26683,39064
26688,39072
26695,39079
26703,39084
26712,39088
26717,39089
26727,39095
26754,39110
26787,39137
26815,39170
26829,39197
26835,39207
26847,39248
26851,39291
26847,39333
26835,39374
26835,39374
26815,39412
26787,39445
26754,39472
26727,39487
26717,39492
26712,39494
26703,39497
26695,39503
26688,39510
26683,39518
26679,39527
26677,39536
26677,39546
26679,39555
26683,39564
26688,39572
26695,39579
26703,39584
26712,39588
26717,39589
26727,39595
26754,39610
26787,39637
26815,39670
26829,39697
26835,39707
26847,39748
26851,39791
26847,39833
26835,39874
26835,39874
26815,39912
26787,39945
26754,39972
26727,39987
26717,39992
26712,39994
26703,39997
26695,40003
26688,40010
26683,40018
26679,40027
26677,40036
26677,40046
26679,40055
26683,40064
26688,40072
26695,40079
26703,40084
26712,40088
26717,40089
26727,40095
26754,40110
26787,40137
26815,40170
26829,40197
26835,40207
26847,40248
26851,40291
26847,40333
26835,40374
26835,40374
26815,40412
26787,40445
26754,40472
26727,40487
26717,40492
26712,40494
26703,40497
26695,40503
26688,40510
26683,40518
26679,40527
26677,40536
26677,40546
26679,40555
26683,40564
26688,40572
26695,40579
26703,40584
26712,40588
26717,40589
26727,40595
26754,40610
26787,40637
26815,40670
26829,40697
26835,40707
26847,40748
26851,40791
26847,40833
26835,40874
26835,40874
26815,40912
26787,40945
26754,40972
26727,40987
26717,40992
26712,40994
26703,40997
26695,41003
26688,41010
26683,41018
26679,41027
26677,41036
26677,41046
26679,41055
26683,41064
26688,41072
26695,41079
26703,41084
26712,41088
26717,41089
26727,41095
26754,41110
26787,41137
26815,41170
26829,41197
26835,41207
26847,41248
26851,41291
26847,41333
26835,41374
26835,41374
26815,41412
26787,41445
26754,41472
26727,41487
26717,41492
26712,41494
26703,41497
26695,41503
26688,41510
26683,41518
26679,41527
26677,41536
26677,41546
26679,41555
26683,41564
26688,41572
26695,41579
26703,41584
26712,41588
26717,41589
26727,41595
26754,41610
26787,41637
26815,41670
26829,41697
26835,41707
26847,41748
26851,41791
26847,41833
26835,41874
26835,41874
26815,41912
26787,41945
26754,41972
26727,41987
26717,41992
26712,41994
26703,41997
26695,42003
26688,42010
26683,42018
26679,42027
26677,42036
26677,42046
26679,42055
26683,42064
26688,42072
26695,42079
26703,42084
26712,42088
26717,42089
26727,42095
26754,42110
26787,42137
26815,42170
26829,42197
26835,42207
26847,42248
26851,42291
26847,42333
26835,42374
26835,42374
26815,42412
26787,42445
26754,42472
26727,42487
26717,42492
26712,42494
26703,42497
26695,42503
26688,42510
26683,42518
26679,42527
26677,42536
26677,42546
26679,42555
26683,42564
26688,42572
26695,42579
26703,42584
26712,42588
26717,42589
26727,42595
26754,42610
26787,42637
26815,42670
26829,42697
26835,42707
26847,42748
26851,42791
26847,42833
26835,42874
26835,42874
26815,42912
26787,42945
26754,42972
26727,42987
26717,42992
26712,42994
26703,42997
26695,43003
26688,43010
26683,43018
26679,43027
26677,43036
26677,43046
26679,43055
26683,43064
26688,43072
26695,43079
26703,43084
26712,43088
26717,43089
26727,43095
26754,43110
26787,43137
26815,43170
26829,43197
26835,43207
26847,43248
26851,43291
26847,43333
26835,43374
26835,43374
26815,43412
26787,43445
26754,43472
26727,43487
26717,43492
26712,43494
26703,43497
26695,43503
26688,43510
26683,43518
26679,43527
26677,43536
26677,43546
26679,43555
26683,43564
26688,43572
26695,43579
26703,43584
26712,43588
26717,43589
26727,43595
26754,43610
26787,43637
26815,43670
26829,43697
26835,43707
26847,43748
26851,43791
26847,43833
26835,43874
26835,43874
26815,43912
26787,43945
26754,43972
26727,43987
26717,43992
26712,43994
26703,43997
26695,44003
26688,44010
26683,44018
26679,44027
26677,44036
26677,44046
26679,44055
26683,44064
26688,44072
26695,44079
26703,44084
26712,44088
26717,44089
26725,44094
26754,44110
26787,44137
26815,44170
26827,44194
26835,44207
26847,44248
26851,44291
26847,44333
26835,44374
26835,44374
26815,44412
26787,44445
26754,44472
26727,44487
26717,44492
26676,44505
26644,44508
26505,44508
26473,44505
26432,44492
26421,44487
26394,44472
26361,44445
26334,44412
26314,44374
26314,44374
26301,44333
26297,44291
26301,44248
26314,44207
26321,44194
26334,44170
26361,44137
26394,44110
26424,44094
26432,44089
26437,44088
26446,44084
26454,44079
26461,44072
26466,44064
26470,44055
26472,44046
26472,44036
26470,44027
26466,44018
26461,44010
26454,44003
26446,43997
26437,43994
26432,43992
26421,43987
26394,43972
26361,43945
26334,43912
26314,43874
26314,43874
26301,43833
26297,43791
26301,43748
26314,43707
26320,43697
26334,43670
26361,43637
26394,43610
26421,43595
26432,43589
26437,43588
26446,43584
26454,43579
26461,43572
26466,43564
26470,43555
26472,43546
26472,43536
26470,43527
26466,43518
26461,43510
26454,43503
26446,43497
26437,43494
26432,43492
26421,43487
26394,43472
26361,43445
26334,43412
26314,43374
26314,43374
26301,43333
26297,43291
26301,43248
26314,43207
26320,43197
26334,43170
26361,43137
26394,43110
26421,43095
26432,43089
26437,43088
26446,43084
26454,43079
26461,43072
26466,43064
26470,43055
26472,43046
26472,43036
26470,43027
26466,43018
26461,43010
26454,43003
26446,42997
26437,42994
26432,42992
26421,42987
26394,42972
26361,42945
26334,42912
26314,42874
26314,42874
26301,42833
26297,42791
26301,42748
26314,42707
26320,42697
26334,42670
26361,42637
26394,42610
26421,42595
26432,42589
26437,42588
26446,42584
26454,42579
26461,42572
26466,42564
26470,42555
26472,42546
26472,42536
26470,42527
26466,42518
26461,42510
26454,42503
26446,42497
26437,42494
26432,42492
26421,42487
26394,42472
26361,42445
26334,42412
26314,42374
26314,42374
26301,42333
26297,42291
26301,42248
26314,42207
26320,42197
26334,42170
26361,42137
26394,42110
26421,42095
26432,42089
26437,42088
26446,42084
26454,42079
26461,42072
26466,42064
26470,42055
26472,42046
26472,42036
26470,42027
26466,42018
26461,42010
26454,42003
26446,41997
26437,41994
26432,41992
26421,41987
26394,41972
26361,41945
26334,41912
26314,41874
26314,41874
26301,41833
26297,41791
26301,41748
26314,41707
26320,41697
26334,41670
26361,41637
26394,41610
26421,41595
26432,41589
26437,41588
26446,41584
26454,41579
26461,41572
26466,41564
26470,41555
26472,41546
26472,41536
26470,41527
26466,41518
26461,41510
26454,41503
26446,41497
26437,41494
26432,41492
26421,41487
26394,41472
26361,41445
26334,41412
26314,41374
26314,41374
26301,41333
26297,41291
26301,41248
26314,41207
26320,41197
26334,41170
26361,41137
26394,41110
26421,41095
26432,41089
26437,41088
26446,41084
26454,41079
26461,41072
26466,41064
26470,41055
26472,41046
26472,41036
26470,41027
26466,41018
26461,41010
26454,41003
26446,40997
26437,40994
26432,40992
26421,40987
26394,40972
26361,40945
26334,40912
26314,40874
26314,40874
26301,40833
26297,40791
26301,40748
26314,40707
26320,40697
26334,40670
26361,40637
26394,40610
26421,40595
26432,40589
26437,40588
26446,40584
26454,40579
26461,40572
26466,40564
26470,40555
26472,40546
26472,40536
26470,40527
26466,40518
26461,40510
26454,40503
26446,40497
26437,40494
26432,40492
26421,40487
26394,40472
26361,40445
26334,40412
26314,40374
26314,40374
26301,40333
26297,40291
26301,40248
26314,40207
26320,40197
26334,40170
26361,40137
26394,40110
26421,40095
26432,40089
26437,40088
26446,40084
26454,40079
26461,40072
26466,40064
26470,40055
26472,40046
26472,40036
26470,40027
26466,40018
26461,40010
26454,40003
26446,39997
26437,39994
26432,39992
26421,39987
26394,39972
26361,39945
26334,39912
26314,39874
26314,39874
26301,39833
26297,39791
26301,39748
26314,39707
26320,39697
26334,39670
26361,39637
26394,39610
26421,39595
26432,39589
26437,39588
26446,39584
26454,39579
26461,39572
26466,39564
26470,39555
26472,39546
26472,39536
26470,39527
26466,39518
26461,39510
26454,39503
26446,39497
26437,39494
26432,39492
26421,39487
26394,39472
26361,39445
26334,39412
26314,39374
26314,39374
26301,39333
26297,39291
26301,39248
26314,39207
26320,39197
26334,39170
26361,39137
26394,39110
26421,39095
26432,39089
26437,39088
26446,39084
26454,39079
26461,39072
26466,39064
26470,39055
26472,39046
26472,39036
26470,39027
26466,39018
26461,39010
26454,39003
26446,38997
26437,38994
26432,38992
26421,38987
26394,38972
26361,38945
26334,38912
26314,38874
26314,38874
26301,38833
26297,38791
26301,38748
26314,38707
26321,38693
26334,38670
26361,38637
26394,38610
26421,38595
26432,38589
26437,38588
26446,38584
26454,38579
26461,38572
26466,38564
26470,38555
26472,38546
26472,38536
26470,38527
26466,38518
26461,38510
26454,38503
26446,38497
26437,38494
26432,38492
26421,38487
26394,38472
26361,38445
26334,38412
26314,38374
26314,38374
26301,38333
26297,38291
26301,38248
26314,38207
26329,38179
26334,38170
26361,38137
26394,38110
26421,38095
26432,38089
26473,38077
26505,38074
26644,38074
26676,38077
Z" /> 
<path style="fill:#000000; fill-opacity:1.0; 
stroke:#000000; stroke-width:0; stroke-opacity:1; 
stroke-linecap:round; stroke-linejoin:round;fill-rule:evenodd;"
d="M 17323,44272
16535,44272
16535,43405
17323,43405
17323,44272
Z" /> 
<path style="fill:#000000; fill-opacity:1.0; 
stroke:#000000; stroke-width:0; stroke-opacity:1; 
stroke-linecap:round; stroke-linejoin:round;fill-rule:evenodd;"
d="M 17500,39350
16751,39350
16751,38601
17500,38601
17500,39350
Z" /> 
<path style="fill:#000000; fill-opacity:1.0; 
stroke:#000000; stroke-width:0; stroke-opacity:1; 
stroke-linecap:round; stroke-linejoin:round;fill-rule:evenodd;"
d="M 21679,38433
21700,38437
21729,38449
21755,38467
21778,38489
21795,38515
21807,38544
21813,38575
21813,38607
21807,38638
21795,38667
21778,38693
21755,38716
21729,38733
21700,38745
21679,38749
21669,38752
21637,38752
21627,38749
21606,38745
21577,38733
21551,38716
21529,38693
21511,38667
21499,38638
21493,38607
21493,38575
21499,38544
21511,38515
21529,38489
21551,38467
21577,38449
21606,38437
21627,38433
21637,38431
21669,38431
21679,38433
Z" /> 
<path style="fill:#000000; fill-opacity:1.0; 
stroke:#000000; stroke-width:0; stroke-opacity:1; 
stroke-linecap:round; stroke-linejoin:round;fill-rule:evenodd;"
d="M 17235,37632
17303,37660
17303,37660
17364,37701
17416,37753
17416,37753
17457,37814
17486,37882
17500,37955
17500,38029
17486,38101
17457,38169
17451,38179
17416,38230
17364,38282
17343,38297
17303,38323
17235,38352
17162,38366
17089,38366
17016,38352
16948,38323
16908,38297
16887,38282
16835,38230
16800,38179
16794,38169
16765,38101
16751,38029
16751,37955
16765,37882
16794,37814
16835,37753
16835,37753
16887,37701
16948,37660
16948,37660
17016,37632
17089,37617
17162,37617
17235,37632
Z" /> 
<path style="fill:#000000; fill-opacity:1.0; 
stroke:#000000; stroke-width:0; stroke-opacity:1; 
stroke-linecap:round; stroke-linejoin:round;fill-rule:evenodd;"
d="M 22076,38036
22097,38040
22126,38052
22152,38070
22174,38092
22192,38119
22204,38148
22210,38179
22210,38210
22204,38241
22192,38270
22174,38297
22152,38319
22126,38337
22097,38349
22081,38352
22066,38355
22034,38355
22018,38352
22003,38349
21974,38337
21948,38319
21925,38297
21908,38270
21896,38241
21889,38210
21889,38179
21896,38148
21908,38119
21925,38092
21948,38070
21974,38052
22003,38040
22024,38036
22034,38034
22066,38034
22076,38036
Z" /> 
<path style="fill:#000000; fill-opacity:1.0; 
stroke:#000000; stroke-width:0; stroke-opacity:1; 
stroke-linecap:round; stroke-linejoin:round;fill-rule:evenodd;"
d="M 21282,38036
21303,38040
21332,38052
21359,38070
21381,38092
21398,38119
21411,38148
21417,38179
21417,38210
21411,38241
21398,38270
21381,38297
21359,38319
21332,38337
21303,38349
21288,38352
21272,38355
21241,38355
21225,38352
21210,38349
21180,38337
21154,38319
21132,38297
21114,38270
21102,38241
21096,38210
21096,38179
21102,38148
21114,38119
21132,38092
21154,38070
21180,38052
21210,38040
21230,38036
21241,38034
21272,38034
21282,38036
Z" /> 
<path style="fill:#000000; fill-opacity:1.0; 
stroke:#000000; stroke-width:0; stroke-opacity:1; 
stroke-linecap:round; stroke-linejoin:round;fill-rule:evenodd;"
d="M 22473,37639
22493,37644
22522,37656
22549,37673
22571,37696
22589,37722
22601,37751
22607,37782
22607,37814
22601,37845
22589,37874
22571,37900
22549,37922
22522,37940
22493,37952
22473,37956
22462,37958
22431,37958
22420,37956
22400,37952
22371,37940
22344,37922
22322,37900
22304,37874
22292,37845
22286,37814
22286,37782
22292,37751
22304,37722
22322,37696
22344,37673
22371,37656
22400,37644
22420,37639
22431,37637
22462,37637
22473,37639
Z" /> 
<path style="fill:#000000; fill-opacity:1.0; 
stroke:#000000; stroke-width:0; stroke-opacity:1; 
stroke-linecap:round; stroke-linejoin:round;fill-rule:evenodd;"
d="M 21679,37639
21700,37644
21729,37656
21755,37673
21778,37696
21795,37722
21807,37751
21813,37782
21813,37814
21807,37845
21795,37874
21778,37900
21755,37922
21729,37940
21700,37952
21679,37956
21669,37958
21637,37958
21627,37956
21606,37952
21577,37940
21551,37922
21529,37900
21511,37874
21499,37845
21493,37814
21493,37782
21499,37751
21511,37722
21529,37696
21551,37673
21577,37656
21606,37644
21627,37639
21637,37637
21669,37637
21679,37639
Z" /> 
<path style="fill:#000000; fill-opacity:1.0; 
stroke:#000000; stroke-width:0; stroke-opacity:1; 
stroke-linecap:round; stroke-linejoin:round;fill-rule:evenodd;"
d="M 20886,37639
20906,37644
20936,37656
20962,37673
20984,37696
21002,37722
21014,37751
21020,37782
21020,37814
21014,37845
21002,37874
20984,37900
20962,37922
20936,37940
20906,37952
20886,37956
20875,37958
20844,37958
20834,37956
20813,37952
20784,37940
20757,37922
20735,37900
20718,37874
20705,37845
20699,37814
20699,37782
20705,37751
20718,37722
20735,37696
20757,37673
20784,37656
20813,37644
20834,37639
20844,37637
20875,37637
20886,37639
Z" /> 
<path style="fill:#000000; fill-opacity:1.0; 
stroke:#000000; stroke-width:0; stroke-opacity:1; 
stroke-linecap:round; stroke-linejoin:round;fill-rule:evenodd;"
d="M 22076,37243
22097,37247
22126,37259
22152,37277
22174,37299
22192,37325
22204,37354
22210,37385
22210,37417
22204,37448
22192,37477
22174,37503
22152,37526
22126,37543
22097,37555
22076,37559
22066,37561
22034,37561
22024,37559
22003,37555
21974,37543
21948,37526
21925,37503
21908,37477
21896,37448
21889,37417
21889,37385
21896,37354
21908,37325
21925,37299
21948,37277
21974,37259
22003,37247
22024,37243
22034,37241
22066,37241
22076,37243
Z" /> 
<path style="fill:#000000; fill-opacity:1.0; 
stroke:#000000; stroke-width:0; stroke-opacity:1; 
stroke-linecap:round; stroke-linejoin:round;fill-rule:evenodd;"
d="M 22869,37243
22890,37247
22919,37259
22945,37277
22968,37299
22985,37325
22997,37354
23003,37385
23003,37417
22997,37448
22985,37477
22968,37503
22945,37526
22919,37543
22890,37555
22869,37559
22859,37561
22827,37561
22817,37559
22796,37555
22767,37543
22741,37526
22719,37503
22701,37477
22689,37448
22683,37417
22683,37385
22689,37354
22701,37325
22719,37299
22741,37277
22767,37259
22796,37247
22817,37243
22827,37241
22859,37241
22869,37243
Z" /> 
<path style="fill:#000000; fill-opacity:1.0; 
stroke:#000000; stroke-width:0; stroke-opacity:1; 
stroke-linecap:round; stroke-linejoin:round;fill-rule:evenodd;"
d="M 21282,37243
21303,37247
21332,37259
21359,37277
21381,37299
21398,37325
21411,37354
21417,37385
21417,37417
21411,37448
21398,37477
21381,37503
21359,37526
21332,37543
21303,37555
21282,37559
21272,37561
21241,37561
21230,37559
21210,37555
21180,37543
21154,37526
21132,37503
21114,37477
21102,37448
21096,37417
21096,37385
21102,37354
21114,37325
21132,37299
21154,37277
21180,37259
21210,37247
21230,37243
21241,37241
21272,37241
21282,37243
Z" /> 
<path style="fill:#000000; fill-opacity:1.0; 
stroke:#000000; stroke-width:0; stroke-opacity:1; 
stroke-linecap:round; stroke-linejoin:round;fill-rule:evenodd;"
d="M 20489,37243
20510,37247
20539,37259
20565,37277
20587,37299
20605,37325
20617,37354
20623,37385
20623,37417
20617,37448
20605,37477
20587,37503
20565,37526
20539,37543
20510,37555
20489,37559
20479,37561
20447,37561
20437,37559
20416,37555
20387,37543
20361,37526
20338,37503
20321,37477
20309,37448
20303,37417
20303,37385
20309,37354
20321,37325
20338,37299
20361,37277
20387,37259
20416,37247
20437,37243
20447,37241
20479,37241
20489,37243
Z" /> 
<path style="fill:#000000; fill-opacity:1.0; 
stroke:#000000; stroke-width:0; stroke-opacity:1; 
stroke-linecap:round; stroke-linejoin:round;fill-rule:evenodd;"
d="M 17235,36647
17303,36676
17333,36696
17364,36717
17416,36769
17416,36769
17457,36830
17486,36898
17500,36970
17500,37044
17486,37117
17457,37185
17451,37194
17416,37246
17364,37298
17333,37319
17303,37339
17235,37367
17162,37382
17089,37382
17016,37367
16948,37339
16918,37319
16887,37298
16835,37246
16800,37194
16794,37185
16765,37117
16751,37044
16751,36970
16765,36898
16794,36830
16835,36769
16835,36769
16887,36717
16918,36696
16948,36676
17016,36647
17089,36633
17162,36633
17235,36647
Z" /> 
<path style="fill:#000000; fill-opacity:1.0; 
stroke:#000000; stroke-width:0; stroke-opacity:1; 
stroke-linecap:round; stroke-linejoin:round;fill-rule:evenodd;"
d="M 27295,36841
27308,36845
27320,36852
27331,36861
27340,36872
27347,36884
27351,36897
27352,36914
27352,37180
27351,37196
27347,37210
27340,37222
27331,37233
27320,37242
27308,37248
27295,37252
27278,37254
27042,37254
27025,37252
27012,37248
27000,37242
26989,37233
26980,37222
26973,37210
26969,37196
26968,37180
26968,36914
26969,36897
26973,36884
26980,36872
26989,36861
27000,36852
27012,36845
27025,36841
27042,36840
27278,36840
27295,36841
Z" /> 
<path style="fill:#000000; fill-opacity:1.0; 
stroke:#000000; stroke-width:0; stroke-opacity:1; 
stroke-linecap:round; stroke-linejoin:round;fill-rule:evenodd;"
d="M 26675,36841
26688,36845
26700,36852
26711,36861
26720,36872
26727,36884
26731,36897
26732,36914
26732,37180
26731,37196
26727,37210
26720,37222
26711,37233
26700,37242
26688,37248
26675,37252
26658,37254
26422,37254
26405,37252
26392,37248
26379,37242
26369,37233
26360,37222
26353,37210
26349,37196
26348,37180
26348,36914
26349,36897
26353,36884
26360,36872
26369,36861
26379,36852
26392,36845
26405,36841
26422,36840
26658,36840
26675,36841
Z" /> 
<path style="fill:#000000; fill-opacity:1.0; 
stroke:#000000; stroke-width:0; stroke-opacity:1; 
stroke-linecap:round; stroke-linejoin:round;fill-rule:evenodd;"
d="M 26118,36902
26126,36904
26134,36908
26141,36914
26146,36920
26150,36928
26152,36936
26153,36947
26153,37147
26152,37158
26150,37166
26146,37173
26141,37180
26134,37185
26126,37189
26118,37192
26108,37193
25927,37193
25916,37192
25908,37189
25900,37185
25894,37180
25889,37173
25885,37166
25882,37158
25881,37147
25881,36947
25882,36936
25885,36928
25889,36920
25894,36914
25900,36908
25908,36904
25916,36902
25927,36901
26108,36901
26118,36902
Z" /> 
<path style="fill:#000000; fill-opacity:1.0; 
stroke:#000000; stroke-width:0; stroke-opacity:1; 
stroke-linecap:round; stroke-linejoin:round;fill-rule:evenodd;"
d="M 25736,36902
25745,36904
25752,36908
25759,36914
25764,36920
25768,36928
25770,36936
25772,36947
25772,37147
25770,37158
25768,37166
25764,37173
25759,37180
25752,37185
25745,37189
25736,37192
25726,37193
25545,37193
25534,37192
25526,37189
25519,37185
25512,37180
25507,37173
25503,37166
25500,37158
25499,37147
25499,36947
25500,36936
25503,36928
25507,36920
25512,36914
25519,36908
25526,36904
25534,36902
25545,36901
25726,36901
25736,36902
Z" /> 
<path style="fill:#000000; fill-opacity:1.0; 
stroke:#000000; stroke-width:0; stroke-opacity:1; 
stroke-linecap:round; stroke-linejoin:round;fill-rule:evenodd;"
d="M 22469,36845
22493,36850
22522,36862
22549,36880
22571,36902
22589,36928
22601,36958
22607,36989
22607,37020
22601,37051
22589,37080
22571,37107
22549,37129
22522,37146
22493,37159
22473,37163
22462,37165
22431,37165
22420,37163
22400,37159
22371,37146
22344,37129
22322,37107
22304,37080
22292,37051
22286,37020
22286,36989
22292,36958
22304,36928
22322,36902
22344,36880
22371,36862
22400,36850
22424,36845
22431,36844
22462,36844
22469,36845
Z" /> 
<path style="fill:#000000; fill-opacity:1.0; 
stroke:#000000; stroke-width:0; stroke-opacity:1; 
stroke-linecap:round; stroke-linejoin:round;fill-rule:evenodd;"
d="M 21675,36845
21700,36850
21729,36862
21755,36880
21778,36902
21795,36928
21807,36958
21813,36989
21813,37020
21807,37051
21795,37080
21778,37107
21755,37129
21729,37146
21700,37159
21680,37163
21669,37165
21637,37165
21626,37163
21606,37159
21577,37146
21551,37129
21529,37107
21511,37080
21499,37051
21493,37020
21493,36989
21499,36958
21511,36928
21529,36902
21551,36880
21577,36862
21606,36850
21631,36845
21637,36844
21669,36844
21675,36845
Z" /> 
<path style="fill:#000000; fill-opacity:1.0; 
stroke:#000000; stroke-width:0; stroke-opacity:1; 
stroke-linecap:round; stroke-linejoin:round;fill-rule:evenodd;"
d="M 20882,36845
20906,36850
20936,36862
20962,36880
20984,36902
21002,36928
21014,36958
21020,36989
21020,37020
21014,37051
21002,37080
20984,37107
20962,37129
20936,37146
20906,37159
20886,37163
20875,37165
20844,37165
20833,37163
20813,37159
20784,37146
20757,37129
20735,37107
20718,37080
20705,37051
20699,37020
20699,36989
20705,36958
20718,36928
20735,36902
20757,36880
20784,36862
20813,36850
20837,36845
20844,36844
20875,36844
20882,36845
Z" /> 
<path style="fill:#000000; fill-opacity:1.0; 
stroke:#000000; stroke-width:0; stroke-opacity:1; 
stroke-linecap:round; stroke-linejoin:round;fill-rule:evenodd;"
d="M 22074,36449
22097,36453
22126,36466
22152,36483
22174,36505
22192,36532
22204,36561
22210,36592
22210,36623
22204,36654
22192,36684
22174,36710
22152,36732
22126,36750
22097,36762
22076,36766
22066,36768
22034,36768
22024,36766
22003,36762
21974,36750
21948,36732
21925,36710
21908,36684
21896,36654
21889,36623
21889,36592
21896,36561
21908,36532
21925,36505
21948,36483
21974,36466
22003,36453
22026,36449
22034,36447
22066,36447
22074,36449
Z" /> 
<path style="fill:#000000; fill-opacity:1.0; 
stroke:#000000; stroke-width:0; stroke-opacity:1; 
stroke-linecap:round; stroke-linejoin:round;fill-rule:evenodd;"
d="M 21281,36449
21303,36453
21332,36466
21359,36483
21381,36505
21398,36532
21411,36561
21417,36592
21417,36623
21411,36654
21398,36684
21381,36710
21359,36732
21332,36750
21303,36762
21282,36766
21272,36768
21241,36768
21230,36766
21210,36762
21180,36750
21154,36732
21132,36710
21114,36684
21102,36654
21096,36623
21096,36592
21102,36561
21114,36532
21132,36505
21154,36483
21180,36466
21210,36453
21232,36449
21241,36447
21272,36447
21281,36449
Z" /> 
<path style="fill:#000000; fill-opacity:1.0; 
stroke:#000000; stroke-width:0; stroke-opacity:1; 
stroke-linecap:round; stroke-linejoin:round;fill-rule:evenodd;"
d="M 26675,36133
26688,36137
26700,36143
26711,36152
26720,36163
26727,36175
26731,36189
26732,36205
26732,36471
26731,36488
26727,36501
26720,36513
26711,36524
26700,36533
26688,36540
26675,36544
26658,36545
26422,36545
26405,36544
26392,36540
26379,36533
26369,36524
26360,36513
26353,36501
26349,36488
26348,36471
26348,36205
26349,36189
26353,36175
26360,36163
26369,36152
26379,36143
26392,36137
26405,36133
26422,36131
26658,36131
26675,36133
Z" /> 
<path style="fill:#000000; fill-opacity:1.0; 
stroke:#000000; stroke-width:0; stroke-opacity:1; 
stroke-linecap:round; stroke-linejoin:round;fill-rule:evenodd;"
d="M 27295,36133
27308,36137
27320,36143
27331,36152
27340,36163
27347,36175
27351,36189
27352,36205
27352,36471
27351,36488
27347,36501
27340,36513
27331,36524
27320,36533
27308,36540
27295,36544
27278,36545
27042,36545
27025,36544
27012,36540
27000,36533
26989,36524
26980,36513
26973,36501
26969,36488
26968,36471
26968,36205
26969,36189
26973,36175
26980,36163
26989,36152
27000,36143
27012,36137
27025,36133
27042,36131
27278,36131
27295,36133
Z" /> 
<path style="fill:#000000; fill-opacity:1.0; 
stroke:#000000; stroke-width:0; stroke-opacity:1; 
stroke-linecap:round; stroke-linejoin:round;fill-rule:evenodd;"
d="M 26118,36193
26126,36196
26134,36200
26141,36205
26146,36211
26150,36219
26152,36227
26153,36238
26153,36438
26152,36449
26150,36457
26146,36465
26141,36471
26134,36477
26126,36481
26118,36483
26108,36484
25927,36484
25916,36483
25908,36481
25900,36477
25894,36471
25889,36465
25885,36457
25882,36449
25881,36438
25881,36238
25882,36227
25885,36219
25889,36211
25894,36205
25900,36200
25908,36196
25916,36193
25927,36192
26108,36192
26118,36193
Z" /> 
<path style="fill:#000000; fill-opacity:1.0; 
stroke:#000000; stroke-width:0; stroke-opacity:1; 
stroke-linecap:round; stroke-linejoin:round;fill-rule:evenodd;"
d="M 25736,36193
25745,36196
25752,36200
25759,36205
25764,36211
25768,36219
25770,36227
25772,36238
25772,36438
25770,36449
25768,36457
25764,36465
25759,36471
25752,36477
25745,36481
25736,36483
25726,36484
25545,36484
25534,36483
25526,36481
25519,36477
25512,36471
25507,36465
25503,36457
25500,36449
25499,36438
25499,36238
25500,36227
25503,36219
25507,36211
25512,36205
25519,36200
25526,36196
25534,36193
25545,36192
25726,36192
25736,36193
Z" /> 
<path style="fill:#000000; fill-opacity:1.0; 
stroke:#000000; stroke-width:0; stroke-opacity:1; 
stroke-linecap:round; stroke-linejoin:round;fill-rule:evenodd;"
d="M 17235,35663
17303,35691
17303,35691
17364,35732
17416,35784
17416,35784
17457,35846
17486,35914
17500,35986
17500,36060
17486,36132
17457,36200
17450,36212
17416,36262
17364,36314
17333,36335
17303,36355
17235,36383
17162,36398
17089,36398
17016,36383
16948,36355
16918,36335
16887,36314
16835,36262
16801,36212
16794,36200
16765,36132
16751,36060
16751,35986
16765,35914
16794,35846
16835,35784
16835,35784
16887,35732
16948,35691
16948,35691
17016,35663
17089,35649
17162,35649
17235,35663
Z" /> 
<path style="fill:#000000; fill-opacity:1.0; 
stroke:#000000; stroke-width:0; stroke-opacity:1; 
stroke-linecap:round; stroke-linejoin:round;fill-rule:evenodd;"
d="M 21679,36053
21700,36057
21729,36069
21755,36086
21778,36109
21795,36135
21807,36164
21807,36164
21813,36193
21813,36195
21813,36227
21807,36258
21795,36287
21778,36313
21755,36336
21729,36353
21700,36365
21679,36369
21669,36371
21637,36371
21627,36369
21606,36365
21577,36353
21551,36336
21529,36313
21511,36287
21499,36258
21493,36227
21493,36195
21493,36193
21499,36164
21499,36164
21511,36135
21529,36109
21551,36086
21577,36069
21606,36057
21627,36053
21637,36051
21669,36051
21679,36053
Z" /> 
<path style="fill:#000000; fill-opacity:1.0; 
stroke:#000000; stroke-width:0; stroke-opacity:1; 
stroke-linecap:round; stroke-linejoin:round;fill-rule:evenodd;"
d="M 17235,34679
17303,34707
17303,34707
17364,34748
17416,34800
17416,34800
17457,34862
17486,34930
17500,35002
17500,35076
17486,35148
17457,35216
17457,35216
17416,35278
17364,35330
17333,35350
17303,35371
17235,35399
17162,35413
17089,35413
17016,35399
16948,35371
16918,35350
16887,35330
16835,35278
16794,35216
16794,35216
16765,35148
16751,35076
16751,35002
16765,34930
16794,34862
16835,34800
16835,34800
16887,34748
16948,34707
16948,34707
17016,34679
17089,34664
17162,34664
17235,34679
Z" /> 
<path style="fill:#000000; fill-opacity:1.0; 
stroke:#000000; stroke-width:0; stroke-opacity:1; 
stroke-linecap:round; stroke-linejoin:round;fill-rule:evenodd;"
d="M 26772,34547
25983,34547
25983,33680
26772,33680
26772,34547
Z" /> 
<path style="fill:#000000; fill-opacity:1.0; 
stroke:#000000; stroke-width:0; stroke-opacity:1; 
stroke-linecap:round; stroke-linejoin:round;fill-rule:evenodd;"
d="M 25280,33408
25323,33421
25323,33421
25337,33428
25362,33442
25397,33470
25425,33505
25439,33530
25446,33544
25446,33544
25459,33587
25464,33631
25459,33676
25446,33719
25446,33719
25439,33733
25425,33758
25397,33793
25362,33821
25337,33834
25323,33842
25323,33842
25280,33855
25247,33858
25146,33858
25113,33855
25070,33842
25070,33842
25056,33834
25030,33821
24996,33793
24968,33758
24954,33733
24946,33719
24946,33719
24933,33676
24929,33631
24933,33587
24946,33544
24946,33544
24954,33530
24968,33505
24996,33470
25030,33442
25056,33428
25070,33421
25070,33421
25113,33408
25146,33405
25247,33405
25280,33408
Z" /> 
<path style="fill:#000000; fill-opacity:1.0; 
stroke:#000000; stroke-width:0; stroke-opacity:1; 
stroke-linecap:round; stroke-linejoin:round;fill-rule:evenodd;"
d="M 26772,33504
25983,33504
25983,32755
26772,32755
26772,33504
Z" /> 
<path style="fill:#000000; fill-opacity:1.0; 
stroke:#000000; stroke-width:0; stroke-opacity:1; 
stroke-linecap:round; stroke-linejoin:round;fill-rule:evenodd;"
d="M 25610,33287
25038,33287
25038,32066
25610,32066
25610,33287
Z" /> 
<path style="fill:#000000; fill-opacity:1.0; 
stroke:#000000; stroke-width:0; stroke-opacity:1; 
stroke-linecap:round; stroke-linejoin:round;fill-rule:evenodd;"
d="M 24701,32886
24709,32888
24717,32892
24723,32898
24729,32904
24733,32912
24735,32920
24736,32931
24736,33131
24735,33142
24733,33150
24729,33158
24723,33164
24717,33170
24709,33174
24701,33176
24690,33177
24510,33177
24499,33176
24491,33174
24483,33170
24477,33164
24471,33158
24467,33150
24465,33142
24464,33131
24464,32931
24465,32920
24467,32912
24471,32904
24477,32898
24483,32892
24491,32888
24499,32886
24510,32885
24690,32885
24701,32886
Z" /> 
<path style="fill:#000000; fill-opacity:1.0; 
stroke:#000000; stroke-width:0; stroke-opacity:1; 
stroke-linecap:round; stroke-linejoin:round;fill-rule:evenodd;"
d="M 24319,32886
24327,32888
24335,32892
24341,32898
24347,32904
24351,32912
24353,32920
24354,32931
24354,33131
24353,33142
24351,33150
24347,33158
24341,33164
24335,33170
24327,33174
24319,33176
24308,33177
24128,33177
24117,33176
24109,33174
24101,33170
24095,33164
24089,33158
24085,33150
24083,33142
24082,33131
24082,32931
24083,32920
24085,32912
24089,32904
24095,32898
24101,32892
24109,32888
24117,32886
24128,32885
24308,32885
24319,32886
Z" /> 
<path style="fill:#000000; fill-opacity:1.0; 
stroke:#000000; stroke-width:0; stroke-opacity:1; 
stroke-linecap:round; stroke-linejoin:round;fill-rule:evenodd;"
d="M 24701,32414
24709,32416
24717,32420
24723,32425
24729,32432
24733,32439
24735,32448
24736,32458
24736,32659
24735,32670
24733,32678
24729,32685
24723,32692
24717,32697
24709,32701
24701,32704
24690,32705
24510,32705
24499,32704
24491,32701
24483,32697
24477,32692
24471,32685
24467,32678
24465,32670
24464,32659
24464,32458
24465,32448
24467,32439
24471,32432
24477,32425
24483,32420
24491,32416
24499,32414
24510,32412
24690,32412
24701,32414
Z" /> 
<path style="fill:#000000; fill-opacity:1.0; 
stroke:#000000; stroke-width:0; stroke-opacity:1; 
stroke-linecap:round; stroke-linejoin:round;fill-rule:evenodd;"
d="M 24319,32414
24327,32416
24335,32420
24341,32425
24347,32432
24351,32439
24353,32448
24354,32458
24354,32659
24353,32670
24351,32678
24347,32685
24341,32692
24335,32697
24327,32701
24319,32704
24308,32705
24128,32705
24117,32704
24109,32701
24101,32697
24095,32692
24089,32685
24085,32678
24083,32670
24082,32659
24082,32458
24083,32448
24085,32439
24089,32432
24095,32425
24101,32420
24109,32416
24117,32414
24128,32412
24308,32412
24319,32414
Z" /> 
<path style="fill:#000000; fill-opacity:1.0; 
stroke:#000000; stroke-width:0; stroke-opacity:1; 
stroke-linecap:round; stroke-linejoin:round;fill-rule:evenodd;"
d="M 26772,32598
25983,32598
25983,31850
26772,31850
26772,32598
Z" /> 
<path style="fill:#000000; fill-opacity:1.0; 
stroke:#000000; stroke-width:0; stroke-opacity:1; 
stroke-linecap:round; stroke-linejoin:round;fill-rule:evenodd;"
d="M 19614,32138
19623,32140
19630,32144
19637,32150
19642,32156
19646,32164
19648,32172
19650,32183
19650,32383
19648,32394
19646,32402
19642,32410
19637,32416
19630,32421
19623,32425
19614,32428
19604,32429
19423,32429
19412,32428
19404,32425
19397,32421
19390,32416
19385,32410
19381,32402
19378,32394
19377,32383
19377,32183
19378,32172
19381,32164
19385,32156
19390,32150
19397,32144
19404,32140
19412,32138
19423,32137
19604,32137
19614,32138
Z" /> 
<path style="fill:#000000; fill-opacity:1.0; 
stroke:#000000; stroke-width:0; stroke-opacity:1; 
stroke-linecap:round; stroke-linejoin:round;fill-rule:evenodd;"
d="M 19996,32138
20004,32140
20012,32144
20018,32150
20024,32156
20028,32164
20030,32172
20031,32183
20031,32383
20030,32394
20028,32402
20024,32410
20018,32416
20012,32421
20004,32425
19996,32428
19985,32429
19805,32429
19794,32428
19786,32425
19778,32421
19772,32416
19766,32410
19762,32402
19760,32394
19759,32383
19759,32183
19760,32172
19762,32164
19766,32156
19772,32150
19778,32144
19786,32140
19794,32138
19805,32137
19985,32137
19996,32138
Z" /> 
<path style="fill:#000000; fill-opacity:1.0; 
stroke:#000000; stroke-width:0; stroke-opacity:1; 
stroke-linecap:round; stroke-linejoin:round;fill-rule:evenodd;"
d="M 25280,31498
25323,31511
25323,31511
25331,31516
25362,31532
25397,31561
25425,31595
25439,31621
25446,31635
25446,31635
25459,31677
25464,31722
25459,31766
25446,31809
25446,31809
25439,31823
25425,31849
25397,31883
25362,31911
25337,31925
25323,31932
25323,31932
25280,31945
25247,31949
25146,31949
25113,31945
25070,31932
25070,31932
25056,31925
25030,31911
24996,31883
24968,31849
24954,31823
24946,31809
24946,31809
24933,31766
24929,31722
24933,31677
24946,31635
24946,31635
24954,31621
24968,31595
24996,31561
25030,31532
25062,31516
25070,31511
25070,31511
25113,31498
25146,31495
25247,31495
25280,31498
Z" /> 
<path style="fill:#000000; fill-opacity:1.0; 
stroke:#000000; stroke-width:0; stroke-opacity:1; 
stroke-linecap:round; stroke-linejoin:round;fill-rule:evenodd;"
d="M 21748,31646
21756,31648
21764,31652
21770,31658
21776,31664
21780,31672
21782,31680
21783,31691
21783,31891
21782,31902
21780,31910
21776,31917
21770,31924
21764,31929
21756,31933
21748,31936
21737,31937
21557,31937
21546,31936
21538,31933
21530,31929
21524,31924
21518,31917
21514,31910
21512,31902
21511,31891
21511,31691
21512,31680
21514,31672
21518,31664
21524,31658
21530,31652
21538,31648
21546,31646
21557,31645
21737,31645
21748,31646
Z" /> 
<path style="fill:#000000; fill-opacity:1.0; 
stroke:#000000; stroke-width:0; stroke-opacity:1; 
stroke-linecap:round; stroke-linejoin:round;fill-rule:evenodd;"
d="M 21366,31646
21375,31648
21382,31652
21389,31658
21394,31664
21398,31672
21400,31680
21401,31691
21401,31891
21400,31902
21398,31910
21394,31917
21389,31924
21382,31929
21375,31933
21366,31936
21356,31937
21175,31937
21164,31936
21156,31933
21148,31929
21142,31924
21137,31917
21133,31910
21130,31902
21129,31891
21129,31691
21130,31680
21133,31672
21137,31664
21142,31658
21148,31652
21156,31648
21164,31646
21175,31645
21356,31645
21366,31646
Z" /> 
<path style="fill:#000000; fill-opacity:1.0; 
stroke:#000000; stroke-width:0; stroke-opacity:1; 
stroke-linecap:round; stroke-linejoin:round;fill-rule:evenodd;"
d="M 19616,31791
18966,31791
18966,30806
19616,30806
19616,31791
Z" /> 
<path style="fill:#000000; fill-opacity:1.0; 
stroke:#000000; stroke-width:0; stroke-opacity:1; 
stroke-linecap:round; stroke-linejoin:round;fill-rule:evenodd;"
d="M 20049,31772
19753,31772
19753,30826
20049,30826
20049,31772
Z" /> 
<path style="fill:#000000; fill-opacity:1.0; 
stroke:#000000; stroke-width:0; stroke-opacity:1; 
stroke-linecap:round; stroke-linejoin:round;fill-rule:evenodd;"
d="M 18829,31772
18533,31772
18533,30826
18829,30826
18829,31772
Z" /> 
<path style="fill:#000000; fill-opacity:1.0; 
stroke:#000000; stroke-width:0; stroke-opacity:1; 
stroke-linecap:round; stroke-linejoin:round;fill-rule:evenodd;"
d="M 26772,31673
25983,31673
25983,30806
26772,30806
26772,31673
Z" /> 
<path style="fill:#000000; fill-opacity:1.0; 
stroke:#000000; stroke-width:0; stroke-opacity:1; 
stroke-linecap:round; stroke-linejoin:round;fill-rule:evenodd;"
d="M 18260,31355
18268,31357
18276,31361
18282,31366
18288,31373
18292,31380
18294,31389
18295,31399
18295,31580
18294,31591
18292,31599
18288,31606
18282,31613
18276,31618
18268,31622
18260,31625
18249,31626
18049,31626
18038,31625
18030,31622
18023,31618
18016,31613
18011,31606
18007,31599
18004,31591
18003,31580
18003,31399
18004,31389
18007,31380
18011,31373
18016,31366
18023,31361
18030,31357
18038,31355
18049,31353
18249,31353
18260,31355
Z" /> 
<path style="fill:#000000; fill-opacity:1.0; 
stroke:#000000; stroke-width:0; stroke-opacity:1; 
stroke-linecap:round; stroke-linejoin:round;fill-rule:evenodd;"
d="M 21748,31154
21756,31156
21764,31160
21770,31166
21776,31172
21780,31180
21782,31188
21783,31199
21783,31399
21782,31410
21780,31418
21776,31425
21770,31432
21764,31437
21756,31441
21748,31444
21737,31445
21557,31445
21546,31444
21538,31441
21530,31437
21524,31432
21518,31425
21514,31418
21512,31410
21511,31399
21511,31199
21512,31188
21514,31180
21518,31172
21524,31166
21530,31160
21538,31156
21546,31154
21557,31153
21737,31153
21748,31154
Z" /> 
<path style="fill:#000000; fill-opacity:1.0; 
stroke:#000000; stroke-width:0; stroke-opacity:1; 
stroke-linecap:round; stroke-linejoin:round;fill-rule:evenodd;"
d="M 21366,31154
21375,31156
21382,31160
21389,31166
21394,31172
21398,31180
21400,31188
21401,31199
21401,31399
21400,31410
21398,31418
21394,31425
21389,31432
21382,31437
21375,31441
21366,31444
21356,31445
21175,31445
21164,31444
21156,31441
21148,31437
21142,31432
21137,31425
21133,31418
21130,31410
21129,31399
21129,31199
21130,31188
21133,31180
21137,31172
21142,31166
21148,31160
21156,31156
21164,31154
21175,31153
21356,31153
21366,31154
Z" /> 
<path style="fill:#000000; fill-opacity:1.0; 
stroke:#000000; stroke-width:0; stroke-opacity:1; 
stroke-linecap:round; stroke-linejoin:round;fill-rule:evenodd;"
d="M 18260,30973
18268,30975
18276,30979
18282,30984
18288,30991
18292,30998
18294,31007
18295,31017
18295,31198
18294,31209
18292,31217
18288,31225
18282,31231
18276,31236
18268,31240
18260,31243
18249,31244
18049,31244
18038,31243
18030,31240
18023,31236
18016,31231
18011,31225
18007,31217
18004,31209
18003,31198
18003,31017
18004,31007
18007,30998
18011,30991
18016,30984
18023,30979
18030,30975
18038,30973
18049,30972
18249,30972
18260,30973
Z" /> 
<path style="fill:#000000; fill-opacity:1.0; 
stroke:#000000; stroke-width:0; stroke-opacity:1; 
stroke-linecap:round; stroke-linejoin:round;fill-rule:evenodd;"
d="M 21748,30642
21756,30644
21764,30648
21770,30654
21776,30660
21780,30668
21782,30676
21783,30687
21783,30887
21782,30898
21780,30906
21776,30913
21770,30920
21764,30925
21756,30929
21748,30932
21737,30933
21557,30933
21546,30932
21538,30929
21530,30925
21524,30920
21518,30913
21514,30906
21512,30898
21511,30887
21511,30687
21512,30676
21514,30668
21518,30660
21524,30654
21530,30648
21538,30644
21546,30642
21557,30641
21737,30641
21748,30642
Z" /> 
<path style="fill:#000000; fill-opacity:1.0; 
stroke:#000000; stroke-width:0; stroke-opacity:1; 
stroke-linecap:round; stroke-linejoin:round;fill-rule:evenodd;"
d="M 21366,30642
21375,30644
21382,30648
21389,30654
21394,30660
21398,30668
21400,30676
21401,30687
21401,30887
21400,30898
21398,30906
21394,30913
21389,30920
21382,30925
21375,30929
21366,30932
21356,30933
21175,30933
21164,30932
21156,30929
21148,30925
21142,30920
21137,30913
21133,30906
21130,30898
21129,30887
21129,30687
21130,30676
21133,30668
21137,30660
21142,30654
21148,30648
21156,30644
21164,30642
21175,30641
21356,30641
21366,30642
Z" /> 
<path style="fill:#000000; fill-opacity:1.0; 
stroke:#000000; stroke-width:0; stroke-opacity:1; 
stroke-linecap:round; stroke-linejoin:round;fill-rule:evenodd;"
d="M 17472,30227
17485,30231
17497,30238
17508,30247
17517,30257
17524,30270
17528,30283
17529,30299
17529,30566
17528,30582
17524,30595
17517,30608
17508,30619
17497,30627
17485,30634
17472,30638
17455,30640
17219,30640
17202,30638
17189,30634
17177,30627
17166,30619
17157,30608
17150,30595
17146,30582
17145,30566
17145,30299
17146,30283
17150,30270
17157,30257
17166,30247
17177,30238
17189,30231
17202,30227
17219,30225
17455,30225
17472,30227
Z" /> 
<path style="fill:#000000; fill-opacity:1.0; 
stroke:#000000; stroke-width:0; stroke-opacity:1; 
stroke-linecap:round; stroke-linejoin:round;fill-rule:evenodd;"
d="M 16852,30227
16865,30231
16877,30238
16888,30247
16897,30257
16904,30270
16908,30283
16909,30299
16909,30566
16908,30582
16904,30595
16897,30608
16888,30619
16877,30627
16865,30634
16852,30638
16835,30640
16599,30640
16582,30638
16569,30634
16557,30627
16546,30619
16537,30608
16530,30595
16526,30582
16525,30566
16525,30299
16526,30283
16530,30270
16537,30257
16546,30247
16557,30238
16569,30231
16582,30227
16599,30225
16835,30225
16852,30227
Z" /> 
<path style="fill:#000000; fill-opacity:1.0; 
stroke:#000000; stroke-width:0; stroke-opacity:1; 
stroke-linecap:round; stroke-linejoin:round;fill-rule:evenodd;"
d="M 17549,30008
17253,30008
17253,29487
17549,29487
17549,30008
Z" /> 
<path style="fill:#000000; fill-opacity:1.0; 
stroke:#000000; stroke-width:0; stroke-opacity:1; 
stroke-linecap:round; stroke-linejoin:round;fill-rule:evenodd;"
d="M 16801,30008
16505,30008
16505,29487
16801,29487
16801,30008
Z" /> 
<path style="fill:#000000; fill-opacity:1.0; 
stroke:#000000; stroke-width:0; stroke-opacity:1; 
stroke-linecap:round; stroke-linejoin:round;fill-rule:evenodd;"
d="M 20246,28813
20313,28834
20313,28834
20330,28843
20375,28867
20389,28878
20429,28911
20461,28951
20473,28965
20506,29026
20526,29093
20531,29145
20531,29279
20526,29331
20506,29398
20473,29459
20461,29473
20429,29513
20375,29558
20313,29591
20313,29591
20246,29611
20177,29618
20107,29611
20040,29591
19979,29558
19961,29543
19925,29513
19880,29459
19847,29398
19847,29398
19827,29331
19822,29279
19822,29145
19827,29093
19847,29026
19880,28965
19925,28911
19979,28867
20023,28843
20040,28834
20040,28834
20107,28813
20177,28806
20246,28813
Z" /> 
<path style="fill:#000000; fill-opacity:1.0; 
stroke:#000000; stroke-width:0; stroke-opacity:1; 
stroke-linecap:round; stroke-linejoin:round;fill-rule:evenodd;"
d="M 21230,28813
21297,28834
21297,28834
21314,28843
21359,28867
21373,28878
21413,28911
21446,28951
21457,28965
21490,29026
21511,29093
21516,29145
21516,29279
21511,29331
21490,29398
21457,29459
21446,29473
21413,29513
21359,29558
21297,29591
21297,29591
21230,29611
21161,29618
21091,29611
21025,29591
20963,29558
20945,29543
20909,29513
20865,29459
20832,29398
20832,29398
20811,29331
20806,29279
20806,29145
20811,29093
20832,29026
20865,28965
20909,28911
20963,28867
21008,28843
21025,28834
21025,28834
21091,28813
21161,28806
21230,28813
Z" /> 
<path style="fill:#000000; fill-opacity:1.0; 
stroke:#000000; stroke-width:0; stroke-opacity:1; 
stroke-linecap:round; stroke-linejoin:round;fill-rule:evenodd;"
d="M 22215,28813
22282,28834
22282,28834
22299,28843
22343,28867
22357,28878
22397,28911
22430,28951
22442,28965
22474,29026
22495,29093
22500,29145
22500,29279
22495,29331
22474,29398
22442,29459
22430,29473
22397,29513
22343,29558
22282,29591
22282,29591
22215,29611
22145,29618
22076,29611
22009,29591
21947,29558
21929,29543
21893,29513
21849,29459
21816,29398
21816,29398
21796,29331
21790,29279
21790,29145
21796,29093
21816,29026
21849,28965
21893,28911
21947,28867
21992,28843
22009,28834
22009,28834
22076,28813
22145,28806
22215,28813
Z" /> 
<path style="fill:#000000; fill-opacity:1.0; 
stroke:#000000; stroke-width:0; stroke-opacity:1; 
stroke-linecap:round; stroke-linejoin:round;fill-rule:evenodd;"
d="M 23428,28810
23441,28814
23453,28820
23464,28829
23472,28839
23479,28851
23483,28864
23484,28880
23484,29544
23483,29560
23479,29573
23472,29585
23464,29595
23453,29604
23441,29611
23428,29614
23412,29616
22847,29616
22831,29614
22818,29611
22806,29604
22795,29595
22787,29585
22780,29573
22776,29560
22775,29544
22775,28880
22776,28864
22780,28851
22787,28839
22795,28829
22806,28820
22818,28814
22831,28810
22847,28808
23412,28808
23428,28810
Z" /> 
<path style="fill:#000000; fill-opacity:1.0; 
stroke:#000000; stroke-width:0; stroke-opacity:1; 
stroke-linecap:round; stroke-linejoin:round;fill-rule:evenodd;"
d="M 26291,28641
26292,28650
26295,28660
26300,28668
26306,28676
26313,28682
26322,28686
26331,28689
26340,28690
26653,28690
26653,29419
26340,29419
26331,29420
26322,29423
26313,29427
26306,29434
26300,29441
26295,29450
26292,29459
26291,29468
26291,29543
25598,29543
25598,29468
25597,29459
25594,29450
25589,29441
25583,29434
25576,29427
25567,29423
25558,29420
25548,29419
25235,29419
25235,28690
25548,28690
25558,28689
25567,28686
25576,28682
25583,28676
25589,28668
25594,28660
25597,28650
25598,28641
25598,28566
26291,28566
26291,28641
Z" /> 
<path style="fill:#000000; fill-opacity:1.0; 
stroke:#000000; stroke-width:0; stroke-opacity:1; 
stroke-linecap:round; stroke-linejoin:round;fill-rule:evenodd;"
d="M 27255,28977
27269,28981
27281,28988
27292,28997
27301,29007
27307,29020
27311,29033
27313,29049
27313,29286
27311,29302
27307,29316
27301,29328
27292,29339
27281,29348
27269,29354
27255,29359
27239,29360
26973,29360
26956,29359
26943,29354
26931,29348
26920,29339
26911,29328
26904,29316
26900,29302
26899,29286
26899,29049
26900,29033
26904,29020
26911,29007
26920,28997
26931,28988
26943,28981
26956,28977
26973,28975
27239,28975
27255,28977
Z" /> 
<path style="fill:#000000; fill-opacity:1.0; 
stroke:#000000; stroke-width:0; stroke-opacity:1; 
stroke-linecap:round; stroke-linejoin:round;fill-rule:evenodd;"
d="M 24893,28977
24906,28981
24919,28988
24930,28997
24938,29007
24945,29020
24949,29033
24951,29049
24951,29286
24949,29302
24945,29316
24938,29328
24930,29339
24919,29348
24906,29354
24893,29359
24877,29360
24610,29360
24594,29359
24581,29354
24568,29348
24558,29339
24549,29328
24542,29316
24538,29302
24537,29286
24537,29049
24538,29033
24542,29020
24549,29007
24558,28997
24568,28988
24581,28981
24594,28977
24610,28975
24877,28975
24893,28977
Z" /> 
<path style="fill:#000000; fill-opacity:1.0; 
stroke:#000000; stroke-width:0; stroke-opacity:1; 
stroke-linecap:round; stroke-linejoin:round;fill-rule:evenodd;"
d="M 17549,28976
16505,28976
16505,28456
17549,28456
17549,28976
Z" /> 
<path style="fill:#000000; fill-opacity:1.0; 
stroke:#000000; stroke-width:0; stroke-opacity:1; 
stroke-linecap:round; stroke-linejoin:round;fill-rule:evenodd;"
d="M 18259,28465
18273,28469
18285,28476
18296,28485
18305,28496
18311,28508
18315,28521
18317,28538
18317,28774
18315,28791
18311,28804
18305,28816
18296,28827
18285,28836
18273,28843
18259,28847
18243,28848
17977,28848
17960,28847
17947,28843
17935,28836
17924,28827
17915,28816
17908,28804
17904,28791
17903,28774
17903,28538
17904,28521
17908,28508
17915,28496
17924,28485
17935,28476
17947,28469
17960,28465
17977,28464
18243,28464
18259,28465
Z" /> 
<path style="fill:#000000; fill-opacity:1.0; 
stroke:#000000; stroke-width:0; stroke-opacity:1; 
stroke-linecap:round; stroke-linejoin:round;fill-rule:evenodd;"
d="M 27255,28357
27269,28361
27281,28368
27292,28377
27301,28387
27307,28400
27311,28413
27313,28429
27313,28666
27311,28682
27307,28696
27301,28708
27292,28719
27281,28728
27269,28734
27255,28738
27239,28740
26973,28740
26956,28738
26943,28734
26931,28728
26920,28719
26911,28708
26904,28696
26900,28682
26899,28666
26899,28429
26900,28413
26904,28400
26911,28387
26920,28377
26931,28368
26943,28361
26956,28357
26973,28355
27239,28355
27255,28357
Z" /> 
<path style="fill:#000000; fill-opacity:1.0; 
stroke:#000000; stroke-width:0; stroke-opacity:1; 
stroke-linecap:round; stroke-linejoin:round;fill-rule:evenodd;"
d="M 24893,28357
24906,28361
24919,28368
24930,28377
24938,28387
24945,28400
24949,28413
24951,28429
24951,28666
24949,28682
24945,28696
24938,28708
24930,28719
24919,28728
24906,28734
24893,28738
24877,28740
24610,28740
24594,28738
24581,28734
24568,28728
24558,28719
24549,28708
24542,28696
24538,28682
24537,28666
24537,28429
24538,28413
24542,28400
24549,28387
24558,28377
24568,28368
24581,28361
24594,28357
24610,28355
24877,28355
24893,28357
Z" /> 
<path style="fill:#000000; fill-opacity:1.0; 
stroke:#000000; stroke-width:0; stroke-opacity:1; 
stroke-linecap:round; stroke-linejoin:round;fill-rule:evenodd;"
d="M 18259,27845
18273,27849
18285,27856
18296,27865
18305,27876
18311,27888
18315,27901
18317,27918
18317,28154
18315,28171
18311,28184
18305,28196
18296,28207
18285,28216
18273,28223
18259,28227
18243,28228
17977,28228
17960,28227
17947,28223
17935,28216
17924,28207
17915,28196
17908,28184
17904,28171
17903,28154
17903,27918
17904,27901
17908,27888
17915,27876
17924,27865
17935,27856
17947,27849
17960,27845
17977,27844
18243,27844
18259,27845
Z" /> 
<path style="fill:#000000; fill-opacity:1.0; 
stroke:#000000; stroke-width:0; stroke-opacity:1; 
stroke-linecap:round; stroke-linejoin:round;fill-rule:evenodd;"
d="M 17923,24908
18052,24962
18168,25039
18267,25138
18344,25254
18398,25383
18425,25520
18425,25660
18398,25797
18344,25926
18267,26042
18168,26141
18052,26218
17923,26272
17786,26299
17646,26299
17509,26272
17380,26218
17264,26141
17165,26042
17088,25926
17034,25797
17007,25660
17007,25520
17034,25383
17088,25254
17165,25138
17264,25039
17380,24962
17509,24908
17646,24881
17786,24881
17923,24908
Z" /> 
<path style="fill:#000000; fill-opacity:1.0; 
stroke:#000000; stroke-width:0; stroke-opacity:1; 
stroke-linecap:round; stroke-linejoin:round;fill-rule:evenodd;"
d="M 25797,24908
25926,24962
26042,25039
26141,25138
26218,25254
26272,25383
26299,25520
26299,25660
26272,25797
26218,25926
26141,26042
26042,26141
25926,26218
25797,26272
25660,26299
25520,26299
25383,26272
25254,26218
25138,26141
25039,26042
24962,25926
24908,25797
24881,25660
24881,25520
24908,25383
24962,25254
25039,25138
25138,25039
25254,24962
25383,24908
25520,24881
25660,24881
25797,24908
Z" /> 
</g> 
</svg>
