<?xml version="1.0" standalone="no"?>
 <!DOCTYPE svg PUBLIC "-//W3C//DTD SVG 1.1//EN" 
 "http://www.w3.org/Graphics/SVG/1.1/DTD/svg11.dtd"> 
<svg xmlns="http://www.w3.org/2000/svg" version="1.1" 
    width="29.7002cm" height="21.0007cm" viewBox="0 0 116930 82680 ">
<title>SVG Picture created as RCT-X-Telemetry-F_Paste.svg date 2019/09/20 18:38:45 </title>
  <desc>Picture generated by PCBNEW </desc>
<g style="fill:#000000; fill-opacity:1;stroke:#000000; stroke-opacity:1;
stroke-linecap:round; stroke-linejoin:round; "
 transform="translate(0 0) scale(1 1)">
</g>
<g style="fill:#000000; fill-opacity:0.0; 
stroke:#000000; stroke-width:-0.000393701; stroke-opacity:1; 
stroke-linecap:round; stroke-linejoin:round;">
</g>
<g style="fill:#000000; fill-opacity:0.0; 
stroke:#000000; stroke-width:19.685; stroke-opacity:1; 
stroke-linecap:round; stroke-linejoin:round;">
<path d="M15748 43622
L15748 25590
" />
<path d="M16062 43622
L15748 43622
" />
<path d="M16062 46929
L16062 43622
" />
<path d="M15748 46929
L16062 46929
" />
<path d="M15748 49212
L15748 46929
" />
<path d="M27559 31023
L27559 25590
" />
<path d="M27559 34330
L27559 49212
" />
<path d="M27244 34330
L27559 34330
" />
<path d="M27244 31023
L27244 34330
" />
<path d="M27559 31023
L27244 31023
" />
<path d="M27559.1 25590.6 A1968.5 1968.5 0.0 0 0 25590.6 23622 " />
<path d="M25590.6 51181.1 A1968.5 1968.5 0.0 0 0 27559.1 49212.6 " />
<path d="M25590 51181
L17716 51181
" />
<path d="M17716 23622
L25590 23622
" />
<path d="M17716.5 23622 A1968.5 1968.5 0.0 0 0 15748 25590.6 " />
<path d="M15748 49212.6 A1968.5 1968.5 0.0 0 0 17716.5 51181.1 " />
<g >
</g>
<g >
</g>
<g >
</g>
<g >
</g>
<g >
</g>
<g style="fill:#000000; fill-opacity:0.0; 
stroke:#000000; stroke-width:19.685; stroke-opacity:1; 
stroke-linecap:round; stroke-linejoin:round;">
</g>
<g style="fill:#000000; fill-opacity:0.0; 
stroke:#000000; stroke-width:0; stroke-opacity:1; 
stroke-linecap:round; stroke-linejoin:round;">
</g>
<g style="fill:#000000; fill-opacity:1.0; 
stroke:#000000; stroke-width:0; stroke-opacity:1; 
stroke-linecap:round; stroke-linejoin:round;">
<path style="fill:#000000; fill-opacity:1.0; 
stroke:#000000; stroke-width:0; stroke-opacity:1; 
stroke-linecap:round; stroke-linejoin:round;fill-rule:evenodd;"
d="M 18219,27864
18227,27865
18236,27867
18244,27870
18251,27874
18258,27878
18265,27883
18272,27889
18277,27895
18282,27902
18287,27909
18290,27917
18293,27925
18295,27933
18296,27941
18297,27950
18297,28122
18296,28130
18295,28139
18293,28147
18290,28155
18287,28163
18282,28170
18277,28177
18272,28183
18265,28189
18258,28194
18251,28198
18244,28202
18236,28204
18227,28207
18219,28208
18211,28208
18009,28208
18000,28208
17992,28207
17984,28204
17976,28202
17968,28198
17961,28194
17954,28189
17948,28183
17942,28177
17937,28170
17933,28163
17929,28155
17926,28147
17924,28139
17923,28130
17923,28122
17923,27950
17923,27941
17924,27933
17926,27925
17929,27917
17933,27909
17937,27902
17942,27895
17948,27889
17954,27883
17961,27878
17968,27874
17976,27870
17984,27867
17992,27865
18000,27864
18009,27864
18211,27864
18219,27864
Z" /> 
<path style="fill:#000000; fill-opacity:1.0; 
stroke:#000000; stroke-width:0; stroke-opacity:1; 
stroke-linecap:round; stroke-linejoin:round;fill-rule:evenodd;"
d="M 18219,28484
18227,28485
18236,28487
18244,28490
18251,28494
18258,28498
18265,28503
18272,28509
18277,28515
18282,28522
18287,28529
18290,28537
18293,28545
18295,28553
18296,28561
18297,28570
18297,28742
18296,28751
18295,28759
18293,28767
18290,28775
18287,28783
18282,28790
18277,28797
18272,28803
18265,28809
18258,28814
18251,28818
18244,28822
18236,28825
18227,28827
18219,28828
18211,28828
18009,28828
18000,28828
17992,28827
17984,28825
17976,28822
17968,28818
17961,28814
17954,28809
17948,28803
17942,28797
17937,28790
17933,28783
17929,28775
17926,28767
17924,28759
17923,28751
17923,28742
17923,28570
17923,28561
17924,28553
17926,28545
17929,28537
17933,28529
17937,28522
17942,28515
17948,28509
17954,28503
17961,28498
17968,28494
17976,28490
17984,28487
17992,28485
18000,28484
18009,28484
18211,28484
18219,28484
Z" /> 
</g>
<g >
</g>
<g style="fill:#000000; fill-opacity:1.0; 
stroke:#000000; stroke-width:0; stroke-opacity:1; 
stroke-linecap:round; stroke-linejoin:round;">
<path style="fill:#000000; fill-opacity:1.0; 
stroke:#000000; stroke-width:0; stroke-opacity:1; 
stroke-linecap:round; stroke-linejoin:round;fill-rule:evenodd;"
d="M 24853,28996
24861,28997
24869,28999
24877,29002
24885,29006
24892,29010
24899,29015
24905,29021
24911,29027
24916,29034
24920,29041
24924,29049
24927,29057
24929,29065
24930,29073
24931,29082
24931,29254
24930,29262
24929,29271
24927,29279
24924,29287
24920,29295
24916,29302
24911,29309
24905,29315
24899,29321
24892,29326
24885,29330
24877,29333
24869,29336
24861,29338
24853,29340
24844,29340
24643,29340
24634,29340
24626,29338
24618,29336
24610,29333
24602,29330
24595,29326
24588,29321
24582,29315
24576,29309
24571,29302
24567,29295
24563,29287
24560,29279
24558,29271
24557,29262
24557,29254
24557,29082
24557,29073
24558,29065
24560,29057
24563,29049
24567,29041
24571,29034
24576,29027
24582,29021
24588,29015
24595,29010
24602,29006
24610,29002
24618,28999
24626,28997
24634,28996
24643,28996
24844,28996
24853,28996
Z" /> 
<path style="fill:#000000; fill-opacity:1.0; 
stroke:#000000; stroke-width:0; stroke-opacity:1; 
stroke-linecap:round; stroke-linejoin:round;fill-rule:evenodd;"
d="M 24853,28376
24861,28377
24869,28379
24877,28382
24885,28386
24892,28390
24899,28395
24905,28401
24911,28407
24916,28414
24920,28421
24924,28429
24927,28437
24929,28445
24930,28453
24931,28462
24931,28634
24930,28642
24929,28651
24927,28659
24924,28667
24920,28674
24916,28682
24911,28688
24905,28695
24899,28700
24892,28705
24885,28710
24877,28713
24869,28716
24861,28718
24853,28720
24844,28720
24643,28720
24634,28720
24626,28718
24618,28716
24610,28713
24602,28710
24595,28705
24588,28700
24582,28695
24576,28688
24571,28682
24567,28674
24563,28667
24560,28659
24558,28651
24557,28642
24557,28634
24557,28462
24557,28453
24558,28445
24560,28437
24563,28429
24567,28421
24571,28414
24576,28407
24582,28401
24588,28395
24595,28390
24602,28386
24610,28382
24618,28379
24626,28377
24634,28376
24643,28375
24844,28375
24853,28376
Z" /> 
</g>
<g >
</g>
<g style="fill:#000000; fill-opacity:1.0; 
stroke:#000000; stroke-width:0; stroke-opacity:1; 
stroke-linecap:round; stroke-linejoin:round;">
<path style="fill:#000000; fill-opacity:1.0; 
stroke:#000000; stroke-width:0; stroke-opacity:1; 
stroke-linecap:round; stroke-linejoin:round;fill-rule:evenodd;"
d="M 21711,31173
21717,31174
21722,31175
21727,31177
21733,31180
21737,31183
21742,31186
21746,31190
21750,31194
21753,31199
21756,31203
21759,31209
21761,31214
21762,31219
21763,31225
21763,31231
21763,31367
21763,31372
21762,31378
21761,31383
21759,31389
21756,31394
21753,31399
21750,31403
21746,31408
21742,31412
21737,31415
21733,31418
21727,31420
21722,31422
21717,31424
21711,31424
21705,31425
21589,31425
21583,31424
21578,31424
21572,31422
21567,31420
21562,31418
21557,31415
21552,31412
21548,31408
21544,31403
21541,31399
21538,31394
21535,31389
21533,31383
21532,31378
21531,31372
21531,31367
21531,31231
21531,31225
21532,31219
21533,31214
21535,31209
21538,31203
21541,31199
21544,31194
21548,31190
21552,31186
21557,31183
21562,31180
21567,31177
21572,31175
21578,31174
21583,31173
21589,31173
21705,31173
21711,31173
Z" /> 
<path style="fill:#000000; fill-opacity:1.0; 
stroke:#000000; stroke-width:0; stroke-opacity:1; 
stroke-linecap:round; stroke-linejoin:round;fill-rule:evenodd;"
d="M 21329,31173
21335,31174
21340,31175
21346,31177
21351,31180
21356,31183
21360,31186
21364,31190
21368,31194
21372,31199
21375,31203
21377,31209
21379,31214
21380,31219
21381,31225
21381,31231
21381,31367
21381,31372
21380,31378
21379,31383
21377,31389
21375,31394
21372,31399
21368,31403
21364,31408
21360,31412
21356,31415
21351,31418
21346,31420
21340,31422
21335,31424
21329,31424
21323,31425
21207,31425
21201,31424
21196,31424
21190,31422
21185,31420
21180,31418
21175,31415
21170,31412
21166,31408
21162,31403
21159,31399
21156,31394
21154,31389
21152,31383
21150,31378
21149,31372
21149,31367
21149,31231
21149,31225
21150,31219
21152,31214
21154,31209
21156,31203
21159,31199
21162,31194
21166,31190
21170,31186
21175,31183
21180,31180
21185,31177
21190,31175
21196,31174
21201,31173
21207,31173
21323,31173
21329,31173
Z" /> 
</g>
<g >
</g>
<g style="fill:#000000; fill-opacity:1.0; 
stroke:#000000; stroke-width:0; stroke-opacity:1; 
stroke-linecap:round; stroke-linejoin:round;">
<path style="fill:#000000; fill-opacity:1.0; 
stroke:#000000; stroke-width:0; stroke-opacity:1; 
stroke-linecap:round; stroke-linejoin:round;fill-rule:evenodd;"
d="M 18223,31374
18228,31375
18234,31376
18239,31378
18244,31380
18249,31383
18254,31387
18258,31391
18262,31395
18265,31399
18268,31404
18271,31409
18273,31415
18274,31420
18275,31426
18275,31432
18275,31548
18275,31553
18274,31559
18273,31565
18271,31570
18268,31575
18265,31580
18262,31585
18258,31589
18254,31593
18249,31596
18244,31599
18239,31601
18234,31603
18228,31605
18223,31606
18217,31606
18081,31606
18076,31606
18070,31605
18064,31603
18059,31601
18054,31599
18049,31596
18044,31593
18040,31589
18036,31585
18033,31580
18030,31575
18028,31570
18026,31565
18024,31559
18023,31553
18023,31548
18023,31432
18023,31426
18024,31420
18026,31415
18028,31409
18030,31404
18033,31399
18036,31395
18040,31391
18044,31387
18049,31383
18054,31380
18059,31378
18064,31376
18070,31375
18076,31374
18081,31374
18217,31374
18223,31374
Z" /> 
<path style="fill:#000000; fill-opacity:1.0; 
stroke:#000000; stroke-width:0; stroke-opacity:1; 
stroke-linecap:round; stroke-linejoin:round;fill-rule:evenodd;"
d="M 18223,30992
18228,30993
18234,30994
18239,30996
18244,30998
18249,31001
18254,31005
18258,31009
18262,31013
18265,31017
18268,31022
18271,31027
18273,31033
18274,31038
18275,31044
18275,31050
18275,31166
18275,31172
18274,31177
18273,31183
18271,31188
18268,31193
18265,31198
18262,31203
18258,31207
18254,31211
18249,31214
18244,31217
18239,31219
18234,31221
18228,31223
18223,31224
18217,31224
18081,31224
18076,31224
18070,31223
18064,31221
18059,31219
18054,31217
18049,31214
18044,31211
18040,31207
18036,31203
18033,31198
18030,31193
18028,31188
18026,31183
18024,31177
18023,31172
18023,31166
18023,31050
18023,31044
18024,31038
18026,31033
18028,31027
18030,31022
18033,31017
18036,31013
18040,31009
18044,31005
18049,31001
18054,30998
18059,30996
18064,30994
18070,30993
18076,30992
18081,30992
18217,30992
18223,30992
Z" /> 
</g>
<g >
</g>
<g style="fill:#000000; fill-opacity:1.0; 
stroke:#000000; stroke-width:0; stroke-opacity:1; 
stroke-linecap:round; stroke-linejoin:round;">
<path style="fill:#000000; fill-opacity:1.0; 
stroke:#000000; stroke-width:0; stroke-opacity:1; 
stroke-linecap:round; stroke-linejoin:round;fill-rule:evenodd;"
d="M 19959,32157
19965,32158
19970,32159
19975,32161
19981,32164
19986,32167
19990,32170
19994,32174
19998,32178
20002,32183
20004,32188
20007,32193
20009,32198
20010,32204
20011,32209
20011,32215
20011,32351
20011,32357
20010,32362
20009,32368
20007,32373
20004,32378
20002,32383
19998,32388
19994,32392
19990,32396
19986,32399
19981,32402
19975,32405
19970,32406
19965,32408
19959,32409
19953,32409
19837,32409
19831,32409
19826,32408
19820,32406
19815,32405
19810,32402
19805,32399
19800,32396
19796,32392
19792,32388
19789,32383
19786,32378
19783,32373
19782,32368
19780,32362
19779,32357
19779,32351
19779,32215
19779,32209
19780,32204
19782,32198
19783,32193
19786,32188
19789,32183
19792,32178
19796,32174
19800,32170
19805,32167
19810,32164
19815,32161
19820,32159
19826,32158
19831,32157
19837,32157
19953,32157
19959,32157
Z" /> 
<path style="fill:#000000; fill-opacity:1.0; 
stroke:#000000; stroke-width:0; stroke-opacity:1; 
stroke-linecap:round; stroke-linejoin:round;fill-rule:evenodd;"
d="M 19577,32157
19583,32158
19588,32159
19594,32161
19599,32164
19604,32167
19608,32170
19612,32174
19616,32178
19620,32183
19623,32188
19625,32193
19627,32198
19628,32204
19629,32209
19629,32215
19629,32351
19629,32357
19628,32362
19627,32368
19625,32373
19623,32378
19620,32383
19616,32388
19612,32392
19608,32396
19604,32399
19599,32402
19594,32405
19588,32406
19583,32408
19577,32409
19571,32409
19455,32409
19450,32409
19444,32408
19438,32406
19433,32405
19428,32402
19423,32399
19418,32396
19414,32392
19410,32388
19407,32383
19404,32378
19402,32373
19400,32368
19398,32362
19397,32357
19397,32351
19397,32215
19397,32209
19398,32204
19400,32198
19402,32193
19404,32188
19407,32183
19410,32178
19414,32174
19418,32170
19423,32167
19428,32164
19433,32161
19438,32159
19444,32158
19450,32157
19455,32157
19571,32157
19577,32157
Z" /> 
</g>
<g >
</g>
<g style="fill:#000000; fill-opacity:1.0; 
stroke:#000000; stroke-width:0; stroke-opacity:1; 
stroke-linecap:round; stroke-linejoin:round;">
<path style="fill:#000000; fill-opacity:1.0; 
stroke:#000000; stroke-width:0; stroke-opacity:1; 
stroke-linecap:round; stroke-linejoin:round;fill-rule:evenodd;"
d="M 17432,30246
17440,30247
17448,30249
17456,30252
17464,30256
17471,30260
17478,30265
17484,30271
17490,30277
17495,30284
17499,30291
17503,30299
17506,30307
17508,30315
17509,30323
17509,30332
17509,30533
17509,30542
17508,30550
17506,30558
17503,30566
17499,30574
17495,30581
17490,30588
17484,30594
17478,30600
17471,30605
17464,30609
17456,30613
17448,30616
17440,30618
17432,30619
17423,30620
17251,30620
17243,30619
17234,30618
17226,30616
17218,30613
17210,30609
17203,30605
17196,30600
17190,30594
17184,30588
17179,30581
17175,30574
17171,30566
17169,30558
17167,30550
17165,30542
17165,30533
17165,30332
17165,30323
17167,30315
17169,30307
17171,30299
17175,30291
17179,30284
17184,30277
17190,30271
17196,30265
17203,30260
17210,30256
17218,30252
17226,30249
17234,30247
17243,30246
17251,30246
17423,30246
17432,30246
Z" /> 
<path style="fill:#000000; fill-opacity:1.0; 
stroke:#000000; stroke-width:0; stroke-opacity:1; 
stroke-linecap:round; stroke-linejoin:round;fill-rule:evenodd;"
d="M 16812,30246
16820,30247
16828,30249
16836,30252
16844,30256
16851,30260
16858,30265
16864,30271
16870,30277
16875,30284
16879,30291
16883,30299
16886,30307
16888,30315
16889,30323
16889,30332
16889,30533
16889,30542
16888,30550
16886,30558
16883,30566
16879,30574
16875,30581
16870,30588
16864,30594
16858,30600
16851,30605
16844,30609
16836,30613
16828,30616
16820,30618
16812,30619
16803,30620
16631,30620
16622,30619
16614,30618
16606,30616
16598,30613
16590,30609
16583,30605
16576,30600
16570,30594
16564,30588
16559,30581
16555,30574
16551,30566
16548,30558
16546,30550
16545,30542
16545,30533
16545,30332
16545,30323
16546,30315
16548,30307
16551,30299
16555,30291
16559,30284
16564,30277
16570,30271
16576,30265
16583,30260
16590,30256
16598,30252
16606,30249
16614,30247
16622,30246
16631,30246
16803,30246
16812,30246
Z" /> 
</g>
<g >
</g>
<g style="fill:#000000; fill-opacity:1.0; 
stroke:#000000; stroke-width:0; stroke-opacity:1; 
stroke-linecap:round; stroke-linejoin:round;">
<path style="fill:#000000; fill-opacity:1.0; 
stroke:#000000; stroke-width:0; stroke-opacity:1; 
stroke-linecap:round; stroke-linejoin:round;fill-rule:evenodd;"
d="M 27215,28376
27223,28377
27232,28379
27240,28382
27247,28386
27255,28390
27261,28395
27268,28401
27273,28407
27278,28414
27283,28421
27286,28429
27289,28437
27291,28445
27292,28453
27293,28462
27293,28634
27292,28642
27291,28651
27289,28659
27286,28667
27283,28674
27278,28682
27273,28688
27268,28695
27261,28700
27255,28705
27247,28710
27240,28713
27232,28716
27223,28718
27215,28720
27207,28720
27005,28720
26996,28720
26988,28718
26980,28716
26972,28713
26964,28710
26957,28705
26950,28700
26944,28695
26938,28688
26933,28682
26929,28674
26925,28667
26922,28659
26920,28651
26919,28642
26919,28634
26919,28462
26919,28453
26920,28445
26922,28437
26925,28429
26929,28421
26933,28414
26938,28407
26944,28401
26950,28395
26957,28390
26964,28386
26972,28382
26980,28379
26988,28377
26996,28376
27005,28375
27207,28375
27215,28376
Z" /> 
<path style="fill:#000000; fill-opacity:1.0; 
stroke:#000000; stroke-width:0; stroke-opacity:1; 
stroke-linecap:round; stroke-linejoin:round;fill-rule:evenodd;"
d="M 27215,28996
27223,28997
27232,28999
27240,29002
27247,29006
27255,29010
27261,29015
27268,29021
27273,29027
27278,29034
27283,29041
27286,29049
27289,29057
27291,29065
27292,29073
27293,29082
27293,29254
27292,29262
27291,29271
27289,29279
27286,29287
27283,29295
27278,29302
27273,29309
27268,29315
27261,29321
27255,29326
27247,29330
27240,29333
27232,29336
27223,29338
27215,29340
27207,29340
27005,29340
26996,29340
26988,29338
26980,29336
26972,29333
26964,29330
26957,29326
26950,29321
26944,29315
26938,29309
26933,29302
26929,29295
26925,29287
26922,29279
26920,29271
26919,29262
26919,29254
26919,29082
26919,29073
26920,29065
26922,29057
26925,29049
26929,29041
26933,29034
26938,29027
26944,29021
26950,29015
26957,29010
26964,29006
26972,29002
26980,28999
26988,28997
26996,28996
27005,28996
27207,28996
27215,28996
Z" /> 
</g>
<g >
</g>
<g >
</g>
<g >
</g>
<g >
</g>
<g >
</g>
<g >
</g>
<g >
</g>
<g >
</g>
<g >
</g>
<g >
</g>
<g >
</g>
<g >
</g>
<g >
</g>
<g >
</g>
<g >
</g>
<g >
</g>
<g >
</g>
<g >
</g>
<g >
</g>
<g >
</g>
<g style="fill:#000000; fill-opacity:1.0; 
stroke:#000000; stroke-width:0; stroke-opacity:1; 
stroke-linecap:round; stroke-linejoin:round;">
<path style="fill:#000000; fill-opacity:1.0; 
stroke:#000000; stroke-width:0; stroke-opacity:1; 
stroke-linecap:round; stroke-linejoin:round;fill-rule:evenodd;"
d="M 27254,36151
27263,36153
27271,36155
27279,36158
27287,36161
27294,36166
27301,36171
27307,36176
27313,36183
27318,36189
27322,36197
27326,36204
27328,36212
27331,36220
27332,36229
27332,36237
27332,36439
27332,36447
27331,36456
27328,36464
27326,36472
27322,36480
27318,36487
27313,36494
27307,36500
27301,36506
27294,36511
27287,36515
27279,36519
27271,36521
27263,36523
27254,36525
27246,36525
27074,36525
27065,36525
27057,36523
27049,36521
27041,36519
27033,36515
27026,36511
27019,36506
27013,36500
27007,36494
27002,36487
26998,36480
26994,36472
26991,36464
26989,36456
26988,36447
26988,36439
26988,36237
26988,36229
26989,36220
26991,36212
26994,36204
26998,36197
27002,36189
27007,36183
27013,36176
27019,36171
27026,36166
27033,36161
27041,36158
27049,36155
27057,36153
27065,36151
27074,36151
27246,36151
27254,36151
Z" /> 
<path style="fill:#000000; fill-opacity:1.0; 
stroke:#000000; stroke-width:0; stroke-opacity:1; 
stroke-linecap:round; stroke-linejoin:round;fill-rule:evenodd;"
d="M 26634,36151
26643,36153
26651,36155
26659,36158
26667,36161
26674,36166
26681,36171
26687,36176
26693,36183
26698,36189
26702,36197
26706,36204
26708,36212
26710,36220
26712,36229
26712,36237
26712,36439
26712,36447
26710,36456
26708,36464
26706,36472
26702,36480
26698,36487
26693,36494
26687,36500
26681,36506
26674,36511
26667,36515
26659,36519
26651,36521
26643,36523
26634,36525
26626,36525
26454,36525
26445,36525
26437,36523
26429,36521
26421,36519
26413,36515
26406,36511
26399,36506
26393,36500
26387,36494
26382,36487
26378,36480
26374,36472
26371,36464
26369,36456
26368,36447
26368,36439
26368,36237
26368,36229
26369,36220
26371,36212
26374,36204
26378,36197
26382,36189
26387,36183
26393,36176
26399,36171
26406,36166
26413,36161
26421,36158
26429,36155
26437,36153
26445,36151
26454,36151
26626,36151
26634,36151
Z" /> 
</g>
<g >
</g>
<g style="fill:#000000; fill-opacity:1.0; 
stroke:#000000; stroke-width:0; stroke-opacity:1; 
stroke-linecap:round; stroke-linejoin:round;">
<path style="fill:#000000; fill-opacity:1.0; 
stroke:#000000; stroke-width:0; stroke-opacity:1; 
stroke-linecap:round; stroke-linejoin:round;fill-rule:evenodd;"
d="M 26634,36860
26643,36861
26651,36863
26659,36866
26667,36870
26674,36874
26681,36879
26687,36885
26693,36891
26698,36898
26702,36905
26706,36913
26708,36921
26710,36929
26712,36937
26712,36946
26712,37148
26712,37156
26710,37164
26708,37173
26706,37181
26702,37188
26698,37195
26693,37202
26687,37209
26681,37214
26674,37219
26667,37224
26659,37227
26651,37230
26643,37232
26634,37233
26626,37234
26454,37234
26445,37233
26437,37232
26429,37230
26421,37227
26413,37224
26406,37219
26399,37214
26393,37209
26387,37202
26382,37195
26378,37188
26374,37181
26371,37173
26369,37164
26368,37156
26368,37148
26368,36946
26368,36937
26369,36929
26371,36921
26374,36913
26378,36905
26382,36898
26387,36891
26393,36885
26399,36879
26406,36874
26413,36870
26421,36866
26429,36863
26437,36861
26445,36860
26454,36860
26626,36860
26634,36860
Z" /> 
<path style="fill:#000000; fill-opacity:1.0; 
stroke:#000000; stroke-width:0; stroke-opacity:1; 
stroke-linecap:round; stroke-linejoin:round;fill-rule:evenodd;"
d="M 27254,36860
27263,36861
27271,36863
27279,36866
27287,36870
27294,36874
27301,36879
27307,36885
27313,36891
27318,36898
27322,36905
27326,36913
27328,36921
27331,36929
27332,36937
27332,36946
27332,37148
27332,37156
27331,37164
27328,37173
27326,37181
27322,37188
27318,37195
27313,37202
27307,37209
27301,37214
27294,37219
27287,37224
27279,37227
27271,37230
27263,37232
27254,37233
27246,37234
27074,37234
27065,37233
27057,37232
27049,37230
27041,37227
27033,37224
27026,37219
27019,37214
27013,37209
27007,37202
27002,37195
26998,37188
26994,37181
26991,37173
26989,37164
26988,37156
26988,37148
26988,36946
26988,36937
26989,36929
26991,36921
26994,36913
26998,36905
27002,36898
27007,36891
27013,36885
27019,36879
27026,36874
27033,36870
27041,36866
27049,36863
27057,36861
27065,36860
27074,36860
27246,36860
27254,36860
Z" /> 
</g>
<g >
</g>
<g >
</g>
<g >
</g>
<g >
</g>
<g >
</g>
<g style="fill:#000000; fill-opacity:1.0; 
stroke:#000000; stroke-width:0; stroke-opacity:1; 
stroke-linecap:round; stroke-linejoin:round;">
<path style="fill:#000000; fill-opacity:1.0; 
stroke:#000000; stroke-width:0; stroke-opacity:1; 
stroke-linecap:round; stroke-linejoin:round;fill-rule:evenodd;"
d="M 26751,32578
26003,32578
26003,31870
26751,31870
26751,32578
Z" /> 
<path style="fill:#000000; fill-opacity:1.0; 
stroke:#000000; stroke-width:0; stroke-opacity:1; 
stroke-linecap:round; stroke-linejoin:round;fill-rule:evenodd;"
d="M 26751,33484
26003,33484
26003,32775
26751,32775
26751,33484
Z" /> 
<path style="fill:#000000; fill-opacity:1.0; 
stroke:#000000; stroke-width:0; stroke-opacity:1; 
stroke-linecap:round; stroke-linejoin:round;fill-rule:evenodd;"
d="M 25590,32244
25059,32244
25059,32086
25590,32086
25590,32244
Z" /> 
<path style="fill:#000000; fill-opacity:1.0; 
stroke:#000000; stroke-width:0; stroke-opacity:1; 
stroke-linecap:round; stroke-linejoin:round;fill-rule:evenodd;"
d="M 25590,32500
25059,32500
25059,32342
25590,32342
25590,32500
Z" /> 
<path style="fill:#000000; fill-opacity:1.0; 
stroke:#000000; stroke-width:0; stroke-opacity:1; 
stroke-linecap:round; stroke-linejoin:round;fill-rule:evenodd;"
d="M 25590,32755
25059,32755
25059,32598
25590,32598
25590,32755
Z" /> 
<path style="fill:#000000; fill-opacity:1.0; 
stroke:#000000; stroke-width:0; stroke-opacity:1; 
stroke-linecap:round; stroke-linejoin:round;fill-rule:evenodd;"
d="M 25590,33011
25059,33011
25059,32854
25590,32854
25590,33011
Z" /> 
<path style="fill:#000000; fill-opacity:1.0; 
stroke:#000000; stroke-width:0; stroke-opacity:1; 
stroke-linecap:round; stroke-linejoin:round;fill-rule:evenodd;"
d="M 25590,33267
25059,33267
25059,33110
25590,33110
25590,33267
Z" /> 
</g>
<g >
</g>
<g >
</g>
<g >
</g>
<g >
</g>
<g style="fill:#000000; fill-opacity:1.0; 
stroke:#000000; stroke-width:0; stroke-opacity:1; 
stroke-linecap:round; stroke-linejoin:round;">
<path style="fill:#000000; fill-opacity:1.0; 
stroke:#000000; stroke-width:0; stroke-opacity:1; 
stroke-linecap:round; stroke-linejoin:round;fill-rule:evenodd;"
d="M 21711,30661
21717,30662
21722,30663
21727,30665
21733,30668
21737,30671
21742,30674
21746,30678
21750,30682
21753,30687
21756,30692
21759,30697
21761,30702
21762,30708
21763,30713
21763,30719
21763,30855
21763,30861
21762,30866
21761,30872
21759,30877
21756,30882
21753,30887
21750,30892
21746,30896
21742,30900
21737,30903
21733,30906
21727,30908
21722,30910
21717,30912
21711,30913
21705,30913
21589,30913
21583,30913
21578,30912
21572,30910
21567,30908
21562,30906
21557,30903
21552,30900
21548,30896
21544,30892
21541,30887
21538,30882
21535,30877
21533,30872
21532,30866
21531,30861
21531,30855
21531,30719
21531,30713
21532,30708
21533,30702
21535,30697
21538,30692
21541,30687
21544,30682
21548,30678
21552,30674
21557,30671
21562,30668
21567,30665
21572,30663
21578,30662
21583,30661
21589,30661
21705,30661
21711,30661
Z" /> 
<path style="fill:#000000; fill-opacity:1.0; 
stroke:#000000; stroke-width:0; stroke-opacity:1; 
stroke-linecap:round; stroke-linejoin:round;fill-rule:evenodd;"
d="M 21329,30661
21335,30662
21340,30663
21346,30665
21351,30668
21356,30671
21360,30674
21364,30678
21368,30682
21372,30687
21375,30692
21377,30697
21379,30702
21380,30708
21381,30713
21381,30719
21381,30855
21381,30861
21380,30866
21379,30872
21377,30877
21375,30882
21372,30887
21368,30892
21364,30896
21360,30900
21356,30903
21351,30906
21346,30908
21340,30910
21335,30912
21329,30913
21323,30913
21207,30913
21201,30913
21196,30912
21190,30910
21185,30908
21180,30906
21175,30903
21170,30900
21166,30896
21162,30892
21159,30887
21156,30882
21154,30877
21152,30872
21150,30866
21149,30861
21149,30855
21149,30719
21149,30713
21150,30708
21152,30702
21154,30697
21156,30692
21159,30687
21162,30682
21166,30678
21170,30674
21175,30671
21180,30668
21185,30665
21190,30663
21196,30662
21201,30661
21207,30661
21323,30661
21329,30661
Z" /> 
</g>
<g >
</g>
<g style="fill:#000000; fill-opacity:1.0; 
stroke:#000000; stroke-width:0; stroke-opacity:1; 
stroke-linecap:round; stroke-linejoin:round;">
<path style="fill:#000000; fill-opacity:1.0; 
stroke:#000000; stroke-width:0; stroke-opacity:1; 
stroke-linecap:round; stroke-linejoin:round;fill-rule:evenodd;"
d="M 21329,31665
21335,31666
21340,31667
21346,31669
21351,31672
21356,31675
21360,31678
21364,31682
21368,31686
21372,31691
21375,31696
21377,31701
21379,31706
21380,31712
21381,31717
21381,31723
21381,31859
21381,31864
21380,31870
21379,31876
21377,31881
21375,31886
21372,31891
21368,31896
21364,31900
21360,31904
21356,31907
21351,31910
21346,31912
21340,31914
21335,31916
21329,31917
21323,31917
21207,31917
21201,31917
21196,31916
21190,31914
21185,31912
21180,31910
21175,31907
21170,31904
21166,31900
21162,31896
21159,31891
21156,31886
21154,31881
21152,31876
21150,31870
21149,31864
21149,31859
21149,31723
21149,31717
21150,31712
21152,31706
21154,31701
21156,31696
21159,31691
21162,31686
21166,31682
21170,31678
21175,31675
21180,31672
21185,31669
21190,31667
21196,31666
21201,31665
21207,31665
21323,31665
21329,31665
Z" /> 
<path style="fill:#000000; fill-opacity:1.0; 
stroke:#000000; stroke-width:0; stroke-opacity:1; 
stroke-linecap:round; stroke-linejoin:round;fill-rule:evenodd;"
d="M 21711,31665
21717,31666
21722,31667
21727,31669
21733,31672
21737,31675
21742,31678
21746,31682
21750,31686
21753,31691
21756,31696
21759,31701
21761,31706
21762,31712
21763,31717
21763,31723
21763,31859
21763,31864
21762,31870
21761,31876
21759,31881
21756,31886
21753,31891
21750,31896
21746,31900
21742,31904
21737,31907
21733,31910
21727,31912
21722,31914
21717,31916
21711,31917
21705,31917
21589,31917
21583,31917
21578,31916
21572,31914
21567,31912
21562,31910
21557,31907
21552,31904
21548,31900
21544,31896
21541,31891
21538,31886
21535,31881
21533,31876
21532,31870
21531,31864
21531,31859
21531,31723
21531,31717
21532,31712
21533,31706
21535,31701
21538,31696
21541,31691
21544,31686
21548,31682
21552,31678
21557,31675
21562,31672
21567,31669
21572,31667
21578,31666
21583,31665
21589,31665
21705,31665
21711,31665
Z" /> 
</g>
<g >
</g>
<g >
</g>
<g style="fill:#000000; fill-opacity:1.0; 
stroke:#000000; stroke-width:0; stroke-opacity:1; 
stroke-linecap:round; stroke-linejoin:round;">
<path style="fill:#000000; fill-opacity:1.0; 
stroke:#000000; stroke-width:0; stroke-opacity:1; 
stroke-linecap:round; stroke-linejoin:round;fill-rule:evenodd;"
d="M 24282,32433
24287,32434
24293,32435
24298,32437
24303,32439
24308,32442
24313,32446
24317,32450
24321,32454
24324,32458
24327,32463
24330,32468
24332,32474
24333,32479
24334,32485
24334,32491
24334,32626
24334,32632
24333,32638
24332,32643
24330,32649
24327,32654
24324,32659
24321,32663
24317,32668
24313,32671
24308,32675
24303,32678
24298,32680
24293,32682
24287,32683
24282,32684
24276,32685
24160,32685
24154,32684
24149,32683
24143,32682
24138,32680
24133,32678
24128,32675
24123,32671
24119,32668
24115,32663
24112,32659
24109,32654
24106,32649
24104,32643
24103,32638
24102,32632
24102,32626
24102,32491
24102,32485
24103,32479
24104,32474
24106,32468
24109,32463
24112,32458
24115,32454
24119,32450
24123,32446
24128,32442
24133,32439
24138,32437
24143,32435
24149,32434
24154,32433
24160,32433
24276,32433
24282,32433
Z" /> 
<path style="fill:#000000; fill-opacity:1.0; 
stroke:#000000; stroke-width:0; stroke-opacity:1; 
stroke-linecap:round; stroke-linejoin:round;fill-rule:evenodd;"
d="M 24664,32433
24669,32434
24675,32435
24680,32437
24685,32439
24690,32442
24695,32446
24699,32450
24703,32454
24706,32458
24709,32463
24712,32468
24714,32474
24715,32479
24716,32485
24716,32491
24716,32626
24716,32632
24715,32638
24714,32643
24712,32649
24709,32654
24706,32659
24703,32663
24699,32668
24695,32671
24690,32675
24685,32678
24680,32680
24675,32682
24669,32683
24664,32684
24658,32685
24542,32685
24536,32684
24530,32683
24525,32682
24520,32680
24514,32678
24510,32675
24505,32671
24501,32668
24497,32663
24494,32659
24491,32654
24488,32649
24486,32643
24485,32638
24484,32632
24484,32626
24484,32491
24484,32485
24485,32479
24486,32474
24488,32468
24491,32463
24494,32458
24497,32454
24501,32450
24505,32446
24510,32442
24514,32439
24520,32437
24525,32435
24530,32434
24536,32433
24542,32433
24658,32433
24664,32433
Z" /> 
</g>
<g >
</g>
<g style="fill:#000000; fill-opacity:1.0; 
stroke:#000000; stroke-width:0; stroke-opacity:1; 
stroke-linecap:round; stroke-linejoin:round;">
<path style="fill:#000000; fill-opacity:1.0; 
stroke:#000000; stroke-width:0; stroke-opacity:1; 
stroke-linecap:round; stroke-linejoin:round;fill-rule:evenodd;"
d="M 24282,32905
24287,32906
24293,32908
24298,32909
24303,32912
24308,32915
24313,32918
24317,32922
24321,32926
24324,32931
24327,32936
24330,32941
24332,32946
24333,32952
24334,32957
24334,32963
24334,33099
24334,33105
24333,33110
24332,33116
24330,33121
24327,33126
24324,33131
24321,33136
24317,33140
24313,33144
24308,33147
24303,33150
24298,33153
24293,33154
24287,33156
24282,33157
24276,33157
24160,33157
24154,33157
24149,33156
24143,33154
24138,33153
24133,33150
24128,33147
24123,33144
24119,33140
24115,33136
24112,33131
24109,33126
24106,33121
24104,33116
24103,33110
24102,33105
24102,33099
24102,32963
24102,32957
24103,32952
24104,32946
24106,32941
24109,32936
24112,32931
24115,32926
24119,32922
24123,32918
24128,32915
24133,32912
24138,32909
24143,32908
24149,32906
24154,32905
24160,32905
24276,32905
24282,32905
Z" /> 
<path style="fill:#000000; fill-opacity:1.0; 
stroke:#000000; stroke-width:0; stroke-opacity:1; 
stroke-linecap:round; stroke-linejoin:round;fill-rule:evenodd;"
d="M 24664,32905
24669,32906
24675,32908
24680,32909
24685,32912
24690,32915
24695,32918
24699,32922
24703,32926
24706,32931
24709,32936
24712,32941
24714,32946
24715,32952
24716,32957
24716,32963
24716,33099
24716,33105
24715,33110
24714,33116
24712,33121
24709,33126
24706,33131
24703,33136
24699,33140
24695,33144
24690,33147
24685,33150
24680,33153
24675,33154
24669,33156
24664,33157
24658,33157
24542,33157
24536,33157
24530,33156
24525,33154
24520,33153
24514,33150
24510,33147
24505,33144
24501,33140
24497,33136
24494,33131
24491,33126
24488,33121
24486,33116
24485,33110
24484,33105
24484,33099
24484,32963
24484,32957
24485,32952
24486,32946
24488,32941
24491,32936
24494,32931
24497,32926
24501,32922
24505,32918
24510,32915
24514,32912
24520,32909
24525,32908
24530,32906
24536,32905
24542,32905
24658,32905
24664,32905
Z" /> 
</g>
<g >
</g>
<g style="fill:#000000; fill-opacity:1.0; 
stroke:#000000; stroke-width:0; stroke-opacity:1; 
stroke-linecap:round; stroke-linejoin:round;">
<path style="fill:#000000; fill-opacity:1.0; 
stroke:#000000; stroke-width:0; stroke-opacity:1; 
stroke-linecap:round; stroke-linejoin:round;fill-rule:evenodd;"
d="M 25699,36212
25705,36213
25710,36215
25716,36217
25721,36219
25726,36222
25730,36225
25734,36229
25738,36233
25742,36238
25745,36243
25747,36248
25749,36253
25750,36259
25751,36264
25751,36270
25751,36406
25751,36412
25750,36417
25749,36423
25747,36428
25745,36433
25742,36438
25738,36443
25734,36447
25730,36451
25726,36454
25721,36457
25716,36460
25710,36462
25705,36463
25699,36464
25693,36464
25577,36464
25572,36464
25566,36463
25560,36462
25555,36460
25550,36457
25545,36454
25540,36451
25536,36447
25532,36443
25529,36438
25526,36433
25524,36428
25522,36423
25520,36417
25519,36412
25519,36406
25519,36270
25519,36264
25520,36259
25522,36253
25524,36248
25526,36243
25529,36238
25532,36233
25536,36229
25540,36225
25545,36222
25550,36219
25555,36217
25560,36215
25566,36213
25572,36212
25577,36212
25693,36212
25699,36212
Z" /> 
<path style="fill:#000000; fill-opacity:1.0; 
stroke:#000000; stroke-width:0; stroke-opacity:1; 
stroke-linecap:round; stroke-linejoin:round;fill-rule:evenodd;"
d="M 26081,36212
26087,36213
26092,36215
26098,36217
26103,36219
26108,36222
26112,36225
26116,36229
26120,36233
26124,36238
26127,36243
26129,36248
26131,36253
26132,36259
26133,36264
26133,36270
26133,36406
26133,36412
26132,36417
26131,36423
26129,36428
26127,36433
26124,36438
26120,36443
26116,36447
26112,36451
26108,36454
26103,36457
26098,36460
26092,36462
26087,36463
26081,36464
26075,36464
25959,36464
25953,36464
25948,36463
25942,36462
25937,36460
25932,36457
25927,36454
25922,36451
25918,36447
25914,36443
25911,36438
25908,36433
25905,36428
25904,36423
25902,36417
25901,36412
25901,36406
25901,36270
25901,36264
25902,36259
25904,36253
25905,36248
25908,36243
25911,36238
25914,36233
25918,36229
25922,36225
25927,36222
25932,36219
25937,36217
25942,36215
25948,36213
25953,36212
25959,36212
26075,36212
26081,36212
Z" /> 
</g>
<g >
</g>
<g style="fill:#000000; fill-opacity:1.0; 
stroke:#000000; stroke-width:0; stroke-opacity:1; 
stroke-linecap:round; stroke-linejoin:round;">
<path style="fill:#000000; fill-opacity:1.0; 
stroke:#000000; stroke-width:0; stroke-opacity:1; 
stroke-linecap:round; stroke-linejoin:round;fill-rule:evenodd;"
d="M 26081,36921
26087,36922
26092,36923
26098,36925
26103,36928
26108,36931
26112,36934
26116,36938
26120,36942
26124,36947
26127,36951
26129,36957
26131,36962
26132,36968
26133,36973
26133,36979
26133,37115
26133,37120
26132,37126
26131,37132
26129,37137
26127,37142
26124,37147
26120,37151
26116,37156
26112,37160
26108,37163
26103,37166
26098,37168
26092,37170
26087,37172
26081,37172
26075,37173
25959,37173
25953,37172
25948,37172
25942,37170
25937,37168
25932,37166
25927,37163
25922,37160
25918,37156
25914,37151
25911,37147
25908,37142
25905,37137
25904,37132
25902,37126
25901,37120
25901,37115
25901,36979
25901,36973
25902,36968
25904,36962
25905,36957
25908,36951
25911,36947
25914,36942
25918,36938
25922,36934
25927,36931
25932,36928
25937,36925
25942,36923
25948,36922
25953,36921
25959,36921
26075,36921
26081,36921
Z" /> 
<path style="fill:#000000; fill-opacity:1.0; 
stroke:#000000; stroke-width:0; stroke-opacity:1; 
stroke-linecap:round; stroke-linejoin:round;fill-rule:evenodd;"
d="M 25699,36921
25705,36922
25710,36923
25716,36925
25721,36928
25726,36931
25730,36934
25734,36938
25738,36942
25742,36947
25745,36951
25747,36957
25749,36962
25750,36968
25751,36973
25751,36979
25751,37115
25751,37120
25750,37126
25749,37132
25747,37137
25745,37142
25742,37147
25738,37151
25734,37156
25730,37160
25726,37163
25721,37166
25716,37168
25710,37170
25705,37172
25699,37172
25693,37173
25577,37173
25572,37172
25566,37172
25560,37170
25555,37168
25550,37166
25545,37163
25540,37160
25536,37156
25532,37151
25529,37147
25526,37142
25524,37137
25522,37132
25520,37126
25519,37120
25519,37115
25519,36979
25519,36973
25520,36968
25522,36962
25524,36957
25526,36951
25529,36947
25532,36942
25536,36938
25540,36934
25545,36931
25550,36928
25555,36925
25560,36923
25566,36922
25572,36921
25577,36921
25693,36921
25699,36921
Z" /> 
</g>
<g >
</g>
<g >
</g>
<g >
</g>
<g >
</g>
<g >
</g>
<g >
</g>
<g >
</g>
<g >
</g>
<g >
</g>
<g >
</g>
<g >
</g>
<g >
</g>
<g >
</g>
<g >
</g>
<g >
</g>
<g >
</g>
<g >
</g>
<g >
</g>
<g >
</g>
<g >
</g>
<g >
</g>
<g >
</g>
<g >
</g>
<g >
</g>
<g >
</g>
<g >
</g>
<g >
</g>
<g >
</g>
<g >
</g>
<g style="fill:#000000; fill-opacity:1.0; 
stroke:#000000; stroke-width:0; stroke-opacity:1; 
stroke-linecap:round; stroke-linejoin:round;">
<path style="fill:#000000; fill-opacity:1.0; 
stroke:#000000; stroke-width:0; stroke-opacity:1; 
stroke-linecap:round; stroke-linejoin:round;fill-rule:evenodd;"
d="M 17273,28476
17529,28476
17529,28956
17273,28956
17273,28476
Z" /> 
<path style="fill:#000000; fill-opacity:1.0; 
stroke:#000000; stroke-width:0; stroke-opacity:1; 
stroke-linecap:round; stroke-linejoin:round;fill-rule:evenodd;"
d="M 16899,28476
17155,28476
17155,28956
16899,28956
16899,28476
Z" /> 
<path style="fill:#000000; fill-opacity:1.0; 
stroke:#000000; stroke-width:0; stroke-opacity:1; 
stroke-linecap:round; stroke-linejoin:round;fill-rule:evenodd;"
d="M 16525,28476
16781,28476
16781,28956
16525,28956
16525,28476
Z" /> 
<path style="fill:#000000; fill-opacity:1.0; 
stroke:#000000; stroke-width:0; stroke-opacity:1; 
stroke-linecap:round; stroke-linejoin:round;fill-rule:evenodd;"
d="M 16525,29507
16781,29507
16781,29988
16525,29988
16525,29507
Z" /> 
<path style="fill:#000000; fill-opacity:1.0; 
stroke:#000000; stroke-width:0; stroke-opacity:1; 
stroke-linecap:round; stroke-linejoin:round;fill-rule:evenodd;"
d="M 17273,29507
17529,29507
17529,29988
17273,29988
17273,29507
Z" /> 
</g>
<g >
</g>
<g style="fill:#000000; fill-opacity:1.0; 
stroke:#000000; stroke-width:0; stroke-opacity:1; 
stroke-linecap:round; stroke-linejoin:round;">
<path style="fill:#000000; fill-opacity:1.0; 
stroke:#000000; stroke-width:0; stroke-opacity:1; 
stroke-linecap:round; stroke-linejoin:round;fill-rule:evenodd;"
d="M 26633,29301
26633,29399
26358,29399
26358,29301
26633,29301
Z" /> 
<path style="fill:#000000; fill-opacity:1.0; 
stroke:#000000; stroke-width:0; stroke-opacity:1; 
stroke-linecap:round; stroke-linejoin:round;fill-rule:evenodd;"
d="M 26633,29104
26633,29202
26358,29202
26358,29104
26633,29104
Z" /> 
<path style="fill:#000000; fill-opacity:1.0; 
stroke:#000000; stroke-width:0; stroke-opacity:1; 
stroke-linecap:round; stroke-linejoin:round;fill-rule:evenodd;"
d="M 26633,28907
26633,29005
26358,29005
26358,28907
26633,28907
Z" /> 
<path style="fill:#000000; fill-opacity:1.0; 
stroke:#000000; stroke-width:0; stroke-opacity:1; 
stroke-linecap:round; stroke-linejoin:round;fill-rule:evenodd;"
d="M 26633,28710
26633,28809
26358,28809
26358,28710
26633,28710
Z" /> 
<path style="fill:#000000; fill-opacity:1.0; 
stroke:#000000; stroke-width:0; stroke-opacity:1; 
stroke-linecap:round; stroke-linejoin:round;fill-rule:evenodd;"
d="M 25531,28710
25531,28809
25255,28809
25255,28710
25531,28710
Z" /> 
<path style="fill:#000000; fill-opacity:1.0; 
stroke:#000000; stroke-width:0; stroke-opacity:1; 
stroke-linecap:round; stroke-linejoin:round;fill-rule:evenodd;"
d="M 25531,28907
25531,29005
25255,29005
25255,28907
25531,28907
Z" /> 
<path style="fill:#000000; fill-opacity:1.0; 
stroke:#000000; stroke-width:0; stroke-opacity:1; 
stroke-linecap:round; stroke-linejoin:round;fill-rule:evenodd;"
d="M 25531,29104
25531,29202
25255,29202
25255,29104
25531,29104
Z" /> 
<path style="fill:#000000; fill-opacity:1.0; 
stroke:#000000; stroke-width:0; stroke-opacity:1; 
stroke-linecap:round; stroke-linejoin:round;fill-rule:evenodd;"
d="M 25531,29301
25531,29399
25255,29399
25255,29301
25531,29301
Z" /> 
<path style="fill:#000000; fill-opacity:1.0; 
stroke:#000000; stroke-width:0; stroke-opacity:1; 
stroke-linecap:round; stroke-linejoin:round;fill-rule:evenodd;"
d="M 25907,28624
25907,29017
25655,29017
25655,28624
25907,28624
Z" /> 
<path style="fill:#000000; fill-opacity:1.0; 
stroke:#000000; stroke-width:0; stroke-opacity:1; 
stroke-linecap:round; stroke-linejoin:round;fill-rule:evenodd;"
d="M 26234,28624
26234,29017
25982,29017
25982,28624
26234,28624
Z" /> 
<path style="fill:#000000; fill-opacity:1.0; 
stroke:#000000; stroke-width:0; stroke-opacity:1; 
stroke-linecap:round; stroke-linejoin:round;fill-rule:evenodd;"
d="M 25907,29092
25907,29486
25655,29486
25655,29092
25907,29092
Z" /> 
<path style="fill:#000000; fill-opacity:1.0; 
stroke:#000000; stroke-width:0; stroke-opacity:1; 
stroke-linecap:round; stroke-linejoin:round;fill-rule:evenodd;"
d="M 26234,29092
26234,29486
25982,29486
25982,29092
26234,29092
Z" /> 
</g>
<g >
</g>
<g style="fill:#000000; fill-opacity:1.0; 
stroke:#000000; stroke-width:0; stroke-opacity:1; 
stroke-linecap:round; stroke-linejoin:round;">
<path style="fill:#000000; fill-opacity:1.0; 
stroke:#000000; stroke-width:0; stroke-opacity:1; 
stroke-linecap:round; stroke-linejoin:round;fill-rule:evenodd;"
d="M 18553,30984
18553,30846
18809,30846
18809,30984
18553,30984
Z" /> 
<path style="fill:#000000; fill-opacity:1.0; 
stroke:#000000; stroke-width:0; stroke-opacity:1; 
stroke-linecap:round; stroke-linejoin:round;fill-rule:evenodd;"
d="M 18553,31240
18553,31102
18809,31102
18809,31240
18553,31240
Z" /> 
<path style="fill:#000000; fill-opacity:1.0; 
stroke:#000000; stroke-width:0; stroke-opacity:1; 
stroke-linecap:round; stroke-linejoin:round;fill-rule:evenodd;"
d="M 18553,31496
18553,31358
18809,31358
18809,31496
18553,31496
Z" /> 
<path style="fill:#000000; fill-opacity:1.0; 
stroke:#000000; stroke-width:0; stroke-opacity:1; 
stroke-linecap:round; stroke-linejoin:round;fill-rule:evenodd;"
d="M 18553,31751
18553,31614
18809,31614
18809,31751
18553,31751
Z" /> 
<path style="fill:#000000; fill-opacity:1.0; 
stroke:#000000; stroke-width:0; stroke-opacity:1; 
stroke-linecap:round; stroke-linejoin:round;fill-rule:evenodd;"
d="M 19773,31751
19773,31614
20029,31614
20029,31751
19773,31751
Z" /> 
<path style="fill:#000000; fill-opacity:1.0; 
stroke:#000000; stroke-width:0; stroke-opacity:1; 
stroke-linecap:round; stroke-linejoin:round;fill-rule:evenodd;"
d="M 19773,31496
19773,31358
20029,31358
20029,31496
19773,31496
Z" /> 
<path style="fill:#000000; fill-opacity:1.0; 
stroke:#000000; stroke-width:0; stroke-opacity:1; 
stroke-linecap:round; stroke-linejoin:round;fill-rule:evenodd;"
d="M 19773,31240
19773,31102
20029,31102
20029,31240
19773,31240
Z" /> 
<path style="fill:#000000; fill-opacity:1.0; 
stroke:#000000; stroke-width:0; stroke-opacity:1; 
stroke-linecap:round; stroke-linejoin:round;fill-rule:evenodd;"
d="M 19773,30984
19773,30846
20029,30846
20029,30984
19773,30984
Z" /> 
<path style="fill:#000000; fill-opacity:1.0; 
stroke:#000000; stroke-width:0; stroke-opacity:1; 
stroke-linecap:round; stroke-linejoin:round;fill-rule:evenodd;"
d="M 19020,31732
19020,31338
19256,31338
19256,31732
19020,31732
Z" /> 
<path style="fill:#000000; fill-opacity:1.0; 
stroke:#000000; stroke-width:0; stroke-opacity:1; 
stroke-linecap:round; stroke-linejoin:round;fill-rule:evenodd;"
d="M 19325,31732
19325,31338
19562,31338
19562,31732
19325,31732
Z" /> 
<path style="fill:#000000; fill-opacity:1.0; 
stroke:#000000; stroke-width:0; stroke-opacity:1; 
stroke-linecap:round; stroke-linejoin:round;fill-rule:evenodd;"
d="M 19325,31259
19325,30866
19562,30866
19562,31259
19325,31259
Z" /> 
<path style="fill:#000000; fill-opacity:1.0; 
stroke:#000000; stroke-width:0; stroke-opacity:1; 
stroke-linecap:round; stroke-linejoin:round;fill-rule:evenodd;"
d="M 19020,31259
19020,30866
19256,30866
19256,31259
19020,31259
Z" /> 
</g>
<g >
</g>
<g >
</g>
<g >
</g>
<g >
</g>
<g >
</g>
<g >
</g>
<g >
</g>
<g >
</g>
</g> 
</svg>
