<?xml version="1.0" standalone="no"?>
 <!DOCTYPE svg PUBLIC "-//W3C//DTD SVG 1.1//EN" 
 "http://www.w3.org/Graphics/SVG/1.1/DTD/svg11.dtd"> 
<svg xmlns="http://www.w3.org/2000/svg" version="1.1" 
    width="29.7002cm" height="21.0007cm" viewBox="0 0 116930 82680 ">
<title>SVG Picture created as RCT-X-Telemetry-B_SilkS.svg date 2019/09/20 18:38:45 </title>
  <desc>Picture generated by PCBNEW </desc>
<g style="fill:#000000; fill-opacity:1;stroke:#000000; stroke-opacity:1;
stroke-linecap:round; stroke-linejoin:round; "
 transform="translate(0 0) scale(1 1)">
</g>
<g style="fill:#000000; fill-opacity:0.0; 
stroke:#000000; stroke-width:-0.000393701; stroke-opacity:1; 
stroke-linecap:round; stroke-linejoin:round;">
</g>
<g style="fill:#000000; fill-opacity:0.0; 
stroke:#000000; stroke-width:118.11; stroke-opacity:1; 
stroke-linecap:round; stroke-linejoin:round;">
<path d="M16151 28251
L16292 28645
L16433 28251
" />
<path d="M16967 28645
L16629 28645
" />
<path d="M16798 28645
L16798 28054
L16742 28138
L16686 28195
L16629 28223
" />
<path d="M17220 28588
L17248 28616
L17220 28645
L17192 28616
L17220 28588
L17220 28645
" />
<path d="M17614 28054
L17670 28054
L17726 28082
L17754 28110
L17782 28167
L17811 28279
L17811 28420
L17782 28532
L17754 28588
L17726 28616
L17670 28645
L17614 28645
L17557 28616
L17529 28588
L17501 28532
L17473 28420
L17473 28279
L17501 28167
L17529 28110
L17557 28082
L17614 28054
" />
<path d="M18064 28588
L18092 28616
L18064 28645
L18035 28616
L18064 28588
L18064 28645
" />
<path d="M18457 28054
L18514 28054
L18570 28082
L18598 28110
L18626 28167
L18654 28279
L18654 28420
L18626 28532
L18598 28588
L18570 28616
L18514 28645
L18457 28645
L18401 28616
L18373 28588
L18345 28532
L18317 28420
L18317 28279
L18345 28167
L18373 28110
L18401 28082
L18457 28054
" />
</g>
<g style="fill:#000000; fill-opacity:0.0; 
stroke:#000000; stroke-width:47.2441; stroke-opacity:1; 
stroke-linecap:round; stroke-linejoin:round;">
<path d="M26973 44717
L26943 44717
L26913 44732
L26898 44747
L26883 44777
L26868 44837
L26868 44912
L26883 44972
L26898 45002
L26913 45017
L26943 45032
L26973 45032
L27003 45017
L27018 45002
L27033 44972
L27048 44912
L27048 44837
L27033 44777
L27018 44747
L27003 44732
L26973 44717
" />
<path d="M26643 45137
L26718 45137
L26718 44687
L26643 44687
" />
<path d="M26463 44717
L26433 44717
L26403 44732
L26388 44747
L26373 44777
L26358 44837
L26358 44912
L26373 44972
L26388 45002
L26403 45017
L26433 45032
L26463 45032
L26493 45017
L26508 45002
L26523 44972
L26538 44912
L26538 44837
L26523 44777
L26508 44747
L26493 44732
L26463 44717
" />
<path d="M26253 45137
L26178 45137
L26178 44687
L26253 44687
" />
<path d="M25773 45002
L25758 45017
L25773 45032
L25788 45017
L25773 45002
L25773 45032
" />
<path d="M25773 44837
L25758 44852
L25773 44867
L25788 44852
L25773 44837
L25773 44867
" />
<path d="M25203 45032
L25308 44882
" />
<path d="M25383 45032
L25383 44717
L25263 44717
L25233 44732
L25218 44747
L25203 44777
L25203 44822
L25218 44852
L25233 44867
L25263 44882
L25383 44882
" />
<path d="M24933 45032
L24933 44867
L24948 44837
L24978 44822
L25038 44822
L25068 44837
" />
<path d="M24933 45017
L24963 45032
L25038 45032
L25068 45017
L25083 44987
L25083 44957
L25068 44927
L25038 44912
L24963 44912
L24933 44897
" />
<path d="M24648 45032
L24648 44717
" />
<path d="M24648 45017
L24678 45032
L24738 45032
L24768 45017
L24783 45002
L24798 44972
L24798 44882
L24783 44852
L24768 44837
L24738 44822
L24678 44822
L24648 44837
" />
<path d="M24498 45032
L24498 44822
" />
<path d="M24498 44717
L24513 44732
L24498 44747
L24483 44732
L24498 44717
L24498 44747
" />
<path d="M24303 45032
L24333 45017
L24348 45002
L24363 44972
L24363 44882
L24348 44852
L24333 44837
L24303 44822
L24258 44822
L24228 44837
L24213 44852
L24198 44882
L24198 44972
L24213 45002
L24228 45017
L24258 45032
L24303 45032
" />
<path d="M24063 44912
L23823 44912
" />
<path d="M23718 44717
L23538 44717
" />
<path d="M23628 45032
L23628 44717
" />
<path d="M23463 44717
L23253 45032
" />
<path d="M23253 44717
L23463 45032
" />
<path d="M23133 45032
L23133 44717
L23058 44717
L23013 44732
L22983 44762
L22968 44792
L22953 44852
L22953 44897
L22968 44957
L22983 44987
L23013 45017
L23058 45032
L23133 45032
" />
<path d="M26973 45236
L26943 45236
L26913 45251
L26898 45266
L26883 45296
L26868 45356
L26868 45431
L26883 45491
L26898 45521
L26913 45536
L26943 45551
L26973 45551
L27003 45536
L27018 45521
L27033 45491
L27048 45431
L27048 45356
L27033 45296
L27018 45266
L27003 45251
L26973 45236
" />
<path d="M26643 45656
L26718 45656
L26718 45206
L26643 45206
" />
<path d="M26358 45551
L26538 45551
" />
<path d="M26448 45551
L26448 45236
L26478 45281
L26508 45311
L26538 45326
" />
<path d="M26253 45656
L26178 45656
L26178 45206
L26253 45206
" />
<path d="M25773 45521
L25758 45536
L25773 45551
L25788 45536
L25773 45521
L25773 45551
" />
<path d="M25773 45356
L25758 45371
L25773 45386
L25788 45371
L25773 45356
L25773 45386
" />
<path d="M25203 45551
L25308 45401
" />
<path d="M25383 45551
L25383 45236
L25263 45236
L25233 45251
L25218 45266
L25203 45296
L25203 45341
L25218 45371
L25233 45386
L25263 45401
L25383 45401
" />
<path d="M24933 45551
L24933 45386
L24948 45356
L24978 45341
L25038 45341
L25068 45356
" />
<path d="M24933 45536
L24963 45551
L25038 45551
L25068 45536
L25083 45506
L25083 45476
L25068 45446
L25038 45431
L24963 45431
L24933 45416
" />
<path d="M24648 45551
L24648 45236
" />
<path d="M24648 45536
L24678 45551
L24738 45551
L24768 45536
L24783 45521
L24798 45491
L24798 45401
L24783 45371
L24768 45356
L24738 45341
L24678 45341
L24648 45356
" />
<path d="M24498 45551
L24498 45341
" />
<path d="M24498 45236
L24513 45251
L24498 45266
L24483 45251
L24498 45236
L24498 45266
" />
<path d="M24303 45551
L24333 45536
L24348 45521
L24363 45491
L24363 45401
L24348 45371
L24333 45356
L24303 45341
L24258 45341
L24228 45356
L24213 45371
L24198 45401
L24198 45491
L24213 45521
L24228 45536
L24258 45551
L24303 45551
" />
<path d="M24063 45431
L23823 45431
" />
<path d="M23493 45551
L23598 45401
" />
<path d="M23673 45551
L23673 45236
L23553 45236
L23523 45251
L23508 45266
L23493 45296
L23493 45341
L23508 45371
L23523 45386
L23553 45401
L23673 45401
" />
<path d="M23403 45236
L23223 45236
" />
<path d="M23313 45551
L23313 45236
" />
<path d="M23133 45536
L23088 45551
L23013 45551
L22983 45536
L22968 45521
L22953 45491
L22953 45461
L22968 45431
L22983 45416
L23013 45401
L23073 45386
L23103 45371
L23118 45356
L23133 45326
L23133 45296
L23118 45266
L23103 45251
L23073 45236
L22998 45236
L22953 45251
" />
<path d="M26973 45756
L26943 45756
L26913 45771
L26898 45786
L26883 45816
L26868 45876
L26868 45951
L26883 46011
L26898 46041
L26913 46056
L26943 46071
L26973 46071
L27003 46056
L27018 46041
L27033 46011
L27048 45951
L27048 45876
L27033 45816
L27018 45786
L27003 45771
L26973 45756
" />
<path d="M26643 46176
L26718 46176
L26718 45726
L26643 45726
" />
<path d="M26538 45786
L26523 45771
L26493 45756
L26418 45756
L26388 45771
L26373 45786
L26358 45816
L26358 45846
L26373 45891
L26553 46071
L26358 46071
" />
<path d="M26253 46176
L26178 46176
L26178 45726
L26253 45726
" />
<path d="M25773 46041
L25758 46056
L25773 46071
L25788 46056
L25773 46041
L25773 46071
" />
<path d="M25773 45876
L25758 45891
L25773 45906
L25788 45891
L25773 45876
L25773 45906
" />
<path d="M25203 46071
L25308 45921
" />
<path d="M25383 46071
L25383 45756
L25263 45756
L25233 45771
L25218 45786
L25203 45816
L25203 45861
L25218 45891
L25233 45906
L25263 45921
L25383 45921
" />
<path d="M24933 46071
L24933 45906
L24948 45876
L24978 45861
L25038 45861
L25068 45876
" />
<path d="M24933 46056
L24963 46071
L25038 46071
L25068 46056
L25083 46026
L25083 45996
L25068 45966
L25038 45951
L24963 45951
L24933 45936
" />
<path d="M24648 46071
L24648 45756
" />
<path d="M24648 46056
L24678 46071
L24738 46071
L24768 46056
L24783 46041
L24798 46011
L24798 45921
L24783 45891
L24768 45876
L24738 45861
L24678 45861
L24648 45876
" />
<path d="M24498 46071
L24498 45861
" />
<path d="M24498 45756
L24513 45771
L24498 45786
L24483 45771
L24498 45756
L24498 45786
" />
<path d="M24303 46071
L24333 46056
L24348 46041
L24363 46011
L24363 45921
L24348 45891
L24333 45876
L24303 45861
L24258 45861
L24228 45876
L24213 45891
L24198 45921
L24198 46011
L24213 46041
L24228 46056
L24258 46071
L24303 46071
" />
<path d="M24063 45951
L23823 45951
" />
<path d="M23493 46041
L23508 46056
L23553 46071
L23583 46071
L23628 46056
L23658 46026
L23673 45996
L23688 45936
L23688 45891
L23673 45831
L23658 45801
L23628 45771
L23583 45756
L23553 45756
L23508 45771
L23493 45786
" />
<path d="M23403 45756
L23223 45756
" />
<path d="M23313 46071
L23313 45756
" />
<path d="M23133 46056
L23088 46071
L23013 46071
L22983 46056
L22968 46041
L22953 46011
L22953 45981
L22968 45951
L22983 45936
L23013 45921
L23073 45906
L23103 45891
L23118 45876
L23133 45846
L23133 45816
L23118 45786
L23103 45771
L23073 45756
L22998 45756
L22953 45771
" />
<path d="M26973 46276
L26943 46276
L26913 46291
L26898 46306
L26883 46336
L26868 46396
L26868 46471
L26883 46531
L26898 46561
L26913 46576
L26943 46591
L26973 46591
L27003 46576
L27018 46561
L27033 46531
L27048 46471
L27048 46396
L27033 46336
L27018 46306
L27003 46291
L26973 46276
" />
<path d="M26643 46696
L26718 46696
L26718 46246
L26643 46246
" />
<path d="M26553 46276
L26358 46276
L26463 46396
L26418 46396
L26388 46411
L26373 46426
L26358 46456
L26358 46531
L26373 46561
L26388 46576
L26418 46591
L26508 46591
L26538 46576
L26553 46561
" />
<path d="M26253 46696
L26178 46696
L26178 46246
L26253 46246
" />
<path d="M25773 46561
L25758 46576
L25773 46591
L25788 46576
L25773 46561
L25773 46591
" />
<path d="M25773 46396
L25758 46411
L25773 46426
L25788 46411
L25773 46396
L25773 46426
" />
<path d="M25203 46591
L25308 46441
" />
<path d="M25383 46591
L25383 46276
L25263 46276
L25233 46291
L25218 46306
L25203 46336
L25203 46381
L25218 46411
L25233 46426
L25263 46441
L25383 46441
" />
<path d="M24933 46591
L24933 46426
L24948 46396
L24978 46381
L25038 46381
L25068 46396
" />
<path d="M24933 46576
L24963 46591
L25038 46591
L25068 46576
L25083 46546
L25083 46516
L25068 46486
L25038 46471
L24963 46471
L24933 46456
" />
<path d="M24648 46591
L24648 46276
" />
<path d="M24648 46576
L24678 46591
L24738 46591
L24768 46576
L24783 46561
L24798 46531
L24798 46441
L24783 46411
L24768 46396
L24738 46381
L24678 46381
L24648 46396
" />
<path d="M24498 46591
L24498 46381
" />
<path d="M24498 46276
L24513 46291
L24498 46306
L24483 46291
L24498 46276
L24498 46306
" />
<path d="M24303 46591
L24333 46576
L24348 46561
L24363 46531
L24363 46441
L24348 46411
L24333 46396
L24303 46381
L24258 46381
L24228 46396
L24213 46411
L24198 46441
L24198 46531
L24213 46561
L24228 46576
L24258 46591
L24303 46591
" />
<path d="M24063 46471
L23823 46471
" />
<path d="M23493 46591
L23598 46441
" />
<path d="M23673 46591
L23673 46276
L23553 46276
L23523 46291
L23508 46306
L23493 46336
L23493 46381
L23508 46411
L23523 46426
L23553 46441
L23673 46441
" />
<path d="M23388 46276
L23178 46591
" />
<path d="M23178 46276
L23388 46591
" />
<path d="M23058 46591
L23058 46276
L22983 46276
L22938 46291
L22908 46321
L22893 46351
L22878 46411
L22878 46456
L22893 46516
L22908 46546
L22938 46576
L22983 46591
L23058 46591
" />
<path d="M26973 46796
L26943 46796
L26913 46811
L26898 46826
L26883 46856
L26868 46916
L26868 46991
L26883 47050
L26898 47080
L26913 47095
L26943 47110
L26973 47110
L27003 47095
L27018 47080
L27033 47050
L27048 46991
L27048 46916
L27033 46856
L27018 46826
L27003 46811
L26973 46796
" />
<path d="M26643 47215
L26718 47215
L26718 46766
L26643 46766
" />
<path d="M26388 46901
L26388 47110
" />
<path d="M26463 46781
L26538 47005
L26343 47005
" />
<path d="M26253 47215
L26178 47215
L26178 46766
L26253 46766
" />
<path d="M25773 47080
L25758 47095
L25773 47110
L25788 47095
L25773 47080
L25773 47110
" />
<path d="M25773 46916
L25758 46931
L25773 46946
L25788 46931
L25773 46916
L25773 46946
" />
<path d="M25203 47110
L25308 46961
" />
<path d="M25383 47110
L25383 46796
L25263 46796
L25233 46811
L25218 46826
L25203 46856
L25203 46901
L25218 46931
L25233 46946
L25263 46961
L25383 46961
" />
<path d="M24933 47110
L24933 46946
L24948 46916
L24978 46901
L25038 46901
L25068 46916
" />
<path d="M24933 47095
L24963 47110
L25038 47110
L25068 47095
L25083 47065
L25083 47035
L25068 47005
L25038 46991
L24963 46991
L24933 46976
" />
<path d="M24648 47110
L24648 46796
" />
<path d="M24648 47095
L24678 47110
L24738 47110
L24768 47095
L24783 47080
L24798 47050
L24798 46961
L24783 46931
L24768 46916
L24738 46901
L24678 46901
L24648 46916
" />
<path d="M24498 47110
L24498 46901
" />
<path d="M24498 46796
L24513 46811
L24498 46826
L24483 46811
L24498 46796
L24498 46826
" />
<path d="M24303 47110
L24333 47095
L24348 47080
L24363 47050
L24363 46961
L24348 46931
L24333 46916
L24303 46901
L24258 46901
L24228 46916
L24213 46931
L24198 46961
L24198 47050
L24213 47080
L24228 47095
L24258 47110
L24303 47110
" />
<path d="M24063 46991
L23823 46991
" />
<path d="M23493 47080
L23508 47095
L23553 47110
L23583 47110
L23628 47095
L23658 47065
L23673 47035
L23688 46976
L23688 46931
L23673 46871
L23658 46841
L23628 46811
L23583 46796
L23553 46796
L23508 46811
L23493 46826
" />
<path d="M23313 47110
L23343 47095
L23358 47080
L23373 47050
L23373 46961
L23358 46931
L23343 46916
L23313 46901
L23268 46901
L23238 46916
L23223 46931
L23208 46961
L23208 47050
L23223 47080
L23238 47095
L23268 47110
L23313 47110
" />
<path d="M23073 46901
L23073 47110
" />
<path d="M23073 46931
L23058 46916
L23028 46901
L22983 46901
L22953 46916
L22938 46946
L22938 47110
" />
<path d="M22833 46901
L22713 46901
" />
<path d="M22788 47110
L22788 46841
L22773 46811
L22743 46796
L22713 46796
" />
<path d="M22608 47110
L22608 46901
" />
<path d="M22608 46796
L22623 46811
L22608 46826
L22593 46811
L22608 46796
L22608 46826
" />
<path d="M22323 46901
L22323 47155
L22338 47185
L22353 47200
L22383 47215
L22428 47215
L22458 47200
" />
<path d="M22323 47095
L22353 47110
L22413 47110
L22443 47095
L22458 47080
L22473 47050
L22473 46961
L22458 46931
L22443 46916
L22413 46901
L22353 46901
L22323 46916
" />
<path d="M26973 47315
L26943 47315
L26913 47330
L26898 47345
L26883 47375
L26868 47435
L26868 47510
L26883 47570
L26898 47600
L26913 47615
L26943 47630
L26973 47630
L27003 47615
L27018 47600
L27033 47570
L27048 47510
L27048 47435
L27033 47375
L27018 47345
L27003 47330
L26973 47315
" />
<path d="M26643 47735
L26718 47735
L26718 47285
L26643 47285
" />
<path d="M26373 47315
L26523 47315
L26538 47465
L26523 47450
L26493 47435
L26418 47435
L26388 47450
L26373 47465
L26358 47495
L26358 47570
L26373 47600
L26388 47615
L26418 47630
L26493 47630
L26523 47615
L26538 47600
" />
<path d="M26253 47735
L26178 47735
L26178 47285
L26253 47285
" />
<path d="M25773 47600
L25758 47615
L25773 47630
L25788 47615
L25773 47600
L25773 47630
" />
<path d="M25773 47435
L25758 47450
L25773 47465
L25788 47450
L25773 47435
L25773 47465
" />
<path d="M25203 47630
L25308 47480
" />
<path d="M25383 47630
L25383 47315
L25263 47315
L25233 47330
L25218 47345
L25203 47375
L25203 47420
L25218 47450
L25233 47465
L25263 47480
L25383 47480
" />
<path d="M24933 47630
L24933 47465
L24948 47435
L24978 47420
L25038 47420
L25068 47435
" />
<path d="M24933 47615
L24963 47630
L25038 47630
L25068 47615
L25083 47585
L25083 47555
L25068 47525
L25038 47510
L24963 47510
L24933 47495
" />
<path d="M24648 47630
L24648 47315
" />
<path d="M24648 47615
L24678 47630
L24738 47630
L24768 47615
L24783 47600
L24798 47570
L24798 47480
L24783 47450
L24768 47435
L24738 47420
L24678 47420
L24648 47435
" />
<path d="M24498 47630
L24498 47420
" />
<path d="M24498 47315
L24513 47330
L24498 47345
L24483 47330
L24498 47315
L24498 47345
" />
<path d="M24303 47630
L24333 47615
L24348 47600
L24363 47570
L24363 47480
L24348 47450
L24333 47435
L24303 47420
L24258 47420
L24228 47435
L24213 47450
L24198 47480
L24198 47570
L24213 47600
L24228 47615
L24258 47630
L24303 47630
" />
<path d="M24063 47510
L23823 47510
" />
<path d="M23748 47200
L23433 47200
" />
<path d="M23493 47630
L23598 47480
" />
<path d="M23673 47630
L23673 47315
L23553 47315
L23523 47330
L23508 47345
L23493 47375
L23493 47420
L23508 47450
L23523 47465
L23553 47480
L23673 47480
" />
<path d="M23433 47200
L23148 47200
" />
<path d="M23358 47465
L23253 47465
" />
<path d="M23208 47630
L23358 47630
L23358 47315
L23208 47315
" />
<path d="M23148 47200
L22848 47200
" />
<path d="M23088 47615
L23043 47630
L22968 47630
L22938 47615
L22923 47600
L22908 47570
L22908 47540
L22923 47510
L22938 47495
L22968 47480
L23028 47465
L23058 47450
L23073 47435
L23088 47405
L23088 47375
L23073 47345
L23058 47330
L23028 47315
L22953 47315
L22908 47330
" />
<path d="M22848 47200
L22563 47200
" />
<path d="M22773 47465
L22668 47465
" />
<path d="M22623 47630
L22773 47630
L22773 47315
L22623 47315
" />
<path d="M22563 47200
L22323 47200
" />
<path d="M22533 47315
L22353 47315
" />
<path d="M22443 47630
L22443 47315
" />
<path d="M23607 26154
L23787 26154
" />
<path d="M23697 26154
L23697 25839
L23727 25884
L23757 25914
L23787 25929
" />
<path d="M23382 26259
L23457 26259
L23457 25809
L23382 25809
" />
<path d="M23277 25869
L23262 25854
L23232 25839
L23157 25839
L23127 25854
L23112 25869
L23097 25899
L23097 25929
L23112 25974
L23292 26154
L23097 26154
" />
<path d="M22992 26259
L22917 26259
L22917 25809
L22992 25809
" />
<path d="M22512 26124
L22497 26139
L22512 26154
L22527 26139
L22512 26124
L22512 26154
" />
<path d="M22512 25959
L22497 25974
L22512 25989
L22527 25974
L22512 25959
L22512 25989
" />
<path d="M22017 25989
L22122 25989
" />
<path d="M22122 26154
L22122 25839
L21972 25839
" />
<path d="M21807 26154
L21837 26139
L21852 26109
L21852 25839
" />
<path d="M21552 26154
L21552 25989
L21567 25959
L21597 25944
L21657 25944
L21687 25959
" />
<path d="M21552 26139
L21582 26154
L21657 26154
L21687 26139
L21702 26109
L21702 26079
L21687 26049
L21657 26034
L21582 26034
L21552 26019
" />
<path d="M21417 26139
L21387 26154
L21327 26154
L21297 26139
L21282 26109
L21282 26094
L21297 26064
L21327 26049
L21372 26049
L21402 26034
L21417 26004
L21417 25989
L21402 25959
L21372 25944
L21327 25944
L21297 25959
" />
<path d="M21147 26154
L21147 25839
" />
<path d="M21012 26154
L21012 25989
L21027 25959
L21057 25944
L21102 25944
L21132 25959
L21147 25974
" />
<path d="M20862 26034
L20622 26034
" />
<path d="M20487 26139
L20442 26154
L20367 26154
L20337 26139
L20322 26124
L20307 26094
L20307 26064
L20322 26034
L20337 26019
L20367 26004
L20427 25989
L20457 25974
L20472 25959
L20487 25929
L20487 25899
L20472 25869
L20457 25854
L20427 25839
L20352 25839
L20307 25854
" />
<path d="M19992 26124
L20007 26139
L20052 26154
L20082 26154
L20127 26139
L20157 26109
L20172 26079
L20187 26019
L20187 25974
L20172 25914
L20157 25884
L20127 25854
L20082 25839
L20052 25839
L20007 25854
L19992 25869
" />
<path d="M19707 26154
L19857 26154
L19857 25839
" />
<path d="M19602 26154
L19602 25839
" />
<path d="M19422 26154
L19557 25974
" />
<path d="M19422 25839
L19602 26019
" />
<path d="M23607 26673
L23787 26673
" />
<path d="M23697 26673
L23697 26359
L23727 26404
L23757 26434
L23787 26449
" />
<path d="M23382 26778
L23457 26778
L23457 26329
L23382 26329
" />
<path d="M23292 26359
L23097 26359
L23202 26479
L23157 26479
L23127 26494
L23112 26508
L23097 26538
L23097 26613
L23112 26643
L23127 26658
L23157 26673
L23247 26673
L23277 26658
L23292 26643
" />
<path d="M22992 26778
L22917 26778
L22917 26329
L22992 26329
" />
<path d="M22512 26643
L22497 26658
L22512 26673
L22527 26658
L22512 26643
L22512 26673
" />
<path d="M22512 26479
L22497 26494
L22512 26508
L22527 26494
L22512 26479
L22512 26508
" />
<path d="M22017 26508
L22122 26508
" />
<path d="M22122 26673
L22122 26359
L21972 26359
" />
<path d="M21807 26673
L21837 26658
L21852 26628
L21852 26359
" />
<path d="M21552 26673
L21552 26508
L21567 26479
L21597 26464
L21657 26464
L21687 26479
" />
<path d="M21552 26658
L21582 26673
L21657 26673
L21687 26658
L21702 26628
L21702 26598
L21687 26568
L21657 26553
L21582 26553
L21552 26538
" />
<path d="M21417 26658
L21387 26673
L21327 26673
L21297 26658
L21282 26628
L21282 26613
L21297 26583
L21327 26568
L21372 26568
L21402 26553
L21417 26523
L21417 26508
L21402 26479
L21372 26464
L21327 26464
L21297 26479
" />
<path d="M21147 26673
L21147 26359
" />
<path d="M21012 26673
L21012 26508
L21027 26479
L21057 26464
L21102 26464
L21132 26479
L21147 26494
" />
<path d="M20862 26553
L20622 26553
" />
<path d="M20472 26673
L20472 26359
L20367 26583
L20262 26359
L20262 26673
" />
<path d="M20052 26359
L19992 26359
L19962 26374
L19932 26404
L19917 26464
L19917 26568
L19932 26628
L19962 26658
L19992 26673
L20052 26673
L20082 26658
L20112 26628
L20127 26568
L20127 26464
L20112 26404
L20082 26374
L20052 26359
" />
<path d="M19797 26658
L19752 26673
L19677 26673
L19647 26658
L19632 26643
L19617 26613
L19617 26583
L19632 26553
L19647 26538
L19677 26523
L19737 26508
L19767 26494
L19782 26479
L19797 26449
L19797 26419
L19782 26389
L19767 26374
L19737 26359
L19662 26359
L19617 26374
" />
<path d="M19482 26673
L19482 26359
" />
<path d="M23607 27193
L23787 27193
" />
<path d="M23697 27193
L23697 26878
L23727 26923
L23757 26953
L23787 26968
" />
<path d="M23382 27298
L23457 27298
L23457 26848
L23382 26848
" />
<path d="M23127 26983
L23127 27193
" />
<path d="M23202 26863
L23277 27088
L23082 27088
" />
<path d="M22992 27298
L22917 27298
L22917 26848
L22992 26848
" />
<path d="M22512 27163
L22497 27178
L22512 27193
L22527 27178
L22512 27163
L22512 27193
" />
<path d="M22512 26998
L22497 27013
L22512 27028
L22527 27013
L22512 26998
L22512 27028
" />
<path d="M22017 27028
L22122 27028
" />
<path d="M22122 27193
L22122 26878
L21972 26878
" />
<path d="M21807 27193
L21837 27178
L21852 27148
L21852 26878
" />
<path d="M21552 27193
L21552 27028
L21567 26998
L21597 26983
L21657 26983
L21687 26998
" />
<path d="M21552 27178
L21582 27193
L21657 27193
L21687 27178
L21702 27148
L21702 27118
L21687 27088
L21657 27073
L21582 27073
L21552 27058
" />
<path d="M21417 27178
L21387 27193
L21327 27193
L21297 27178
L21282 27148
L21282 27133
L21297 27103
L21327 27088
L21372 27088
L21402 27073
L21417 27043
L21417 27028
L21402 26998
L21372 26983
L21327 26983
L21297 26998
" />
<path d="M21147 27193
L21147 26878
" />
<path d="M21012 27193
L21012 27028
L21027 26998
L21057 26983
L21102 26983
L21132 26998
L21147 27013
" />
<path d="M20862 27073
L20622 27073
" />
<path d="M20472 27193
L20472 26878
L20367 27103
L20262 26878
L20262 27193
" />
<path d="M20112 27193
L20112 26878
" />
<path d="M19977 27178
L19932 27193
L19857 27193
L19827 27178
L19812 27163
L19797 27133
L19797 27103
L19812 27073
L19827 27058
L19857 27043
L19917 27028
L19947 27013
L19962 26998
L19977 26968
L19977 26938
L19962 26908
L19947 26893
L19917 26878
L19842 26878
L19797 26893
" />
<path d="M19602 26878
L19542 26878
L19512 26893
L19482 26923
L19467 26983
L19467 27088
L19482 27148
L19512 27178
L19542 27193
L19602 27193
L19632 27178
L19662 27148
L19677 27088
L19677 26983
L19662 26923
L19632 26893
L19602 26878
" />
<path d="M23607 27713
L23787 27713
" />
<path d="M23697 27713
L23697 27398
L23727 27443
L23757 27473
L23787 27488
" />
<path d="M23382 27818
L23457 27818
L23457 27368
L23382 27368
" />
<path d="M23112 27398
L23262 27398
L23277 27548
L23262 27533
L23232 27518
L23157 27518
L23127 27533
L23112 27548
L23097 27578
L23097 27653
L23112 27683
L23127 27698
L23157 27713
L23232 27713
L23262 27698
L23277 27683
" />
<path d="M22992 27818
L22917 27818
L22917 27368
L22992 27368
" />
<path d="M22512 27683
L22497 27698
L22512 27713
L22527 27698
L22512 27683
L22512 27713
" />
<path d="M22512 27518
L22497 27533
L22512 27548
L22527 27533
L22512 27518
L22512 27548
" />
<path d="M22017 27548
L22122 27548
" />
<path d="M22122 27713
L22122 27398
L21972 27398
" />
<path d="M21807 27713
L21837 27698
L21852 27668
L21852 27398
" />
<path d="M21552 27713
L21552 27548
L21567 27518
L21597 27503
L21657 27503
L21687 27518
" />
<path d="M21552 27698
L21582 27713
L21657 27713
L21687 27698
L21702 27668
L21702 27638
L21687 27608
L21657 27593
L21582 27593
L21552 27578
" />
<path d="M21417 27698
L21387 27713
L21327 27713
L21297 27698
L21282 27668
L21282 27653
L21297 27623
L21327 27608
L21372 27608
L21402 27593
L21417 27563
L21417 27548
L21402 27518
L21372 27503
L21327 27503
L21297 27518
" />
<path d="M21147 27713
L21147 27398
" />
<path d="M21012 27713
L21012 27548
L21027 27518
L21057 27503
L21102 27503
L21132 27518
L21147 27533
" />
<path d="M20862 27593
L20622 27593
" />
<path d="M20547 27282
L20232 27282
" />
<path d="M20292 27683
L20307 27698
L20352 27713
L20382 27713
L20427 27698
L20457 27668
L20472 27638
L20487 27578
L20487 27533
L20472 27473
L20457 27443
L20427 27413
L20382 27398
L20352 27398
L20307 27413
L20292 27428
" />
<path d="M20232 27282
L19932 27282
" />
<path d="M20172 27698
L20127 27713
L20052 27713
L20022 27698
L20007 27683
L19992 27653
L19992 27623
L20007 27593
L20022 27578
L20052 27563
L20112 27548
L20142 27533
L20157 27518
L20172 27488
L20172 27458
L20157 27428
L20142 27413
L20112 27398
L20037 27398
L19992 27413
" />
</g>
<g style="fill:#000000; fill-opacity:0.0; 
stroke:#000000; stroke-width:19.685; stroke-opacity:1; 
stroke-linecap:round; stroke-linejoin:round;">
<path d="M15748 43622
L15748 25590
" />
<path d="M16062 43622
L15748 43622
" />
<path d="M16062 46929
L16062 43622
" />
<path d="M15748 46929
L16062 46929
" />
<path d="M15748 49212
L15748 46929
" />
<path d="M27559 31023
L27559 25590
" />
<path d="M27559 34330
L27559 49212
" />
<path d="M27244 34330
L27559 34330
" />
<path d="M27244 31023
L27244 34330
" />
<path d="M27559 31023
L27244 31023
" />
<path d="M27559.1 25590.6 A1968.5 1968.5 0.0 0 0 25590.6 23622 " />
<path d="M25590.6 51181.1 A1968.5 1968.5 0.0 0 0 27559.1 49212.6 " />
<path d="M25590 51181
L17716 51181
" />
<path d="M17716 23622
L25590 23622
" />
<path d="M17716.5 23622 A1968.5 1968.5 0.0 0 0 15748 25590.6 " />
<path d="M15748 49212.6 A1968.5 1968.5 0.0 0 0 17716.5 51181.1 " />
</g>
<g style="fill:#000000; fill-opacity:1.0; 
stroke:#000000; stroke-width:3.93701; stroke-opacity:1; 
stroke-linecap:round; stroke-linejoin:round;">
<path style="fill:#000000; fill-opacity:1.0; 
stroke:#000000; stroke-width:3.93701; stroke-opacity:1; 
stroke-linecap:round; stroke-linejoin:round;fill-rule:evenodd;"
d="M 24971,28539
24849,28731
24731,28916
24619,29091
24516,29254
24423,29400
24342,29526
24276,29629
24228,29705
24198,29751
24196,29754
24137,29857
24106,29936
24104,29995
24124,30031
24139,30036
24173,30040
24229,30043
24309,30046
24415,30049
24549,30051
24713,30053
24908,30054
25138,30054
25404,30055
25700,30055
25989,30055
26240,30055
26457,30054
26642,30054
26797,30053
26925,30051
27029,30049
27112,30047
27175,30044
27222,30040
27256,30036
27278,30032
27292,30026
27296,30024
27329,29990
27340,29962
27335,29943
27200,29943
27181,29946
27127,29949
27043,29950
26935,29951
26806,29951
26663,29951
26646,29950
26092,29945
25737,29236
25743,29229
25697,29229
25527,29567
25472,29675
25423,29771
25381,29850
25351,29905
25336,29930
25336,29930
25319,29938
25281,29944
25217,29949
25125,29952
25002,29954
24843,29955
24778,29955
24636,29955
24508,29953
24399,29951
24315,29948
24260,29944
24240,29940
24240,29940
24250,29918
24277,29870
24315,29804
24339,29765
24397,29672
24459,29571
24515,29480
24524,29465
24565,29399
24598,29347
24618,29318
24621,29315
24636,29294
24666,29248
24704,29186
24711,29175
24761,29094
24813,29010
24853,28948
24917,28850
24999,29013
25045,29098
25080,29150
25108,29173
25119,29175
25149,29161
25198,29121
25258,29063
25287,29033
25344,28973
25392,28928
25425,28903
25434,28901
25453,28921
25490,28965
25539,29026
25574,29070
25697,29229
25743,29229
25874,29067
26010,28899
26141,29027
26202,29084
26257,29128
26297,29152
26307,29155
26333,29141
26365,29097
26406,29019
26417,28995
26451,28924
26479,28869
26498,28839
26502,28835
26517,28851
26545,28891
26562,28917
26598,28978
26631,29032
26640,29046
26693,29129
26756,29227
26824,29335
26895,29447
26966,29560
27032,29667
27092,29763
27142,29844
27178,29904
27198,29938
27200,29943
27335,29943
27331,29932
27303,29876
27255,29792
27187,29680
27097,29537
27065,29487
27031,29431
27007,29389
27000,29371
26990,29352
26959,29303
26912,29228
26850,29130
26775,29015
26690,28884
26598,28743
26584,28721
26568,28697
26424,28697
26424,28725
26410,28769
26380,28837
26364,28871
26288,29034
26160,28905
26101,28847
26050,28803
26016,28778
26008,28775
25987,28790
25947,28830
25896,28888
25858,28934
25804,29001
25759,29054
25729,29086
25720,29093
25705,29078
25671,29038
25624,28979
25583,28924
25528,28855
25479,28799
25444,28764
25429,28755
25405,28769
25362,28807
25307,28862
25267,28905
25131,29055
25055,28905
24980,28755
25021,28680
25052,28627
25096,28555
25145,28477
25156,28460
25207,28381
25270,28283
25335,28179
25378,28110
25485,27940
25572,27804
25639,27702
25685,27634
25712,27600
25719,27595
25733,27611
25764,27656
25808,27723
25863,27807
25900,27866
25965,27969
26029,28071
26086,28161
26131,28230
26144,28251
26193,28328
26249,28419
26302,28505
26345,28575
26383,28634
26410,28672
26413,28677
26424,28697
26568,28697
26480,28563
26375,28401
26273,28243
26177,28095
26091,27962
26021,27852
25978,27785
25910,27677
25859,27599
25820,27545
25791,27511
25767,27492
25744,27483
25720,27479
25650,27474
24971,28539
Z" /> 
<path style="fill:#000000; fill-opacity:1.0; 
stroke:#000000; stroke-width:3.93701; stroke-opacity:1; 
stroke-linecap:round; stroke-linejoin:round;fill-rule:evenodd;"
d="M 19077,30234
19013,30415
18993,30470
18974,30518
18959,30555
18947,30579
18941,30587
18941,30587
18935,30575
18924,30548
18909,30508
18891,30460
18877,30418
18857,30364
18840,30317
18826,30279
18816,30253
18812,30245
18797,30237
18767,30236
18760,30236
18715,30239
18786,30436
18808,30496
18829,30551
18848,30597
18864,30632
18874,30651
18876,30653
18901,30668
18936,30675
18973,30672
19005,30661
19010,30657
19021,30640
19037,30606
19058,30557
19083,30492
19101,30440
19122,30381
19141,30329
19156,30286
19166,30255
19171,30239
19172,30238
19163,30236
19140,30234
19124,30234
19077,30234
Z" /> 
<path style="fill:#000000; fill-opacity:1.0; 
stroke:#000000; stroke-width:3.93701; stroke-opacity:1; 
stroke-linecap:round; stroke-linejoin:round;fill-rule:evenodd;"
d="M 19547,30234
19483,30415
19463,30470
19444,30518
19429,30555
19417,30579
19411,30587
19411,30587
19405,30575
19394,30548
19379,30508
19361,30460
19347,30418
19327,30364
19310,30317
19296,30279
19286,30253
19282,30245
19267,30237
19237,30236
19230,30236
19185,30239
19256,30436
19278,30496
19299,30551
19318,30597
19334,30632
19344,30651
19346,30653
19371,30668
19406,30675
19443,30672
19475,30661
19480,30657
19491,30640
19507,30606
19528,30557
19553,30492
19571,30440
19592,30381
19611,30329
19626,30286
19636,30255
19641,30239
19642,30238
19633,30236
19610,30234
19594,30234
19547,30234
Z" /> 
<path style="fill:#000000; fill-opacity:1.0; 
stroke:#000000; stroke-width:3.93701; stroke-opacity:1; 
stroke-linecap:round; stroke-linejoin:round;fill-rule:evenodd;"
d="M 20017,30234
19953,30415
19933,30470
19914,30518
19899,30555
19887,30579
19881,30587
19881,30587
19875,30575
19864,30548
19849,30508
19831,30460
19817,30418
19797,30364
19780,30317
19766,30279
19756,30253
19752,30245
19737,30237
19707,30236
19700,30236
19655,30239
19726,30436
19748,30496
19769,30551
19788,30597
19804,30632
19814,30651
19816,30653
19841,30668
19876,30675
19913,30672
19945,30661
19950,30657
19961,30640
19977,30606
19998,30557
20023,30492
20041,30440
20062,30381
20081,30329
20096,30286
20106,30255
20111,30239
20112,30238
20103,30236
20080,30234
20064,30234
20017,30234
Z" /> 
<path style="fill:#000000; fill-opacity:1.0; 
stroke:#000000; stroke-width:3.93701; stroke-opacity:1; 
stroke-linecap:round; stroke-linejoin:round;fill-rule:evenodd;"
d="M 20333,30235
20312,30241
20294,30252
20278,30272
20261,30303
20242,30346
20220,30404
20196,30469
20176,30527
20157,30579
20142,30621
20131,30651
20125,30666
20125,30667
20131,30671
20152,30673
20172,30674
20202,30673
20219,30668
20228,30656
20233,30644
20244,30614
20470,30614
20477,30644
20482,30662
20492,30671
20512,30674
20533,30674
20562,30673
20576,30670
20578,30661
20576,30653
20560,30603
20540,30546
20536,30534
20439,30534
20354,30534
20313,30534
20289,30532
20277,30528
20275,30522
20276,30517
20283,30500
20294,30469
20308,30431
20313,30414
20328,30375
20340,30344
20349,30325
20351,30321
20357,30327
20368,30348
20383,30381
20399,30424
20399,30424
20439,30534
20536,30534
20518,30486
20496,30427
20474,30372
20455,30324
20439,30286
20427,30263
20424,30257
20403,30241
20375,30235
20358,30234
20333,30235
Z" /> 
<path style="fill:#000000; fill-opacity:1.0; 
stroke:#000000; stroke-width:3.93701; stroke-opacity:1; 
stroke-linecap:round; stroke-linejoin:round;fill-rule:evenodd;"
d="M 20642,30314
20765,30314
20818,30314
20855,30316
20879,30319
20894,30324
20904,30331
20905,30332
20920,30360
20915,30386
20906,30398
20893,30406
20870,30411
20834,30414
20795,30414
20735,30416
20691,30423
20660,30436
20637,30457
20627,30474
20614,30516
20613,30563
20623,30607
20627,30614
20640,30636
20658,30651
20682,30662
20716,30669
20763,30673
20826,30674
20846,30674
20992,30674
20992,30594
20863,30594
20809,30594
20771,30592
20746,30590
20731,30585
20721,30578
20718,30576
20703,30549
20708,30525
20720,30511
20734,30502
20757,30497
20792,30495
20831,30494
20889,30492
20931,30485
20961,30472
20984,30450
20995,30434
21008,30396
21011,30350
21002,30307
20996,30294
20983,30272
20965,30256
20940,30245
20905,30239
20856,30235
20791,30234
20782,30234
20642,30234
20642,30314
Z" /> 
<path style="fill:#000000; fill-opacity:1.0; 
stroke:#000000; stroke-width:3.93701; stroke-opacity:1; 
stroke-linecap:round; stroke-linejoin:round;fill-rule:evenodd;"
d="M 21243,30235
21222,30241
21204,30252
21188,30272
21171,30303
21152,30346
21130,30404
21106,30469
21086,30527
21067,30579
21052,30621
21041,30651
21035,30666
21035,30667
21041,30671
21062,30673
21082,30674
21112,30673
21129,30668
21138,30656
21143,30644
21154,30614
21380,30614
21387,30644
21392,30662
21402,30671
21422,30674
21443,30674
21472,30673
21486,30670
21488,30661
21486,30653
21470,30603
21450,30546
21446,30534
21349,30534
21264,30534
21223,30534
21199,30532
21187,30528
21185,30522
21186,30517
21193,30500
21204,30469
21218,30431
21223,30414
21238,30375
21250,30344
21259,30325
21261,30321
21267,30327
21278,30348
21293,30381
21309,30424
21309,30424
21349,30534
21446,30534
21428,30486
21406,30427
21384,30372
21365,30324
21349,30286
21337,30263
21334,30257
21313,30241
21285,30235
21268,30234
21243,30235
Z" /> 
<path style="fill:#000000; fill-opacity:1.0; 
stroke:#000000; stroke-width:3.93701; stroke-opacity:1; 
stroke-linecap:round; stroke-linejoin:round;fill-rule:evenodd;"
d="M 21708,30236
21683,30245
21662,30262
21643,30292
21624,30336
21606,30383
21593,30421
21576,30469
21557,30523
21543,30562
21502,30674
21554,30674
21607,30674
21660,30516
21687,30440
21709,30382
21726,30343
21740,30321
21749,30318
21756,30332
21760,30363
21762,30411
21762,30437
21763,30509
21768,30563
21776,30603
21788,30632
21800,30647
21826,30662
21864,30671
21904,30672
21940,30665
21941,30664
21954,30658
21966,30648
21977,30632
21989,30608
22003,30573
22021,30525
22042,30464
22062,30405
22078,30364
22090,30337
22099,30323
22107,30320
22115,30325
22119,30330
22124,30344
22128,30371
22130,30413
22131,30472
22132,30511
22132,30674
22222,30674
22221,30487
22221,30419
22220,30369
22219,30333
22216,30309
22212,30292
22206,30281
22204,30278
22173,30251
22134,30237
22097,30234
22070,30236
22048,30243
22029,30258
22011,30283
21994,30321
21974,30373
21957,30425
21936,30487
21920,30532
21908,30562
21898,30580
21890,30588
21882,30587
21875,30583
21869,30572
21865,30551
21863,30515
21862,30463
21862,30442
21860,30372
21854,30319
21843,30281
21825,30255
21799,30241
21764,30235
21740,30234
21708,30236
Z" /> 
<path style="fill:#000000; fill-opacity:1.0; 
stroke:#000000; stroke-width:3.93701; stroke-opacity:1; 
stroke-linecap:round; stroke-linejoin:round;fill-rule:evenodd;"
d="M 22463,30235
22442,30241
22424,30252
22408,30272
22391,30303
22372,30346
22350,30404
22326,30469
22306,30527
22287,30579
22272,30621
22261,30651
22255,30666
22255,30667
22261,30671
22282,30673
22302,30674
22332,30673
22349,30668
22358,30656
22363,30644
22374,30614
22600,30614
22607,30644
22612,30662
22622,30671
22642,30674
22663,30674
22692,30673
22706,30670
22708,30661
22706,30653
22690,30603
22670,30546
22666,30534
22569,30534
22484,30534
22443,30534
22419,30532
22407,30528
22405,30522
22406,30517
22413,30500
22424,30469
22438,30431
22443,30414
22458,30375
22470,30344
22479,30325
22481,30321
22487,30327
22498,30348
22513,30381
22529,30424
22529,30424
22569,30534
22666,30534
22648,30486
22626,30427
22604,30372
22585,30324
22569,30286
22557,30263
22554,30257
22533,30241
22505,30235
22488,30234
22463,30235
Z" /> 
<path style="fill:#000000; fill-opacity:1.0; 
stroke:#000000; stroke-width:3.93701; stroke-opacity:1; 
stroke-linecap:round; stroke-linejoin:round;fill-rule:evenodd;"
d="M 23363,30235
23342,30241
23324,30252
23308,30272
23291,30303
23272,30346
23250,30404
23226,30469
23206,30527
23187,30579
23172,30621
23161,30651
23155,30666
23155,30667
23161,30671
23182,30673
23202,30674
23232,30673
23249,30668
23258,30656
23263,30644
23274,30614
23500,30614
23507,30644
23512,30662
23522,30671
23542,30674
23563,30674
23592,30673
23606,30670
23608,30661
23606,30653
23590,30603
23570,30546
23566,30534
23469,30534
23384,30534
23343,30534
23319,30532
23307,30528
23305,30522
23306,30517
23313,30500
23324,30469
23338,30431
23343,30414
23358,30375
23370,30344
23379,30325
23381,30321
23387,30327
23398,30348
23413,30381
23429,30424
23429,30424
23469,30534
23566,30534
23548,30486
23526,30427
23504,30372
23485,30324
23469,30286
23457,30263
23454,30257
23433,30241
23405,30235
23388,30234
23363,30235
Z" /> 
<path style="fill:#000000; fill-opacity:1.0; 
stroke:#000000; stroke-width:3.93701; stroke-opacity:1; 
stroke-linecap:round; stroke-linejoin:round;fill-rule:evenodd;"
d="M 23632,30314
23732,30314
23732,30674
23822,30674
23822,30314
23932,30314
23932,30234
23632,30234
23632,30314
Z" /> 
<path style="fill:#000000; fill-opacity:1.0; 
stroke:#000000; stroke-width:3.93701; stroke-opacity:1; 
stroke-linecap:round; stroke-linejoin:round;fill-rule:evenodd;"
d="M 23032,30299
23031,30332
23030,30356
23028,30364
23018,30360
22994,30348
22958,30330
22914,30307
22888,30293
22833,30265
22794,30246
22767,30237
22751,30236
22744,30245
22742,30263
22743,30289
22743,30289
22747,30327
22890,30392
23034,30458
22985,30480
22955,30493
22913,30513
22867,30534
22839,30547
22742,30593
22742,30638
22743,30665
22747,30681
22749,30684
22760,30679
22786,30667
22822,30649
22866,30627
22882,30619
22928,30596
22968,30576
22999,30562
23017,30555
23019,30555
23027,30562
23031,30587
23032,30614
23032,30674
23132,30674
23132,30234
23032,30234
23032,30299
Z" /> 
<path style="fill:#000000; fill-opacity:1.0; 
stroke:#000000; stroke-width:3.93701; stroke-opacity:1; 
stroke-linecap:round; stroke-linejoin:round;fill-rule:evenodd;"
d="M 24075,30277
24034,30287
24005,30307
23987,30338
23976,30384
23972,30446
23972,30474
23972,30584
24072,30584
24118,30584
24149,30582
24170,30578
24184,30571
24197,30560
24197,30560
24216,30527
24223,30487
24222,30479
24142,30479
24133,30504
24108,30520
24079,30524
24061,30522
24053,30511
24052,30489
24055,30463
24067,30449
24077,30444
24107,30440
24130,30451
24141,30474
24142,30479
24222,30479
24218,30446
24201,30413
24197,30409
24180,30394
24159,30387
24128,30384
24111,30384
24078,30383
24060,30380
24053,30374
24054,30367
24067,30346
24094,30333
24130,30328
24170,30332
24210,30344
24229,30354
24259,30383
24281,30425
24291,30474
24291,30524
24278,30569
24269,30585
24231,30624
24182,30649
24125,30658
24063,30653
23999,30631
23971,30617
23963,30622
23954,30639
23948,30655
23952,30667
23968,30681
23983,30691
24006,30705
24030,30713
24059,30718
24102,30720
24110,30721
24155,30720
24196,30718
24226,30713
24232,30712
24258,30698
24289,30675
24313,30653
24354,30601
24375,30543
24379,30478
24372,30438
24350,30378
24313,30331
24262,30298
24196,30279
24129,30274
24075,30277
Z" /> 
</g>
<g style="fill:#000000; fill-opacity:1.0; 
stroke:#000000; stroke-width:47.2441; stroke-opacity:1; 
stroke-linecap:round; stroke-linejoin:round;">
</g>
<g style="fill:#000000; fill-opacity:0.0; 
stroke:#000000; stroke-width:47.2441; stroke-opacity:1; 
stroke-linecap:round; stroke-linejoin:round;">
<path d="M20468 43774
L20468 43646
" />
<path d="M20870 43774
L20870 43646
" />
<path d="M17362 46830
L18070 46830
" />
<path d="M18070 46830
L18070 46496
" />
<path d="M17362 43720
L18051 43720
" />
<path d="M18051 43720
L18070 43720
" />
<path d="M18070 43720
L18070 44074
" />
<path d="M16515 46830
L16043 46830
" />
<path d="M18307 45787
L18385 45866
" />
<path d="M18385 45866
L18385 45708
" />
<path d="M18385 45708
L18307 45787
" />
<path d="M16515 43720
L16043 43720
" />
<path d="M18070 46496
L18405 46496
" />
<path d="M18405 46496
L18405 45944
" />
<path d="M18070 44074
L18405 44074
" />
<path d="M18405 44074
L18405 44606
" />
<path d="M25771 42704
L25771 43070
" />
<path d="M25771 43948
L25771 43582
" />
<path d="M25771 43948
L24921 43948
" />
<path d="M25771 42704
L25196 42704
" />
<path d="M25880 35200
L26008 35200
" />
<path d="M25880 34799
L26008 34799
" />
<path d="M21500 39559
L21653 39712
" />
<path d="M21653 39712
L21806 39559
" />
<path d="M23811 37248
L23964 37401
" />
<path d="M23964 37401
L23811 37554
" />
<path d="M21806 35244
L21653 35090
" />
<path d="M21653 35090
L21500 35244
" />
<path d="M19496 37554
L19273 37331
" />
</g>
<g style="fill:#000000; fill-opacity:0.0; 
stroke:#000000; stroke-width:59.0551; stroke-opacity:1; 
stroke-linecap:round; stroke-linejoin:round;">
<path d="M20866 44990
L20866 45816
" />
<path d="M19586 44685
L19586 45816
" />
<path d="M19881 33622
L16732 33622
" />
<path d="M16732 31259
L19881 31259
" />
<path d="M16732 32440
L16732 31259
" />
<path d="M16732 33622
L16732 32440
" />
<path d="M19881 31259
L19881 33622
" />
<path d="M23858 38897
L23858 38307
" />
<path d="M24645 38897
L24645 38307
" />
<path d="M23946 35866
L23877 35797
" />
<path d="M24587 35226
L24517 35156
" />
<g >
</g>
<g >
</g>
<g >
</g>
<g >
</g>
<g >
</g>
<g >
</g>
<g >
</g>
<g >
</g>
<g >
</g>
<g >
</g>
<g >
</g>
<g >
</g>
<g >
</g>
<g >
</g>
<g >
</g>
<g >
</g>
<g >
</g>
<g >
</g>
<g >
</g>
<g >
</g>
<g >
</g>
<g >
</g>
<g >
</g>
<g >
</g>
<g >
</g>
<g >
</g>
<g >
</g>
<g >
</g>
<g >
</g>
<g >
</g>
<g >
</g>
<g >
</g>
<g >
</g>
<g >
</g>
<g >
</g>
<g >
</g>
<g >
</g>
<g >
</g>
<g >
</g>
<g >
</g>
<g >
</g>
<g >
</g>
<g >
</g>
<g >
</g>
<g >
</g>
<g >
</g>
<g >
</g>
<g >
</g>
<g >
</g>
<g >
</g>
<g >
</g>
<g >
</g>
<g >
</g>
<g >
</g>
<g >
</g>
<g >
</g>
<g >
</g>
<g >
</g>
<g >
</g>
<g >
</g>
<g >
</g>
<g >
</g>
<g >
</g>
<g >
</g>
<g >
</g>
<g >
</g>
<g >
</g>
<g >
</g>
<g >
</g>
<g >
</g>
<g >
</g>
<g >
</g>
<g >
</g>
<g >
</g>
<g >
</g>
<g >
</g>
<g >
</g>
<g >
</g>
<g >
</g>
<g >
</g>
<g >
</g>
<g >
</g>
<g >
</g>
</g>
<g style="fill:#000000; fill-opacity:0.0; 
stroke:#000000; stroke-width:59.0551; stroke-opacity:1; 
stroke-linecap:round; stroke-linejoin:round;">
<path d="M22862 40682
L22888 40682
L22941 40656
L22968 40629
L22994 40576
L22994 40523
L22981 40484
L22941 40417
L22902 40378
L22835 40338
L22796 40325
L22743 40325
L22690 40351
L22663 40378
L22636 40431
L22636 40457
" />
<path d="M22756 40842
L22703 40895
L22663 40908
L22636 40908
L22570 40895
L22504 40855
L22398 40749
L22385 40709
L22385 40682
L22398 40643
L22451 40590
L22491 40576
L22517 40576
L22557 40590
L22623 40656
L22636 40696
L22636 40722
L22623 40762
L22570 40815
L22530 40828
L22504 40828
L22464 40815
" />
<path d="M22508 40328
L22534 40328
L22587 40302
L22614 40275
L22640 40222
L22640 40169
L22627 40129
L22587 40063
L22547 40023
L22481 39983
L22441 39970
L22388 39970
L22335 39997
L22309 40023
L22282 40076
L22282 40103
" />
<path d="M22216 40355
L22229 40315
L22229 40288
L22216 40249
L22203 40235
L22163 40222
L22136 40222
L22097 40235
L22044 40288
L22030 40328
L22030 40355
L22044 40394
L22057 40408
L22097 40421
L22123 40421
L22163 40408
L22216 40355
L22256 40341
L22282 40341
L22322 40355
L22375 40408
L22388 40447
L22388 40474
L22375 40514
L22322 40567
L22282 40580
L22256 40580
L22216 40567
L22163 40514
L22150 40474
L22150 40447
L22163 40408
" />
<path d="M22207 33463
L22234 33463
L22287 33437
L22313 33410
L22340 33357
L22340 33304
L22326 33264
L22287 33198
L22247 33158
L22181 33119
L22141 33105
L22088 33105
L22035 33132
L22008 33158
L21982 33211
L21982 33238
" />
<path d="M21968 33755
L22127 33596
" />
<path d="M22048 33675
L21770 33397
L21836 33410
L21889 33410
L21929 33397
" />
<path d="M21518 33649
L21491 33675
L21478 33715
L21478 33742
L21491 33781
L21531 33848
L21597 33914
L21664 33954
L21703 33967
L21730 33967
L21770 33954
L21796 33927
L21809 33887
L21809 33861
L21796 33821
L21756 33755
L21690 33689
L21624 33649
L21584 33636
L21557 33636
L21518 33649
" />
<path d="M22561 33818
L22588 33818
L22641 33791
L22667 33765
L22694 33712
L22694 33659
L22681 33619
L22641 33552
L22601 33513
L22535 33473
L22495 33460
L22442 33460
L22389 33486
L22363 33513
L22336 33566
L22336 33592
" />
<path d="M22323 34109
L22482 33950
" />
<path d="M22402 34030
L22124 33751
L22190 33765
L22243 33765
L22283 33751
" />
<path d="M22058 34374
L22217 34215
" />
<path d="M22137 34295
L21859 34016
L21925 34030
L21978 34030
L22018 34016
" />
<path d="M21092 40613
L21092 40640
L21118 40693
L21145 40719
L21198 40746
L21251 40746
L21291 40733
L21357 40693
L21397 40653
L21437 40587
L21450 40547
L21450 40494
L21423 40441
L21397 40415
L21344 40388
L21317 40388
" />
<path d="M20800 40375
L20959 40534
" />
<path d="M20880 40454
L21158 40176
L21145 40242
L21145 40295
L21158 40335
" />
<path d="M20946 40017
L20946 39990
L20933 39951
L20867 39884
L20827 39871
L20800 39871
L20760 39884
L20734 39911
L20707 39964
L20707 40282
L20535 40110
" />
<path d="M26001 37542
L26019 37560
L26076 37579
L26113 37579
L26169 37560
L26207 37523
L26226 37485
L26244 37410
L26244 37354
L26226 37279
L26207 37242
L26169 37204
L26113 37185
L26076 37185
L26019 37204
L26001 37223
" />
<path d="M25626 37579
L25851 37579
" />
<path d="M25738 37579
L25738 37185
L25776 37242
L25813 37279
L25851 37298
" />
<path d="M25494 37185
L25251 37185
L25382 37335
L25326 37335
L25288 37354
L25269 37373
L25251 37410
L25251 37504
L25269 37542
L25288 37560
L25326 37579
L25438 37579
L25476 37560
L25494 37542
" />
<path d="M20101 40061
L20119 40043
L20138 39986
L20138 39949
L20119 39893
L20082 39855
L20044 39836
L19970 39818
L19913 39818
L19838 39836
L19801 39855
L19763 39893
L19745 39949
L19745 39986
L19763 40043
L19782 40061
" />
<path d="M20138 40436
L20138 40211
" />
<path d="M20138 40324
L19745 40324
L19801 40286
L19838 40249
L19857 40211
" />
<path d="M19876 40774
L20138 40774
" />
<path d="M19726 40680
L20007 40586
L20007 40830
" />
<path d="M18487 37542
L18505 37523
L18524 37467
L18524 37429
L18505 37373
L18468 37335
L18430 37317
L18355 37298
L18299 37298
L18224 37317
L18187 37335
L18149 37373
L18130 37429
L18130 37467
L18149 37523
L18168 37542
" />
<path d="M18524 37917
L18524 37692
" />
<path d="M18524 37804
L18130 37804
L18187 37767
L18224 37729
L18243 37692
" />
<path d="M18130 38273
L18130 38085
L18318 38067
L18299 38085
L18280 38123
L18280 38217
L18299 38254
L18318 38273
L18355 38292
L18449 38292
L18487 38273
L18505 38254
L18524 38217
L18524 38123
L18505 38085
L18487 38067
" />
<path d="M23703 33778
L23730 33778
L23783 33752
L23809 33725
L23836 33672
L23836 33619
L23822 33579
L23783 33513
L23743 33473
L23677 33434
L23637 33420
L23584 33420
L23531 33447
L23504 33473
L23478 33526
L23478 33553
" />
<path d="M23464 34070
L23624 33911
" />
<path d="M23544 33990
L23266 33712
L23332 33725
L23385 33725
L23425 33712
" />
<path d="M22947 34030
L23000 33977
L23040 33964
L23067 33964
L23133 33977
L23199 34017
L23305 34123
L23319 34163
L23319 34189
L23305 34229
L23252 34282
L23213 34295
L23186 34295
L23146 34282
L23080 34216
L23067 34176
L23067 34149
L23080 34110
L23133 34057
L23173 34043
L23199 34043
L23239 34057
" />
<path d="M24252 40278
L24252 40304
L24279 40357
L24305 40384
L24358 40410
L24411 40410
L24451 40397
L24517 40357
L24557 40318
L24597 40251
L24610 40212
L24610 40159
L24584 40106
L24557 40079
L24504 40053
L24478 40053
" />
<path d="M23961 40039
L24120 40198
" />
<path d="M24040 40119
L24319 39840
L24305 39907
L24305 39960
L24319 40000
" />
<path d="M24146 39668
L23961 39482
L23802 39880
" />
<path d="M23939 34251
L23966 34251
L24019 34224
L24045 34198
L24072 34145
L24072 34092
L24059 34052
L24019 33986
L23979 33946
L23913 33906
L23873 33893
L23820 33893
L23767 33919
L23740 33946
L23714 33999
L23714 34025
" />
<path d="M23701 34542
L23860 34383
" />
<path d="M23780 34463
L23502 34184
L23568 34198
L23621 34198
L23661 34184
" />
<path d="M23383 34542
L23396 34503
L23396 34476
L23383 34436
L23369 34423
L23330 34410
L23303 34410
L23263 34423
L23210 34476
L23197 34516
L23197 34542
L23210 34582
L23223 34595
L23263 34609
L23290 34609
L23330 34595
L23383 34542
L23422 34529
L23449 34529
L23489 34542
L23542 34595
L23555 34635
L23555 34662
L23542 34701
L23489 34754
L23449 34768
L23422 34768
L23383 34754
L23330 34701
L23316 34662
L23316 34635
L23330 34595
" />
<path d="M25061 39668
L25080 39649
L25099 39593
L25099 39555
L25080 39499
L25043 39461
L25005 39443
L24930 39424
L24874 39424
L24799 39443
L24761 39461
L24724 39499
L24705 39555
L24705 39593
L24724 39649
L24743 39668
" />
<path d="M25099 40043
L25099 39818
" />
<path d="M25099 39930
L24705 39930
L24761 39893
L24799 39855
L24818 39818
" />
<path d="M25099 40230
L25099 40305
L25080 40343
L25061 40361
L25005 40399
L24930 40418
L24780 40418
L24743 40399
L24724 40380
L24705 40343
L24705 40268
L24724 40230
L24743 40211
L24780 40193
L24874 40193
L24911 40211
L24930 40230
L24949 40268
L24949 40343
L24930 40380
L24911 40399
L24874 40418
" />
<path d="M25883 38290
L25901 38308
L25958 38327
L25995 38327
L26051 38308
L26089 38271
L26107 38233
L26126 38158
L26126 38102
L26107 38027
L26089 37990
L26051 37952
L25995 37934
L25958 37934
L25901 37952
L25883 37971
" />
<path d="M25733 37971
L25714 37952
L25676 37934
L25583 37934
L25545 37952
L25526 37971
L25508 38008
L25508 38046
L25526 38102
L25751 38327
L25508 38327
" />
<path d="M25264 37934
L25226 37934
L25189 37952
L25170 37971
L25151 38008
L25133 38083
L25133 38177
L25151 38252
L25170 38290
L25189 38308
L25226 38327
L25264 38327
L25301 38308
L25320 38290
L25339 38252
L25358 38177
L25358 38083
L25339 38008
L25320 37971
L25301 37952
L25264 37934
" />
<path d="M24805 36574
L24832 36574
L24885 36547
L24912 36520
L24938 36467
L24938 36414
L24925 36375
L24885 36308
L24845 36269
L24779 36229
L24739 36216
L24686 36216
L24633 36242
L24607 36269
L24580 36322
L24580 36348
" />
<path d="M24474 36454
L24448 36454
L24408 36467
L24341 36534
L24328 36574
L24328 36600
L24341 36640
L24368 36666
L24421 36693
L24739 36693
L24567 36865
" />
<path d="M24302 37130
L24461 36971
" />
<path d="M24381 37051
L24103 36772
L24169 36786
L24222 36786
L24262 36772
" />
<path d="M20298 42305
L20316 42287
L20335 42230
L20335 42193
L20316 42137
L20279 42099
L20241 42080
L20166 42062
L20110 42062
L20035 42080
L19998 42099
L19960 42137
L19941 42193
L19941 42230
L19960 42287
L19979 42305
" />
<path d="M19979 42455
L19960 42474
L19941 42512
L19941 42605
L19960 42643
L19979 42662
L20016 42680
L20054 42680
L20110 42662
L20335 42437
L20335 42680
" />
<path d="M19979 42830
L19960 42849
L19941 42887
L19941 42980
L19960 43018
L19979 43037
L20016 43055
L20054 43055
L20110 43037
L20335 42812
L20335 43055
" />
<path d="M24766 34172
L24793 34172
L24846 34145
L24872 34119
L24899 34066
L24899 34013
L24885 33973
L24846 33907
L24806 33867
L24740 33827
L24700 33814
L24647 33814
L24594 33841
L24567 33867
L24541 33920
L24541 33947
" />
<path d="M24435 34053
L24408 34053
L24368 34066
L24302 34132
L24289 34172
L24289 34198
L24302 34238
L24329 34265
L24382 34291
L24700 34291
L24527 34464
" />
<path d="M24156 34278
L23984 34450
L24183 34464
L24143 34503
L24130 34543
L24130 34570
L24143 34609
L24209 34676
L24249 34689
L24276 34689
L24315 34676
L24395 34596
L24408 34556
L24408 34530
" />
<path d="M20809 42305
L20828 42287
L20847 42230
L20847 42193
L20828 42137
L20791 42099
L20753 42080
L20678 42062
L20622 42062
L20547 42080
L20509 42099
L20472 42137
L20453 42193
L20453 42230
L20472 42287
L20491 42305
" />
<path d="M20491 42455
L20472 42474
L20453 42512
L20453 42605
L20472 42643
L20491 42662
L20528 42680
L20566 42680
L20622 42662
L20847 42437
L20847 42680
" />
<path d="M20584 43018
L20847 43018
" />
<path d="M20434 42924
L20716 42830
L20716 43074
" />
<path d="M21321 42305
L21340 42287
L21359 42230
L21359 42193
L21340 42137
L21302 42099
L21265 42080
L21190 42062
L21134 42062
L21059 42080
L21021 42099
L20984 42137
L20965 42193
L20965 42230
L20984 42287
L21002 42305
" />
<path d="M21002 42455
L20984 42474
L20965 42512
L20965 42605
L20984 42643
L21002 42662
L21040 42680
L21077 42680
L21134 42662
L21359 42437
L21359 42680
" />
<path d="M20965 43037
L20965 42849
L21152 42830
L21134 42849
L21115 42887
L21115 42980
L21134 43018
L21152 43037
L21190 43055
L21284 43055
L21321 43037
L21340 43018
L21359 42980
L21359 42887
L21340 42849
L21321 42830
" />
<path d="M21833 42305
L21852 42287
L21871 42230
L21871 42193
L21852 42137
L21814 42099
L21777 42080
L21702 42062
L21646 42062
L21571 42080
L21533 42099
L21496 42137
L21477 42193
L21477 42230
L21496 42287
L21514 42305
" />
<path d="M21514 42455
L21496 42474
L21477 42512
L21477 42605
L21496 42643
L21514 42662
L21552 42680
L21589 42680
L21646 42662
L21871 42437
L21871 42680
" />
<path d="M21477 43018
L21477 42943
L21496 42905
L21514 42887
L21571 42849
L21646 42830
L21796 42830
L21833 42849
L21852 42868
L21871 42905
L21871 42980
L21852 43018
L21833 43037
L21796 43055
L21702 43055
L21664 43037
L21646 43018
L21627 42980
L21627 42905
L21646 42868
L21664 42849
L21702 42830
" />
<path d="M16203 29865
L16222 29846
L16241 29790
L16241 29752
L16222 29696
L16184 29658
L16147 29640
L16072 29621
L16016 29621
L15941 29640
L15903 29658
L15866 29696
L15847 29752
L15847 29790
L15866 29846
L15884 29865
" />
<path d="M15884 30014
L15866 30033
L15847 30071
L15847 30164
L15866 30202
L15884 30221
L15922 30239
L15959 30239
L16016 30221
L16241 29996
L16241 30239
" />
<path d="M15847 30371
L15847 30633
L16241 30464
" />
<path d="M18170 46876
L18451 46876
L18507 46857
L18545 46820
L18563 46764
L18563 46726
" />
<path d="M18207 47045
L18188 47064
L18170 47101
L18170 47195
L18188 47232
L18207 47251
L18245 47270
L18282 47270
L18338 47251
L18563 47026
L18563 47270
" />
<path d="M25509 44526
L25547 44507
L25584 44470
L25641 44414
L25678 44395
L25716 44395
" />
<path d="M25697 44489
L25734 44470
L25772 44432
L25791 44357
L25791 44226
L25772 44151
L25734 44114
L25697 44095
L25622 44095
L25584 44114
L25547 44151
L25528 44226
L25528 44357
L25547 44432
L25584 44470
L25622 44489
L25697 44489
" />
<path d="M25153 44489
L25378 44489
" />
<path d="M25266 44489
L25266 44095
L25303 44151
L25341 44189
L25378 44207
" />
<path d="M27034 35638
L27165 35451
" />
<path d="M27259 35638
L27259 35245
L27109 35245
L27071 35263
L27052 35282
L27034 35320
L27034 35376
L27052 35413
L27071 35432
L27109 35451
L27259 35451
" />
<path d="M26902 35245
L26659 35245
L26790 35395
L26734 35395
L26696 35413
L26677 35432
L26659 35470
L26659 35563
L26677 35601
L26696 35619
L26734 35638
L26846 35638
L26884 35619
L26902 35601
" />
<path d="M19344 34438
L19569 34398
" />
<path d="M19503 34597
L19781 34319
L19675 34213
L19636 34200
L19609 34200
L19569 34213
L19529 34253
L19516 34292
L19516 34319
L19529 34359
L19636 34465
" />
<path d="M19079 34173
L19238 34332
" />
<path d="M19158 34253
L19437 33974
L19423 34041
L19423 34094
L19437 34133
" />
<path d="M19264 33802
L19092 33630
L19079 33828
L19039 33789
L18999 33775
L18973 33775
L18933 33789
L18867 33855
L18853 33895
L18853 33921
L18867 33961
L18946 34041
L18986 34054
L19012 34054
" />
<path d="M18990 34793
L19215 34753
" />
<path d="M19149 34952
L19427 34673
L19321 34567
L19281 34554
L19255 34554
L19215 34567
L19175 34607
L19162 34647
L19162 34673
L19175 34713
L19281 34819
" />
<path d="M18724 34527
L18883 34687
" />
<path d="M18804 34607
L19082 34329
L19069 34395
L19069 34448
L19082 34488
" />
<path d="M18671 34103
L18486 34289
" />
<path d="M18844 34063
L18711 34329
L18539 34156
" />
<path d="M18635 35147
L18861 35107
" />
<path d="M18794 35306
L19073 35028
L18967 34922
L18927 34908
L18900 34908
L18861 34922
L18821 34961
L18808 35001
L18808 35028
L18821 35067
L18927 35173
" />
<path d="M18370 34882
L18529 35041
" />
<path d="M18450 34961
L18728 34683
L18715 34749
L18715 34802
L18728 34842
" />
<path d="M18397 34352
L18529 34484
L18410 34630
L18410 34603
L18397 34564
L18330 34497
L18291 34484
L18264 34484
L18224 34497
L18158 34564
L18145 34603
L18145 34630
L18158 34670
L18224 34736
L18264 34749
L18291 34749
" />
<path d="M20486 34123
L20711 34084
" />
<path d="M20645 34282
L20923 34004
L20817 33898
L20777 33885
L20751 33885
L20711 33898
L20671 33938
L20658 33977
L20658 34004
L20671 34044
L20777 34150
" />
<path d="M20220 33858
L20380 34017
" />
<path d="M20300 33938
L20578 33659
L20565 33726
L20565 33779
L20578 33818
" />
<path d="M20260 33341
L20313 33394
L20327 33434
L20327 33460
L20313 33527
L20273 33593
L20167 33699
L20128 33712
L20101 33712
L20061 33699
L20008 33646
L19995 33606
L19995 33580
L20008 33540
L20075 33474
L20114 33460
L20141 33460
L20181 33474
L20234 33527
L20247 33567
L20247 33593
L20234 33633
" />
<path d="M19268 44981
L19400 44793
" />
<path d="M19493 44981
L19493 44587
L19343 44587
L19306 44606
L19287 44625
L19268 44662
L19268 44718
L19287 44756
L19306 44775
L19343 44793
L19493 44793
" />
<path d="M18893 44981
L19118 44981
" />
<path d="M19006 44981
L19006 44587
L19043 44643
L19081 44681
L19118 44700
" />
<path d="M18762 44587
L18500 44587
L18668 44981
" />
<path d="M19268 46241
L19400 46053
" />
<path d="M19493 46241
L19493 45847
L19343 45847
L19306 45866
L19287 45884
L19268 45922
L19268 45978
L19287 46016
L19306 46034
L19343 46053
L19493 46053
" />
<path d="M18893 46241
L19118 46241
" />
<path d="M19006 46241
L19006 45847
L19043 45903
L19081 45941
L19118 45959
" />
<path d="M18668 46016
L18706 45997
L18725 45978
L18743 45941
L18743 45922
L18725 45884
L18706 45866
L18668 45847
L18593 45847
L18556 45866
L18537 45884
L18518 45922
L18518 45941
L18537 45978
L18556 45997
L18593 46016
L18668 46016
L18706 46034
L18725 46053
L18743 46091
L18743 46166
L18725 46203
L18706 46222
L18668 46241
L18593 46241
L18556 46222
L18537 46203
L18518 46166
L18518 46091
L18537 46053
L18556 46034
L18593 46016
" />
<path d="M16241 32699
L16053 32568
" />
<path d="M16241 32474
L15847 32474
L15847 32624
L15866 32662
L15884 32680
L15922 32699
L15978 32699
L16016 32680
L16034 32662
L16053 32624
L16053 32474
" />
<path d="M16241 33074
L16241 32849
" />
<path d="M16241 32962
L15847 32962
L15903 32924
L15941 32887
L15959 32849
" />
<path d="M16241 33262
L16241 33337
L16222 33374
L16203 33393
L16147 33430
L16072 33449
L15922 33449
L15884 33430
L15866 33412
L15847 33374
L15847 33299
L15866 33262
L15884 33243
L15922 33224
L16016 33224
L16053 33243
L16072 33262
L16091 33299
L16091 33374
L16072 33412
L16053 33430
L16016 33449
" />
<path d="M20611 31715
L20423 31584
" />
<path d="M20611 31490
L20217 31490
L20217 31640
L20236 31677
L20254 31696
L20292 31715
L20348 31715
L20386 31696
L20404 31677
L20423 31640
L20423 31490
" />
<path d="M20254 31865
L20236 31884
L20217 31921
L20217 32015
L20236 32052
L20254 32071
L20292 32090
L20329 32090
L20386 32071
L20611 31846
L20611 32090
" />
<path d="M20217 32334
L20217 32371
L20236 32409
L20254 32427
L20292 32446
L20367 32465
L20461 32465
L20536 32446
L20573 32427
L20592 32409
L20611 32371
L20611 32334
L20592 32296
L20573 32277
L20536 32259
L20461 32240
L20367 32240
L20292 32259
L20254 32277
L20236 32296
L20217 32334
" />
<path d="M22772 32658
L22904 32470
" />
<path d="M22997 32658
L22997 32264
L22847 32264
L22810 32283
L22791 32302
L22772 32339
L22772 32395
L22791 32433
L22810 32452
L22847 32470
L22997 32470
" />
<path d="M22641 32264
L22397 32264
L22529 32414
L22472 32414
L22435 32433
L22416 32452
L22397 32489
L22397 32583
L22416 32620
L22435 32639
L22472 32658
L22585 32658
L22622 32639
L22641 32620
" />
<path d="M22154 32264
L22116 32264
L22079 32283
L22060 32302
L22041 32339
L22022 32414
L22022 32508
L22041 32583
L22060 32620
L22079 32639
L22116 32658
L22154 32658
L22191 32639
L22210 32620
L22229 32583
L22247 32508
L22247 32414
L22229 32339
L22210 32302
L22191 32283
L22154 32264
" />
<path d="M21083 31715
L20896 31584
" />
<path d="M21083 31490
L20689 31490
L20689 31640
L20708 31677
L20727 31696
L20764 31715
L20821 31715
L20858 31696
L20877 31677
L20896 31640
L20896 31490
" />
<path d="M20689 31846
L20689 32090
L20839 31959
L20839 32015
L20858 32052
L20877 32071
L20914 32090
L21008 32090
L21046 32071
L21064 32052
L21083 32015
L21083 31902
L21064 31865
L21046 31846
" />
<path d="M21083 32465
L21083 32240
" />
<path d="M21083 32352
L20689 32352
L20746 32315
L20783 32277
L20802 32240
" />
<path d="M22615 44272
L22746 44085
" />
<path d="M22840 44272
L22840 43878
L22690 43878
L22652 43897
L22634 43916
L22615 43953
L22615 44010
L22634 44047
L22652 44066
L22690 44085
L22840 44085
" />
<path d="M22484 43878
L22240 43878
L22371 44028
L22315 44028
L22277 44047
L22259 44066
L22240 44103
L22240 44197
L22259 44235
L22277 44253
L22315 44272
L22427 44272
L22465 44253
L22484 44235
" />
<path d="M22090 43916
L22071 43897
L22034 43878
L21940 43878
L21902 43897
L21884 43916
L21865 43953
L21865 43991
L21884 44047
L22109 44272
L21865 44272
" />
<path d="M24272 43073
L24085 42942
" />
<path d="M24272 42848
L23878 42848
L23878 42998
L23897 43036
L23916 43054
L23953 43073
L24010 43073
L24047 43054
L24066 43036
L24085 42998
L24085 42848
" />
<path d="M23878 43204
L23878 43448
L24028 43317
L24028 43373
L24047 43411
L24066 43429
L24103 43448
L24197 43448
L24235 43429
L24253 43411
L24272 43373
L24272 43261
L24253 43223
L24235 43204
" />
<path d="M23878 43579
L23878 43823
L24028 43692
L24028 43748
L24047 43786
L24066 43804
L24103 43823
L24197 43823
L24235 43804
L24253 43786
L24272 43748
L24272 43636
L24253 43598
L24235 43579
" />
<path d="M26451 35347
L26226 35347
" />
<path d="M26338 35741
L26338 35347
" />
<path d="M26094 35741
L26094 35347
" />
<path d="M26094 35534
L25869 35534
" />
<path d="M25869 35741
L25869 35347
" />
<path d="M25476 35741
L25701 35741
" />
<path d="M25588 35741
L25588 35347
L25626 35403
L25663 35441
L25701 35459
" />
<path d="M20246 38602
L20021 38828
L19981 38841
L19954 38841
L19915 38828
L19862 38775
L19848 38735
L19848 38709
L19862 38669
L20087 38443
" />
<path d="M19822 38178
L19954 38311
L19835 38457
L19835 38430
L19822 38390
L19755 38324
L19716 38311
L19689 38311
L19649 38324
L19583 38390
L19570 38430
L19570 38457
L19583 38496
L19649 38563
L19689 38576
L19716 38576
" />
<path d="M21004 45093
L21323 45093
L21361 45112
L21379 45131
L21398 45168
L21398 45243
L21379 45281
L21361 45299
L21323 45318
L21004 45318
" />
<path d="M21004 45674
L21004 45599
L21023 45562
L21042 45543
L21098 45506
L21173 45487
L21323 45487
L21361 45506
L21379 45524
L21398 45562
L21398 45637
L21379 45674
L21361 45693
L21323 45712
L21229 45712
L21192 45693
L21173 45674
L21154 45637
L21154 45562
L21173 45524
L21192 45506
L21229 45487
" />
<path d="M18607 30768
L18607 31087
L18588 31124
L18569 31143
L18532 31162
L18457 31162
L18419 31143
L18400 31124
L18382 31087
L18382 30768
" />
<path d="M18138 30937
L18175 30918
L18194 30899
L18213 30862
L18213 30843
L18194 30806
L18175 30787
L18138 30768
L18063 30768
L18025 30787
L18007 30806
L17988 30843
L17988 30862
L18007 30899
L18025 30918
L18063 30937
L18138 30937
L18175 30956
L18194 30974
L18213 31012
L18213 31087
L18194 31124
L18175 31143
L18138 31162
L18063 31162
L18025 31143
L18007 31124
L17988 31087
L17988 31012
L18007 30974
L18025 30956
L18063 30937
" />
<path d="M23573 38395
L23760 38395
" />
<path d="M23367 38263
L23573 38395
L23367 38526
" />
<path d="M23760 38863
L23760 38638
" />
<path d="M23760 38751
L23367 38751
L23423 38713
L23460 38676
L23479 38638
" />
<path d="M23800 36208
L23668 36341
" />
<path d="M24039 36155
L23800 36208
L23853 35969
" />
<path d="M23747 35916
L23747 35890
L23734 35850
L23668 35784
L23628 35770
L23601 35770
L23562 35784
L23535 35810
L23509 35863
L23509 36181
L23336 36009
" />
<g >
</g>
</g> 
</svg>
