<?xml version="1.0" standalone="no"?>
 <!DOCTYPE svg PUBLIC "-//W3C//DTD SVG 1.1//EN" 
 "http://www.w3.org/Graphics/SVG/1.1/DTD/svg11.dtd"> 
<svg xmlns="http://www.w3.org/2000/svg" version="1.1" 
    width="29.7002cm" height="21.0007cm" viewBox="0 0 116930 82680 ">
<title>SVG Picture created as RCT-X-Telemetry-F_SilkS.svg date 2019/09/20 18:38:45 </title>
  <desc>Picture generated by PCBNEW </desc>
<g style="fill:#000000; fill-opacity:1;stroke:#000000; stroke-opacity:1;
stroke-linecap:round; stroke-linejoin:round; "
 transform="translate(0 0) scale(1 1)">
</g>
<g style="fill:#000000; fill-opacity:0.0; 
stroke:#000000; stroke-width:-0.000393701; stroke-opacity:1; 
stroke-linecap:round; stroke-linejoin:round;">
</g>
<g style="fill:#000000; fill-opacity:0.0; 
stroke:#000000; stroke-width:47.2441; stroke-opacity:1; 
stroke-linecap:round; stroke-linejoin:round;">
<path d="M19406 34347
L19601 34347
L19496 34467
L19541 34467
L19571 34482
L19586 34497
L19601 34527
L19601 34602
L19586 34632
L19571 34647
L19541 34662
L19451 34662
L19421 34647
L19406 34632
" />
<path d="M19826 34767
L19751 34767
L19751 34317
L19826 34317
" />
<path d="M19916 34347
L20111 34347
L20006 34467
L20051 34467
L20081 34482
L20096 34497
L20111 34527
L20111 34602
L20096 34632
L20081 34647
L20051 34662
L19961 34662
L19931 34647
L19916 34632
" />
<path d="M20216 34767
L20291 34767
L20291 34317
L20216 34317
" />
<path d="M20696 34632
L20711 34647
L20696 34662
L20681 34647
L20696 34632
L20696 34662
" />
<path d="M20696 34467
L20711 34482
L20696 34497
L20681 34482
L20696 34467
L20696 34497
" />
<path d="M21041 34347
L21221 34347
" />
<path d="M21131 34662
L21131 34347
" />
<path d="M21326 34662
L21326 34347
" />
<path d="M21461 34662
L21461 34497
L21446 34467
L21416 34452
L21371 34452
L21341 34467
L21326 34482
" />
<path d="M21731 34647
L21701 34662
L21641 34662
L21611 34647
L21596 34617
L21596 34497
L21611 34467
L21641 34452
L21701 34452
L21731 34467
L21746 34497
L21746 34527
L21596 34557
" />
<path d="M21881 34662
L21881 34452
" />
<path d="M21881 34512
L21896 34482
L21911 34467
L21941 34452
L21971 34452
" />
<path d="M22076 34662
L22076 34452
" />
<path d="M22076 34482
L22091 34467
L22121 34452
L22166 34452
L22196 34467
L22211 34497
L22211 34662
" />
<path d="M22211 34497
L22226 34467
L22256 34452
L22301 34452
L22331 34467
L22346 34497
L22346 34662
" />
<path d="M22496 34662
L22496 34452
" />
<path d="M22496 34347
L22481 34362
L22496 34377
L22511 34362
L22496 34347
L22496 34377
" />
<path d="M22631 34647
L22661 34662
L22720 34662
L22750 34647
L22765 34617
L22765 34602
L22750 34572
L22720 34557
L22676 34557
L22646 34542
L22631 34512
L22631 34497
L22646 34467
L22676 34452
L22720 34452
L22750 34467
" />
<path d="M22855 34452
L22975 34452
" />
<path d="M22900 34347
L22900 34617
L22915 34647
L22945 34662
L22975 34662
" />
<path d="M23125 34662
L23095 34647
L23080 34632
L23065 34602
L23065 34512
L23080 34482
L23095 34467
L23125 34452
L23170 34452
L23200 34467
L23215 34482
L23230 34512
L23230 34602
L23215 34632
L23200 34647
L23170 34662
L23125 34662
" />
<path d="M23365 34662
L23365 34452
" />
<path d="M23365 34512
L23380 34482
L23395 34467
L23425 34452
L23455 34452
" />
<path d="M19406 34866
L19601 34866
L19496 34986
L19541 34986
L19571 35001
L19586 35016
L19601 35046
L19601 35121
L19586 35151
L19571 35166
L19541 35181
L19451 35181
L19421 35166
L19406 35151
" />
<path d="M19826 35286
L19751 35286
L19751 34836
L19826 34836
" />
<path d="M20081 34971
L20081 35181
" />
<path d="M20006 34851
L19931 35076
L20126 35076
" />
<path d="M20216 35286
L20291 35286
L20291 34836
L20216 34836
" />
<path d="M20696 35151
L20711 35166
L20696 35181
L20681 35166
L20696 35151
L20696 35181
" />
<path d="M20696 34986
L20711 35001
L20696 35016
L20681 35001
L20696 34986
L20696 35016
" />
<path d="M21236 35181
L21086 35181
L21086 34866
" />
<path d="M21341 35016
L21446 35016
" />
<path d="M21491 35181
L21341 35181
L21341 34866
L21491 34866
" />
<path d="M21626 35181
L21626 34866
L21701 34866
L21746 34881
L21776 34911
L21791 34941
L21806 35001
L21806 35046
L21791 35106
L21776 35136
L21746 35166
L21701 35181
L21626 35181
" />
<path d="M21941 35061
L22181 35061
" />
<path d="M22436 35016
L22481 35031
L22496 35046
L22511 35076
L22511 35121
L22496 35151
L22481 35166
L22451 35181
L22331 35181
L22331 34866
L22436 34866
L22466 34881
L22481 34896
L22496 34926
L22496 34956
L22481 34986
L22466 35001
L22436 35016
L22331 35016
" />
<path d="M22795 35181
L22646 35181
L22646 34866
" />
<path d="M22900 34866
L22900 35121
L22915 35151
L22930 35166
L22960 35181
L23020 35181
L23050 35166
L23065 35151
L23080 35121
L23080 34866
" />
<path d="M23230 35016
L23335 35016
" />
<path d="M23380 35181
L23230 35181
L23230 34866
L23380 34866
" />
<path d="M19406 35386
L19601 35386
L19496 35506
L19541 35506
L19571 35521
L19586 35536
L19601 35566
L19601 35641
L19586 35671
L19571 35686
L19541 35701
L19451 35701
L19421 35686
L19406 35671
" />
<path d="M19826 35806
L19751 35806
L19751 35356
L19826 35356
" />
<path d="M20096 35386
L19946 35386
L19931 35536
L19946 35521
L19976 35506
L20051 35506
L20081 35521
L20096 35536
L20111 35566
L20111 35641
L20096 35671
L20081 35686
L20051 35701
L19976 35701
L19946 35686
L19931 35671
" />
<path d="M20216 35806
L20291 35806
L20291 35356
L20216 35356
" />
<path d="M20696 35671
L20711 35686
L20696 35701
L20681 35686
L20696 35671
L20696 35701
" />
<path d="M20696 35506
L20711 35521
L20696 35536
L20681 35521
L20696 35506
L20696 35536
" />
<path d="M21236 35701
L21086 35701
L21086 35386
" />
<path d="M21341 35536
L21446 35536
" />
<path d="M21491 35701
L21341 35701
L21341 35386
L21491 35386
" />
<path d="M21626 35701
L21626 35386
L21701 35386
L21746 35401
L21776 35431
L21791 35461
L21806 35521
L21806 35566
L21791 35626
L21776 35656
L21746 35686
L21701 35701
L21626 35701
" />
<path d="M21941 35581
L22181 35581
" />
<path d="M22391 35386
L22451 35386
L22481 35401
L22511 35431
L22526 35491
L22526 35596
L22511 35656
L22481 35686
L22451 35701
L22391 35701
L22361 35686
L22331 35656
L22316 35596
L22316 35491
L22331 35431
L22361 35401
L22391 35386
" />
<path d="M22840 35701
L22735 35551
" />
<path d="M22661 35701
L22661 35386
L22780 35386
L22810 35401
L22825 35416
L22840 35446
L22840 35491
L22825 35521
L22810 35536
L22780 35551
L22661 35551
" />
<path d="M22960 35611
L23110 35611
" />
<path d="M22930 35701
L23035 35386
L23140 35701
" />
<path d="M23245 35701
L23245 35386
L23425 35701
L23425 35386
" />
<path d="M23740 35401
L23710 35386
L23665 35386
L23620 35401
L23590 35431
L23575 35461
L23560 35521
L23560 35566
L23575 35626
L23590 35656
L23620 35686
L23665 35701
L23695 35701
L23740 35686
L23755 35671
L23755 35566
L23695 35566
" />
<path d="M23890 35536
L23995 35536
" />
<path d="M24040 35701
L23890 35701
L23890 35386
L24040 35386
" />
<path d="M19854 48081
L19869 48066
L19899 48051
L19974 48051
L20004 48066
L20019 48081
L20034 48111
L20034 48141
L20019 48186
L19839 48366
L20034 48366
" />
<path d="M20259 48471
L20184 48471
L20184 48021
L20259 48021
" />
<path d="M20364 48081
L20379 48066
L20409 48051
L20484 48051
L20514 48066
L20529 48081
L20544 48111
L20544 48141
L20529 48186
L20349 48366
L20544 48366
" />
<path d="M20649 48471
L20724 48471
L20724 48021
L20649 48021
" />
<path d="M21129 48336
L21144 48351
L21129 48366
L21114 48351
L21129 48336
L21129 48366
" />
<path d="M21129 48171
L21144 48186
L21129 48201
L21114 48186
L21129 48171
L21129 48201
" />
<path d="M21624 48201
L21519 48201
" />
<path d="M21519 48366
L21519 48051
L21669 48051
" />
<path d="M21744 48051
L21924 48051
" />
<path d="M21834 48366
L21834 48051
" />
<path d="M22029 48366
L22029 48051
L22104 48051
L22149 48066
L22179 48096
L22194 48126
L22209 48186
L22209 48231
L22194 48291
L22179 48321
L22149 48351
L22104 48366
L22029 48366
" />
<path d="M22344 48366
L22344 48051
" />
<path d="M22494 48246
L22734 48246
" />
<path d="M22839 48051
L23019 48051
" />
<path d="M22929 48366
L22929 48051
" />
<path d="M23094 48051
L23304 48366
" />
<path d="M23304 48051
L23094 48366
" />
<path d="M23424 48366
L23424 48051
L23499 48051
L23544 48066
L23574 48096
L23589 48126
L23604 48186
L23604 48231
L23589 48291
L23574 48321
L23544 48351
L23499 48366
L23424 48366
" />
<path d="M19854 48601
L19869 48586
L19899 48571
L19974 48571
L20004 48586
L20019 48601
L20034 48631
L20034 48661
L20019 48706
L19839 48886
L20034 48886
" />
<path d="M20259 48991
L20184 48991
L20184 48541
L20259 48541
" />
<path d="M20349 48571
L20544 48571
L20439 48691
L20484 48691
L20514 48706
L20529 48721
L20544 48751
L20544 48826
L20529 48856
L20514 48871
L20484 48886
L20394 48886
L20364 48871
L20349 48856
" />
<path d="M20649 48991
L20724 48991
L20724 48541
L20649 48541
" />
<path d="M21129 48856
L21144 48871
L21129 48886
L21114 48871
L21129 48856
L21129 48886
" />
<path d="M21129 48691
L21144 48706
L21129 48721
L21114 48706
L21129 48691
L21129 48721
" />
<path d="M21624 48721
L21519 48721
" />
<path d="M21519 48886
L21519 48571
L21669 48571
" />
<path d="M21744 48571
L21924 48571
" />
<path d="M21834 48886
L21834 48571
" />
<path d="M22029 48886
L22029 48571
L22104 48571
L22149 48586
L22179 48616
L22194 48646
L22209 48706
L22209 48751
L22194 48811
L22179 48841
L22149 48871
L22104 48886
L22029 48886
" />
<path d="M22344 48886
L22344 48571
" />
<path d="M22494 48766
L22734 48766
" />
<path d="M23064 48886
L22959 48736
" />
<path d="M22884 48886
L22884 48571
L23004 48571
L23034 48586
L23049 48601
L23064 48631
L23064 48676
L23049 48706
L23034 48721
L23004 48736
L22884 48736
" />
<path d="M23169 48571
L23379 48886
" />
<path d="M23379 48571
L23169 48886
" />
<path d="M23499 48886
L23499 48571
L23574 48571
L23619 48586
L23649 48616
L23664 48646
L23679 48706
L23679 48751
L23664 48811
L23649 48841
L23619 48871
L23574 48886
L23499 48886
" />
<path d="M19844 23855
L19859 23840
L19889 23825
L19964 23825
L19994 23840
L20009 23855
L20024 23885
L20024 23915
L20009 23960
L19829 24140
L20024 24140
" />
<path d="M20249 24245
L20174 24245
L20174 23795
L20249 23795
" />
<path d="M20519 23825
L20369 23825
L20354 23975
L20369 23960
L20399 23945
L20474 23945
L20504 23960
L20519 23975
L20534 24005
L20534 24080
L20519 24110
L20504 24125
L20474 24140
L20399 24140
L20369 24125
L20354 24110
" />
<path d="M20639 24245
L20714 24245
L20714 23795
L20639 23795
" />
<path d="M21119 24110
L21134 24125
L21119 24140
L21104 24125
L21119 24110
L21119 24140
" />
<path d="M21119 23945
L21134 23960
L21119 23975
L21104 23960
L21119 23945
L21119 23975
" />
<path d="M21689 24110
L21674 24125
L21629 24140
L21599 24140
L21554 24125
L21524 24095
L21509 24065
L21494 24005
L21494 23960
L21509 23900
L21524 23870
L21554 23840
L21599 23825
L21629 23825
L21674 23840
L21689 23855
" />
<path d="M21809 24050
L21959 24050
" />
<path d="M21779 24140
L21884 23825
L21989 24140
" />
<path d="M22094 24140
L22094 23825
L22274 24140
L22274 23825
" />
<path d="M22424 24020
L22664 24020
" />
<path d="M22799 24125
L22844 24140
L22919 24140
L22949 24125
L22964 24110
L22979 24080
L22979 24050
L22964 24020
L22949 24005
L22919 23990
L22859 23975
L22829 23960
L22814 23945
L22799 23915
L22799 23885
L22814 23855
L22829 23840
L22859 23825
L22934 23825
L22979 23840
" />
<path d="M23069 23825
L23249 23825
" />
<path d="M23159 24140
L23159 23825
" />
<path d="M23459 23975
L23504 23990
L23519 24005
L23534 24035
L23534 24080
L23519 24110
L23504 24125
L23474 24140
L23354 24140
L23354 23825
L23459 23825
L23489 23840
L23504 23855
L23519 23885
L23519 23915
L23504 23945
L23489 23960
L23459 23975
L23354 23975
" />
<path d="M19844 24375
L19859 24360
L19889 24345
L19964 24345
L19994 24360
L20009 24375
L20024 24405
L20024 24435
L20009 24480
L19829 24660
L20024 24660
" />
<path d="M20249 24765
L20174 24765
L20174 24315
L20249 24315
" />
<path d="M20504 24345
L20444 24345
L20414 24360
L20399 24375
L20369 24420
L20354 24480
L20354 24600
L20369 24630
L20384 24645
L20414 24660
L20474 24660
L20504 24645
L20519 24630
L20534 24600
L20534 24525
L20519 24495
L20504 24480
L20474 24465
L20414 24465
L20384 24480
L20369 24495
L20354 24525
" />
<path d="M20639 24765
L20714 24765
L20714 24315
L20639 24315
" />
<path d="M21119 24630
L21134 24645
L21119 24660
L21104 24645
L21119 24630
L21119 24660
" />
<path d="M21119 24465
L21134 24480
L21119 24495
L21104 24480
L21119 24465
L21119 24495
" />
<path d="M21689 24630
L21674 24645
L21629 24660
L21599 24660
L21554 24645
L21524 24615
L21509 24585
L21494 24525
L21494 24480
L21509 24420
L21524 24390
L21554 24360
L21599 24345
L21629 24345
L21674 24360
L21689 24375
" />
<path d="M21809 24570
L21959 24570
" />
<path d="M21779 24660
L21884 24345
L21989 24660
" />
<path d="M22094 24660
L22094 24345
L22274 24660
L22274 24345
" />
<path d="M22424 24540
L22664 24540
" />
<path d="M22769 24345
L22949 24345
" />
<path d="M22859 24660
L22859 24345
" />
<path d="M23024 24345
L23234 24660
" />
<path d="M23234 24345
L23024 24660
" />
<path d="M23354 24660
L23354 24345
L23429 24345
L23474 24360
L23504 24390
L23519 24420
L23534 24480
L23534 24525
L23519 24585
L23504 24615
L23474 24645
L23429 24660
L23354 24660
" />
<path d="M19844 24894
L19859 24879
L19889 24864
L19964 24864
L19994 24879
L20009 24894
L20024 24924
L20024 24954
L20009 24999
L19829 25179
L20024 25179
" />
<path d="M20249 25284
L20174 25284
L20174 24834
L20249 24834
" />
<path d="M20339 24864
L20549 24864
L20414 25179
" />
<path d="M20639 25284
L20714 25284
L20714 24834
L20639 24834
" />
<path d="M21119 25149
L21134 25164
L21119 25179
L21104 25164
L21119 25149
L21119 25179
" />
<path d="M21119 24984
L21134 24999
L21119 25014
L21104 24999
L21119 24984
L21119 25014
" />
<path d="M21689 25149
L21674 25164
L21629 25179
L21599 25179
L21554 25164
L21524 25134
L21509 25104
L21494 25044
L21494 24999
L21509 24939
L21524 24909
L21554 24879
L21599 24864
L21629 24864
L21674 24879
L21689 24894
" />
<path d="M21809 25089
L21959 25089
" />
<path d="M21779 25179
L21884 24864
L21989 25179
" />
<path d="M22094 25179
L22094 24864
L22274 25179
L22274 24864
" />
<path d="M22424 25059
L22664 25059
" />
<path d="M22994 25179
L22889 25029
" />
<path d="M22814 25179
L22814 24864
L22934 24864
L22964 24879
L22979 24894
L22994 24924
L22994 24969
L22979 24999
L22964 25014
L22934 25029
L22814 25029
" />
<path d="M23099 24864
L23309 25179
" />
<path d="M23309 24864
L23099 25179
" />
<path d="M23429 25179
L23429 24864
L23504 24864
L23549 24879
L23579 24909
L23594 24939
L23609 24999
L23609 25044
L23594 25104
L23579 25134
L23549 25164
L23504 25179
L23429 25179
" />
</g>
<g style="fill:#000000; fill-opacity:0.0; 
stroke:#000000; stroke-width:19.685; stroke-opacity:1; 
stroke-linecap:round; stroke-linejoin:round;">
<path d="M15748 43622
L15748 25590
" />
<path d="M16062 43622
L15748 43622
" />
<path d="M16062 46929
L16062 43622
" />
<path d="M15748 46929
L16062 46929
" />
<path d="M15748 49212
L15748 46929
" />
<path d="M27559 31023
L27559 25590
" />
<path d="M27559 34330
L27559 49212
" />
<path d="M27244 34330
L27559 34330
" />
<path d="M27244 31023
L27244 34330
" />
<path d="M27559 31023
L27244 31023
" />
<path d="M27559.1 25590.6 A1968.5 1968.5 0.0 0 0 25590.6 23622 " />
<path d="M25590.6 51181.1 A1968.5 1968.5 0.0 0 0 27559.1 49212.6 " />
<path d="M25590 51181
L17716 51181
" />
<path d="M17716 23622
L25590 23622
" />
<path d="M17716.5 23622 A1968.5 1968.5 0.0 0 0 15748 25590.6 " />
<path d="M15748 49212.6 A1968.5 1968.5 0.0 0 0 17716.5 51181.1 " />
</g>
<g style="fill:#000000; fill-opacity:0.0; 
stroke:#000000; stroke-width:59.0551; stroke-opacity:1; 
stroke-linecap:round; stroke-linejoin:round;">
<path d="M27145 37503
L27145 47740
" />
<path d="M27145 47740
L18484 47740
" />
<path d="M18484 47740
L18484 37503
" />
<path d="M18484 37503
L27145 37503
" />
</g>
<g style="fill:#000000; fill-opacity:0.0; 
stroke:#000000; stroke-width:47.2441; stroke-opacity:1; 
stroke-linecap:round; stroke-linejoin:round;">
<path d="M18311 28282
L18311 28410
" />
<path d="M17909 28282
L17909 28410
" />
<path d="M24543 28922
L24543 28794
" />
<path d="M24944 28922
L24944 28794
" />
<path d="M17091 30633
L16963 30633
" />
<path d="M17091 30232
L16963 30232
" />
<path d="M27307 28922
L27307 28794
" />
<path d="M26905 28922
L26905 28794
" />
<path d="M26535 36627
L27435 36627
" />
<path d="M27435 36627
L27435 36049
" />
<path d="M27435 36049
L26535 36049
" />
<path d="M27435 36757
L26535 36757
" />
<path d="M27435 37336
L27435 36757
" />
<path d="M26535 37336
L27435 37336
" />
<path d="M24901 31476
L24901 32007
" />
<path d="M25236 31476
L24901 31476
" />
<path d="M24901 33897
L24901 33346
" />
<path d="M25236 33897
L24901 33897
" />
<path d="M26791 31122
L27263 31122
" />
<path d="M24921 33110
L25000 33188
" />
<path d="M24921 33267
L24921 33110
" />
<path d="M25000 33188
L24921 33267
" />
<path d="M26791 34232
L27263 34232
" />
<path d="M25236 31122
L25236 31476
" />
<path d="M25255 31122
L25236 31122
" />
<path d="M25944 31122
L25255 31122
" />
<path d="M25236 34232
L25236 33897
" />
<path d="M25944 34232
L25236 34232
" />
</g>
<g style="fill:#000000; fill-opacity:0.0; 
stroke:#000000; stroke-width:59.0551; stroke-opacity:1; 
stroke-linecap:round; stroke-linejoin:round;">
<path d="M16062 34055
L18425 34055
" />
<path d="M16062 39960
L16062 39763
" />
<path d="M18425 39960
L16062 39960
" />
<path d="M18425 39763
L18425 39960
" />
<path d="M17125 34409
L18070 34409
" />
<path d="M17125 34409
L16456 34409
" />
<path d="M17125 39606
L18070 39606
" />
<path d="M17125 39606
L16456 39606
" />
<path d="M16456 38622
L16456 34409
" />
<path d="M18070 34409
L18070 38622
" />
<path d="M18425 39409
L18070 39409
" />
<path d="M16456 39409
L16062 39409
" />
<path d="M16062 39763
L16062 39409
" />
<path d="M18070 34606
L18425 34606
" />
<path d="M16062 34606
L16062 34055
" />
<path d="M16456 34606
L16062 34606
" />
<path d="M18425 34606
L18425 34055
" />
<path d="M18425 39763
L18425 39409
" />
<path d="M18307 35118
L18070 35118
" />
<path d="M18307 34842
L18307 35118
" />
<path d="M18070 34842
L18307 34842
" />
<path d="M18307 38897
L18070 38897
" />
<path d="M18307 39173
L18307 38897
" />
<path d="M18070 39173
L18307 39173
" />
<path d="M18228 37913
L18228 35118
" />
<path d="M18070 39606
L18070 38622
" />
<path d="M18228 37913
L18228 38897
" />
<path d="M16456 39606
L16456 38622
" />
</g>
<g style="fill:#000000; fill-opacity:0.0; 
stroke:#000000; stroke-width:47.2441; stroke-opacity:1; 
stroke-linecap:round; stroke-linejoin:round;">
<path d="M21653 25547
L24137 25547
" />
<path d="M24137 25547
L24137 30161
" />
<path d="M24137 30161
L23578 30161
" />
<path d="M23578 30161
L23578 28389
" />
<path d="M23578 28389
L21653 28389
" />
<path d="M21653 25547
L19169 25547
" />
<path d="M19169 25547
L19169 30161
" />
<path d="M19169 30161
L19728 30161
" />
<path d="M19728 30161
L19728 28389
" />
<path d="M19728 28389
L21653 28389
" />
<path d="M23228 27952
L23228 25787
" />
<path d="M23228 25787
L23031 25787
" />
<path d="M23031 25787
L23031 27952
" />
<path d="M23031 27952
L23228 27952
" />
<path d="M22244 27952
L22244 25787
" />
<path d="M22244 25787
L22047 25787
" />
<path d="M22047 25787
L22047 27952
" />
<path d="M22047 27952
L22244 27952
" />
<path d="M21259 27952
L21259 25787
" />
<path d="M21259 25787
L21062 25787
" />
<path d="M21062 25787
L21062 27952
" />
<path d="M21062 27952
L21259 27952
" />
<path d="M20275 27952
L20275 25787
" />
<path d="M20275 25787
L20078 25787
" />
<path d="M20078 25787
L20078 27952
" />
<path d="M20078 27952
L20275 27952
" />
<path d="M23129 29803
L23248 30039
" />
<path d="M23248 30039
L23011 30039
" />
<path d="M23011 30039
L23129 29803
" />
<path d="M16413 28885
L16413 29578
" />
<path d="M17622 29578
L17622 28622
" />
</g>
<g style="fill:#000000; fill-opacity:0.0; 
stroke:#000000; stroke-width:59.0551; stroke-opacity:1; 
stroke-linecap:round; stroke-linejoin:round;">
<path d="M26358 28415
L25531 28415
" />
<path d="M26663 29694
L25531 29694
" />
</g>
<g style="fill:#000000; fill-opacity:0.0; 
stroke:#000000; stroke-width:47.2441; stroke-opacity:1; 
stroke-linecap:round; stroke-linejoin:round;">
<path d="M18677 30744
L18574 30744
" />
<path d="M19905 31913
L19905 31854
" />
<path d="M18677 31913
L19905 31913
" />
<path d="M18677 30685
L19905 30685
" />
<path d="M18677 31913
L18677 31854
" />
<path d="M18677 30685
L18677 30744
" />
<path d="M19905 30685
L19905 30744
" />
<g >
</g>
<g >
</g>
<g >
</g>
<g >
</g>
<g >
</g>
<g >
</g>
<g >
</g>
<g >
</g>
<g >
</g>
<g >
</g>
<g >
</g>
<g >
</g>
<g >
</g>
<g >
</g>
<g >
</g>
<g >
</g>
<g >
</g>
<g >
</g>
<g >
</g>
<g >
</g>
<g >
</g>
<g >
</g>
<g >
</g>
<g >
</g>
<g >
</g>
<g >
</g>
<g >
</g>
<g >
</g>
<g >
</g>
<g >
</g>
<g >
</g>
<g >
</g>
<g >
</g>
<g >
</g>
<g >
</g>
<g >
</g>
<g >
</g>
<g >
</g>
<g >
</g>
<g >
</g>
<g >
</g>
<g >
</g>
<g >
</g>
<g >
</g>
<g >
</g>
<g >
</g>
<g >
</g>
<g >
</g>
<g >
</g>
<g >
</g>
<g >
</g>
<g >
</g>
<g >
</g>
<g >
</g>
<g >
</g>
<g >
</g>
<g >
</g>
<g >
</g>
<g >
</g>
<g >
</g>
<g >
</g>
<g >
</g>
<g >
</g>
<g >
</g>
<g >
</g>
<g >
</g>
<g >
</g>
<g >
</g>
<g >
</g>
<g >
</g>
<g >
</g>
<g >
</g>
<g >
</g>
<g >
</g>
<g >
</g>
<g >
</g>
<g >
</g>
<g >
</g>
<g >
</g>
<g >
</g>
<g >
</g>
<g >
</g>
<g >
</g>
</g>
<g style="fill:#000000; fill-opacity:0.0; 
stroke:#000000; stroke-width:47.2441; stroke-opacity:1; 
stroke-linecap:round; stroke-linejoin:round;">
</g>
<g style="fill:#000000; fill-opacity:0.0; 
stroke:#000000; stroke-width:59.0551; stroke-opacity:1; 
stroke-linecap:round; stroke-linejoin:round;">
<path d="M22274 41075
L22274 41394
L22293 41431
L22312 41450
L22349 41469
L22424 41469
L22462 41450
L22481 41431
L22499 41394
L22499 41075
" />
<path d="M22649 41075
L22912 41075
L22743 41469
" />
<path d="M18044 27620
L18025 27639
L17969 27658
L17932 27658
L17875 27639
L17838 27602
L17819 27564
L17800 27489
L17800 27433
L17819 27358
L17838 27320
L17875 27283
L17932 27264
L17969 27264
L18025 27283
L18044 27302
" />
<path d="M18419 27658
L18194 27658
" />
<path d="M18307 27658
L18307 27264
L18269 27320
L18232 27358
L18194 27377
" />
<path d="M24658 28172
L24640 28190
L24583 28209
L24546 28209
L24490 28190
L24452 28153
L24433 28115
L24415 28040
L24415 27984
L24433 27909
L24452 27872
L24490 27834
L24546 27815
L24583 27815
L24640 27834
L24658 27853
" />
<path d="M24808 27853
L24827 27834
L24865 27815
L24958 27815
L24996 27834
L25014 27853
L25033 27890
L25033 27928
L25014 27984
L24790 28209
L25033 28209
" />
<path d="M20603 31439
L20584 31458
L20528 31477
L20491 31477
L20434 31458
L20397 31421
L20378 31383
L20359 31308
L20359 31252
L20378 31177
L20397 31139
L20434 31102
L20491 31083
L20528 31083
L20584 31102
L20603 31121
" />
<path d="M20734 31083
L20978 31083
L20847 31233
L20903 31233
L20941 31252
L20959 31271
L20978 31308
L20978 31402
L20959 31439
L20941 31458
L20903 31477
L20791 31477
L20753 31458
L20734 31439
" />
<path d="M17857 31364
L17875 31383
L17894 31439
L17894 31477
L17875 31533
L17838 31571
L17800 31589
L17725 31608
L17669 31608
L17594 31589
L17557 31571
L17519 31533
L17500 31477
L17500 31439
L17519 31383
L17538 31364
" />
<path d="M17632 31027
L17894 31027
" />
<path d="M17482 31121
L17763 31214
L17763 30971
" />
<path d="M19639 32884
L19620 32903
L19564 32922
L19526 32922
L19470 32903
L19432 32865
L19414 32828
L19395 32753
L19395 32697
L19414 32622
L19432 32584
L19470 32547
L19526 32528
L19564 32528
L19620 32547
L19639 32565
" />
<path d="M19995 32528
L19807 32528
L19789 32715
L19807 32697
L19845 32678
L19939 32678
L19976 32697
L19995 32715
L20014 32753
L20014 32847
L19995 32884
L19976 32903
L19939 32922
L19845 32922
L19807 32903
L19789 32884
" />
<path d="M17965 30573
L17947 30592
L17890 30611
L17853 30611
L17797 30592
L17759 30554
L17740 30517
L17722 30442
L17722 30386
L17740 30311
L17759 30273
L17797 30236
L17853 30217
L17890 30217
L17947 30236
L17965 30254
" />
<path d="M18303 30217
L18228 30217
L18190 30236
L18172 30254
L18134 30311
L18115 30386
L18115 30536
L18134 30573
L18153 30592
L18190 30611
L18265 30611
L18303 30592
L18322 30573
L18340 30536
L18340 30442
L18322 30404
L18303 30386
L18265 30367
L18190 30367
L18153 30386
L18134 30404
L18115 30442
" />
<path d="M27020 28132
L27002 28151
L26946 28170
L26908 28170
L26852 28151
L26814 28113
L26796 28076
L26777 28001
L26777 27945
L26796 27870
L26814 27832
L26852 27795
L26908 27776
L26946 27776
L27002 27795
L27020 27814
" />
<path d="M27152 27776
L27414 27776
L27245 28170
" />
<path d="M24748 36516
L24748 36122
L24842 36122
L24898 36141
L24936 36179
L24955 36216
L24973 36291
L24973 36347
L24955 36422
L24936 36460
L24898 36497
L24842 36516
L24748 36516
" />
<path d="M25348 36516
L25123 36516
" />
<path d="M25236 36516
L25236 36122
L25198 36179
L25161 36216
L25123 36235
" />
<path d="M24748 37225
L24748 36831
L24842 36831
L24898 36850
L24936 36887
L24955 36925
L24973 37000
L24973 37056
L24955 37131
L24936 37169
L24898 37206
L24842 37225
L24748 37225
" />
<path d="M25123 36869
L25142 36850
L25179 36831
L25273 36831
L25311 36850
L25329 36869
L25348 36906
L25348 36944
L25329 37000
L25104 37225
L25348 37225
" />
<path d="M18597 24193
L18597 23800
" />
<path d="M18597 23987
L18822 23987
" />
<path d="M18822 24193
L18822 23800
" />
<path d="M19216 24193
L18991 24193
" />
<path d="M19103 24193
L19103 23800
L19066 23856
L19028 23893
L18991 23912
" />
<path d="M24109 24193
L24109 23800
" />
<path d="M24109 23987
L24334 23987
" />
<path d="M24334 24193
L24334 23800
" />
<path d="M24503 23837
L24521 23818
L24559 23800
L24653 23800
L24690 23818
L24709 23837
L24728 23875
L24728 23912
L24709 23968
L24484 24193
L24728 24193
" />
<path d="M24109 50965
L24109 50571
" />
<path d="M24109 50759
L24334 50759
" />
<path d="M24334 50965
L24334 50571
" />
<path d="M24484 50571
L24728 50571
L24596 50721
L24653 50721
L24690 50740
L24709 50759
L24728 50796
L24728 50890
L24709 50928
L24690 50946
L24653 50965
L24540 50965
L24503 50946
L24484 50928
" />
<path d="M18597 50965
L18597 50571
" />
<path d="M18597 50759
L18822 50759
" />
<path d="M18822 50965
L18822 50571
" />
<path d="M19178 50703
L19178 50965
" />
<path d="M19085 50553
L18991 50834
L19235 50834
" />
<path d="M24339 31465
L24620 31465
L24676 31484
L24714 31522
L24733 31578
L24733 31615
" />
<path d="M24733 31072
L24733 31297
" />
<path d="M24733 31184
L24339 31184
L24395 31222
L24433 31259
L24452 31297
" />
<path d="M16319 37298
L15926 37298
L15926 37148
L15944 37110
L15963 37092
L16001 37073
L16057 37073
L16094 37092
L16113 37110
L16132 37148
L16132 37298
" />
<path d="M16319 36698
L16319 36923
" />
<path d="M16319 36811
L15926 36811
L15982 36848
L16019 36886
L16038 36923
" />
<path d="M20603 30965
L20472 30778
" />
<path d="M20378 30965
L20378 30571
L20528 30571
L20566 30590
L20584 30609
L20603 30646
L20603 30703
L20584 30740
L20566 30759
L20528 30778
L20378 30778
" />
<path d="M20978 30965
L20753 30965
" />
<path d="M20866 30965
L20866 30571
L20828 30628
L20791 30665
L20753 30684
" />
<path d="M20603 31989
L20472 31801
" />
<path d="M20378 31989
L20378 31595
L20528 31595
L20566 31614
L20584 31632
L20603 31670
L20603 31726
L20584 31764
L20566 31782
L20528 31801
L20378 31801
" />
<path d="M20753 31632
L20772 31614
L20809 31595
L20903 31595
L20941 31614
L20959 31632
L20978 31670
L20978 31707
L20959 31764
L20734 31989
L20978 31989
" />
<path d="M23556 32737
L23425 32549
" />
<path d="M23331 32737
L23331 32343
L23481 32343
L23518 32362
L23537 32380
L23556 32418
L23556 32474
L23537 32512
L23518 32530
L23481 32549
L23331 32549
" />
<path d="M23893 32474
L23893 32737
" />
<path d="M23800 32324
L23706 32605
L23950 32605
" />
<path d="M23556 33209
L23425 33022
" />
<path d="M23331 33209
L23331 32815
L23481 32815
L23518 32834
L23537 32853
L23556 32890
L23556 32947
L23537 32984
L23518 33003
L23481 33022
L23331 33022
" />
<path d="M23912 32815
L23725 32815
L23706 33003
L23725 32984
L23762 32965
L23856 32965
L23893 32984
L23912 33003
L23931 33040
L23931 33134
L23912 33172
L23893 33190
L23856 33209
L23762 33209
L23725 33190
L23706 33172
" />
<path d="M24265 36516
L24133 36329
" />
<path d="M24040 36516
L24040 36122
L24190 36122
L24227 36141
L24246 36160
L24265 36197
L24265 36254
L24246 36291
L24227 36310
L24190 36329
L24040 36329
" />
<path d="M24602 36122
L24527 36122
L24490 36141
L24471 36160
L24433 36216
L24415 36291
L24415 36441
L24433 36479
L24452 36497
L24490 36516
L24565 36516
L24602 36497
L24621 36479
L24640 36441
L24640 36347
L24621 36310
L24602 36291
L24565 36272
L24490 36272
L24452 36291
L24433 36310
L24415 36347
" />
<path d="M24265 37225
L24133 37037
" />
<path d="M24040 37225
L24040 36831
L24190 36831
L24227 36850
L24246 36869
L24265 36906
L24265 36962
L24246 37000
L24227 37019
L24190 37037
L24040 37037
" />
<path d="M24396 36831
L24658 36831
L24490 37225
" />
<path d="M21353 27658
L21353 27977
L21372 28014
L21391 28033
L21428 28052
L21503 28052
L21541 28033
L21559 28014
L21578 27977
L21578 27658
" />
<path d="M21972 28052
L21747 28052
" />
<path d="M21859 28052
L21859 27658
L21822 27714
L21784 27752
L21747 27770
" />
<path d="M17776 30024
L18095 30024
L18132 30005
L18151 29986
L18170 29949
L18170 29874
L18151 29836
L18132 29818
L18095 29799
L17776 29799
" />
<path d="M17814 29630
L17795 29611
L17776 29574
L17776 29480
L17795 29443
L17814 29424
L17851 29405
L17889 29405
L17945 29424
L18170 29649
L18170 29405
" />
<path d="M25644 29863
L25644 30181
L25663 30219
L25682 30238
L25719 30256
L25794 30256
L25832 30238
L25851 30219
L25869 30181
L25869 29863
" />
<path d="M26019 29863
L26263 29863
L26132 30013
L26188 30013
L26226 30031
L26244 30050
L26263 30088
L26263 30181
L26244 30219
L26226 30238
L26188 30256
L26076 30256
L26038 30238
L26019 30219
" />
<path d="M18361 31989
L18361 32307
L18380 32345
L18398 32364
L18436 32382
L18511 32382
L18548 32364
L18567 32345
L18586 32307
L18586 31989
" />
<path d="M18942 32120
L18942 32382
" />
<path d="M18848 31970
L18755 32251
L18998 32251
" />
<g >
</g>
</g> 
</svg>
